<svg width="100" height="100" viewBox="0 0 100 100" fill="none" xmlns="http://www.w3.org/2000/svg">
<path opacity="0.889" fill-rule="evenodd" clip-rule="evenodd" d="M55.5 6.50001C57.924 6.19245 60.2573 6.52578 62.5 7.50001C63.2839 12.0584 65.4506 15.7251 69 18.5C69.8624 20.087 70.5291 21.7536 71 23.5C71.0889 30.9397 71.9222 38.273 73.5 45.5C73.3078 47.5767 72.8078 49.5767 72 51.5C67.0816 56.6672 64.7482 62.6672 65 69.5C74.4625 73.035 83.6292 77.035 92.5 81.5C91.877 84.1668 90.877 86.6668 89.5 89C84.964 90.3789 80.2973 90.8789 75.5 90.5C75.5 88.8333 75.5 87.1667 75.5 85.5C71.1434 85.4135 66.81 85.0802 62.5 84.5C62.5 86.5 62.5 88.5 62.5 90.5C59.5 90.5 56.5 90.5 53.5 90.5C52.7393 86.2901 51.7393 82.1234 50.5 78C53.4806 75.6915 56.4806 73.3581 59.5 71C58.8742 70.2496 58.3742 69.4162 58 68.5C55.6941 70.8881 52.8608 71.8881 49.5 71.5C46.1392 71.8881 43.3059 70.8881 41 68.5C40.6258 69.4162 40.1258 70.2496 39.5 71C42.5194 73.3581 45.5194 75.6915 48.5 78C47.2607 82.1234 46.2607 86.2901 45.5 90.5C34.1618 90.6665 22.8284 90.4999 11.5 90C8.45493 88.0674 6.78826 85.234 6.5 81.5C15.3708 77.035 24.5375 73.035 34 69.5C34.2518 62.6672 31.9184 56.6672 27 51.5C26.1922 49.5767 25.6922 47.5767 25.5 45.5C26.8806 36.8598 28.0473 28.1931 29 19.5C30.4421 15.7251 32.9421 12.8917 36.5 11C42.7623 8.65196 49.0956 7.15196 55.5 6.50001ZM35.5 25.5C44.5046 26.6644 53.5046 26.8311 62.5 26C65.6623 32.8032 67.1623 39.9699 67 47.5C63.6634 55.1725 58.4967 61.3391 51.5 66C48.788 66.7381 46.4547 66.0714 44.5 64C34.7573 56.2152 30.9239 46.3818 33 34.5C33.199 31.2777 34.0324 28.2777 35.5 25.5Z" fill="#82A2B0"/>
</svg>
