<svg width="100" height="100" viewBox="0 0 100 100" fill="none" xmlns="http://www.w3.org/2000/svg">
<path opacity="0.888" fill-rule="evenodd" clip-rule="evenodd" d="M55.5 6.50001C57.924 6.19245 60.2573 6.52578 62.5 7.50001C63.2839 12.0584 65.4506 15.7251 69 18.5C69.8624 20.087 70.5291 21.7536 71 23.5C71.0889 30.9397 71.9222 38.273 73.5 45.5C73.3078 47.5767 72.8078 49.5767 72 51.5C69.6667 54.8333 67.3333 58.1667 65 61.5C64.3901 65.2364 64.7235 68.9031 66 72.5C74.4136 75.1923 82.9136 77.6923 91.5 80C92.0886 82.8597 91.5886 85.693 90 88.5C89.2496 89.1258 88.4162 89.6258 87.5 90C74.8333 90.1667 62.1667 90.3333 49.5 90.5C36.0758 90.6495 22.7424 90.1495 9.50002 89C7.5294 86.1352 6.86273 83.1352 7.50002 80C16.0864 77.6923 24.5864 75.1923 33 72.5C34.2765 68.9031 34.6099 65.2364 34 61.5C31.6667 58.1667 29.3333 54.8333 27 51.5C26.1922 49.5767 25.6922 47.5767 25.5 45.5C27.093 37.9391 27.9263 30.2725 28 22.5C29.8333 15.3333 34.3333 10.8333 41.5 9.00001C46.3146 8.19661 50.9813 7.36328 55.5 6.50001ZM35.5 25.5C44.5046 26.6644 53.5046 26.8311 62.5 26C65.6623 32.8032 67.1623 39.9699 67 47.5C63.6634 55.1725 58.4967 61.3391 51.5 66C48.788 66.7381 46.4547 66.0714 44.5 64C34.7573 56.2152 30.9239 46.3818 33 34.5C33.199 31.2777 34.0324 28.2777 35.5 25.5ZM39.5 68.5C45.8351 72.4337 52.1685 72.4337 58.5 68.5C59.2733 70.813 59.9399 73.1463 60.5 75.5C57.5004 80.7148 53.1671 83.5481 47.5 84C44.3699 81.872 41.5366 79.372 39 76.5C39.2554 73.9184 39.422 71.2518 39.5 68.5Z" fill="#82A2B0"/>
</svg>
