<svg width="100" height="100" viewBox="0 0 100 100" fill="none" xmlns="http://www.w3.org/2000/svg">
<path opacity="0.902" fill-rule="evenodd" clip-rule="evenodd" d="M43.5 8.5C61.4124 7.21112 72.9124 15.2111 78 32.5C80.0908 39.0408 81.0908 45.7075 81 52.5C76.5874 60.0794 70.4207 65.7461 62.5 69.5C61.5713 70.6888 61.238 72.0222 61.5 73.5C69.2817 75.7609 76.9484 78.4276 84.5 81.5C85.7974 84.1878 85.4641 86.6878 83.5 89C80.6492 90.2886 77.6492 90.7886 74.5 90.5C74.5 88.8333 74.5 87.1667 74.5 85.5C70.5 85.5 66.5 85.5 62.5 85.5C62.5 87.1667 62.5 88.8333 62.5 90.5C59.4816 90.6646 56.4816 90.498 53.5 90C50.9406 86.9253 50.9406 83.9253 53.5 81C49.75 78.2971 50.25 76.1304 55 74.5C55.5908 73.5165 55.2575 72.8499 54 72.5C50.4281 73.2917 46.9281 73.6251 43.5 73.5C45.1256 74.9905 46.7923 76.4905 48.5 78C47.5 79 46.5 80 45.5 81C48.0594 83.9253 48.0594 86.9253 45.5 90C35.4002 90.9487 25.4002 90.6154 15.5 89C13.5359 86.6878 13.2026 84.1878 14.5 81.5C22.0516 78.4276 29.7183 75.7609 37.5 73.5C37.7852 71.712 37.4519 70.0453 36.5 68.5C27.4705 64.1371 20.8038 57.4705 16.5 48.5C20.7156 38.3456 25.2156 28.3456 30 18.5C33.5795 13.7307 38.0795 10.3974 43.5 8.5ZM53.5 25.5C54.318 32.147 57.1513 33.147 62 28.5C62.3333 28.8333 62.6667 29.1667 63 29.5C63.8379 35.5963 65.0046 41.5963 66.5 47.5C63.5316 54.5955 59.1982 60.7622 53.5 66C50.8333 68 48.1667 68 45.5 66C39.8018 60.7622 35.4684 54.5955 32.5 47.5C34.0221 44.3604 34.8554 41.0271 35 37.5C41.9656 34.6088 48.1322 30.6088 53.5 25.5Z" fill="#82A2B0"/>
</svg>
