<svg width="100" height="100" viewBox="0 0 100 100" fill="none" xmlns="http://www.w3.org/2000/svg">
<path opacity="0.902" fill-rule="evenodd" clip-rule="evenodd" d="M44.5 8.5C62.4124 7.21112 73.9124 15.2111 79 32.5C81.0908 39.0408 82.0908 45.7075 82 52.5C77.5874 60.0794 71.4207 65.7461 63.5 69.5C62.5713 70.6888 62.238 72.0222 62.5 73.5C70.2817 75.7609 77.9484 78.4276 85.5 81.5C86.7974 84.1878 86.4641 86.6878 84.5 89C81.6492 90.2886 78.6492 90.7886 75.5 90.5C75.5 88.8333 75.5 87.1667 75.5 85.5C71.5 85.5 67.5 85.5 63.5 85.5C63.5 87.1667 63.5 88.8333 63.5 90.5C60.4816 90.6646 57.4816 90.498 54.5 90C51.9406 86.9253 51.9406 83.9253 54.5 81C50.75 78.2971 51.25 76.1304 56 74.5C56.5908 73.5165 56.2575 72.8499 55 72.5C51.4281 73.2917 47.9281 72.6251 44.5 72.5C46.1256 73.9905 47.7923 76.4905 49.5 78C48.5 79 47.5 80 46.5 81C49.0594 83.9253 49.0594 86.9253 46.5 90C36.4002 90.9487 26.4002 90.6154 16.5 89C14.5359 86.6878 14.2026 84.1878 15.5 81.5C23.0516 78.4276 30.7183 75.7609 38.5 73.5C38.7852 71.712 38.4519 70.0453 37.5 68.5C28.4705 64.1371 21.8038 57.4705 17.5 48.5C21.7156 38.3456 26.2156 28.3456 31 18.5C34.5795 13.7307 39.0795 10.3974 44.5 8.5ZM54.5 25.5C54.5 27.5 54 32.5 54 32.5C57.5 30 63.6667 29.1667 64 29.5C64.8379 35.5963 66.0046 41.5963 67.5 47.5C64.5316 54.5955 60.1982 60.7622 54.5 66C51.8333 68 49.1667 68 46.5 66C40.8018 60.7622 36.4684 54.5955 33.5 47.5C35.0221 44.3604 35.8554 41.0271 36 37.5C42.9656 34.6088 49.1322 30.6088 54.5 25.5Z" fill="#82A2B0"/>
</svg>
