<svg width="240" height="305" viewBox="0 0 240 305" fill="none" xmlns="http://www.w3.org/2000/svg">
<rect x="13" y="8" width="211" height="6" rx="3" fill="#82A2B0"/>
<rect x="13" y="19" width="211" height="6" rx="3" fill="#82A2B0"/>
<rect x="13" y="30" width="149" height="6" rx="3" fill="#82A2B0"/>
<rect x="13" y="63" width="149" height="4" rx="2" fill="#82A2B0"/>
<rect x="13" y="113" width="149" height="4" rx="2" fill="#82A2B0"/>
<rect x="78" y="200" width="146" height="4" rx="2" fill="#82A2B0"/>
<rect x="78" y="263" width="146" height="4" rx="2" fill="#82A2B0"/>
<rect x="13" y="74" width="149" height="4" rx="2" fill="#82A2B0"/>
<rect x="13" y="124" width="149" height="4" rx="2" fill="#82A2B0"/>
<rect x="78" y="211" width="146" height="4" rx="2" fill="#82A2B0"/>
<rect x="78" y="274" width="146" height="4" rx="2" fill="#82A2B0"/>
<rect x="13" y="85" width="149" height="4" rx="2" fill="#82A2B0"/>
<rect x="13" y="135" width="149" height="4" rx="2" fill="#82A2B0"/>
<rect x="78" y="222" width="146" height="4" rx="2" fill="#82A2B0"/>
<rect x="78" y="285" width="146" height="4" rx="2" fill="#82A2B0"/>
<rect x="13" y="163" width="211" height="4" rx="2" fill="#82A2B0"/>
<rect x="13" y="174" width="141" height="4" rx="2" fill="#82A2B0"/>
<rect x="21" y="198" width="30" height="30" rx="2" stroke="#82A2B0" stroke-width="4"/>
<rect x="192" y="61" width="30" height="30" rx="2" stroke="#82A2B0" stroke-width="4"/>
<rect x="21" y="261" width="30" height="30" rx="2" stroke="#82A2B0" stroke-width="4"/>
<rect x="192" y="111" width="30" height="30" rx="2" stroke="#82A2B0" stroke-width="4"/>
</svg>
