<svg width="24" height="23" viewBox="0 0 24 23" fill="none" xmlns="http://www.w3.org/2000/svg">
<path d="M2 23C1.44444 23 0.972444 22.8083 0.584 22.4248C0.195555 22.0414 0.000888889 21.575 0 21.0257V18.525L5.33333 13.8527V23H2ZM6.66667 23V17.7353H17.3333V23H6.66667ZM18.6667 23V12.2074L12.9667 7.20602L17 3.68528L23.3333 9.24607C23.5556 9.4435 23.7222 9.66856 23.8333 9.92127C23.9444 10.174 24 10.4425 24 10.7268V21.0257C24 21.5742 23.8058 22.0405 23.4173 22.4248C23.0289 22.8092 22.5564 23.0009 22 23H18.6667ZM0 16.7482V10.7268C0 10.4416 0.0555556 10.1674 0.166667 9.90416C0.277778 9.64092 0.444444 9.42156 0.666667 9.24607L10.6667 0.493576C10.8444 0.318088 11.0502 0.192174 11.284 0.115837C11.5178 0.0394993 11.7564 0.000892067 12 1.46241e-05C12.2436 -0.000862819 12.4827 0.0377444 12.7173 0.115837C12.952 0.193929 13.1573 0.319843 13.3333 0.493576L16 2.82977L0 16.7482Z" fill="#271F47"/>
</svg>
