<svg width="32" height="32" viewBox="0 0 32 32" fill="none" xmlns="http://www.w3.org/2000/svg">
<rect x="0.5" y="0.5" width="31" height="31" rx="15.5" fill="#BBD02D" stroke="white"/>
<path d="M8.5 23.475C8.08333 23.475 7.72933 23.3293 7.438 23.038C7.14667 22.7467 7.00067 22.3923 7 21.975V20.075L11 16.525V23.475H8.5ZM12 23.475V19.475H20V23.475H12ZM21 23.475V15.275L16.725 11.475L19.75 8.80001L24.5 13.025C24.6667 13.175 24.7917 13.346 24.875 13.538C24.9583 13.73 25 13.934 25 14.15V21.975C25 22.3917 24.8543 22.746 24.563 23.038C24.2717 23.33 23.9173 23.4757 23.5 23.475H21ZM7 18.725V14.15C7 13.9333 7.04167 13.725 7.125 13.525C7.20833 13.325 7.33333 13.1583 7.5 13.025L15 6.37501C15.1333 6.24168 15.2877 6.14601 15.463 6.08801C15.6383 6.03001 15.8173 6.00068 16 6.00001C16.1827 5.99934 16.362 6.02868 16.538 6.08801C16.714 6.14734 16.868 6.24301 17 6.37501L19 8.15001L7 18.725Z" fill="#271F47"/>
</svg>
