<svg width="240" height="305" viewBox="0 0 240 305" fill="none" xmlns="http://www.w3.org/2000/svg">
<rect x="14" y="60" width="81" height="81" rx="4" fill="#82A2B0"/>
<rect x="13" y="8" width="211" height="6" rx="3" fill="#82A2B0"/>
<rect x="13" y="19" width="211" height="6" rx="3" fill="#82A2B0"/>
<rect x="13" y="30" width="149" height="6" rx="3" fill="#82A2B0"/>
<rect x="113" y="63" width="111" height="4" rx="2" fill="#82A2B0"/>
<rect x="113" y="113" width="111" height="4" rx="2" fill="#82A2B0"/>
<rect x="78" y="200" width="146" height="4" rx="2" fill="#82A2B0"/>
<rect x="113" y="74" width="111" height="4" rx="2" fill="#82A2B0"/>
<rect x="113" y="124" width="111" height="4" rx="2" fill="#82A2B0"/>
<rect x="78" y="211" width="146" height="4" rx="2" fill="#82A2B0"/>
<rect x="113" y="85" width="111" height="4" rx="2" fill="#82A2B0"/>
<rect x="113" y="135" width="111" height="4" rx="2" fill="#82A2B0"/>
<rect x="78" y="222" width="68" height="4" rx="2" fill="#82A2B0"/>
<rect x="13" y="163" width="211" height="4" rx="2" fill="#82A2B0"/>
<rect x="13" y="174" width="141" height="4" rx="2" fill="#82A2B0"/>
<rect x="28" y="73" width="34" height="37.9231" fill="white"/>
<rect x="30.6154" y="76.9231" width="28.7692" height="24.8462" fill="#D3DEE3"/>
<path d="M44.3461 87.3846L30.6154 93.9231V101.769H59.3846V85.4231L48.2692 91.9615L44.3461 87.3846Z" fill="#82A2B0"/>
<circle cx="37.8077" cy="82.8077" r="3.26923" fill="#82A2B0"/>
<rect x="50.8499" y="79.9231" width="34.6409" height="38.638" transform="rotate(17.8599 50.8499 79.9231)" fill="white"/>
<rect x="52.569" y="83.2766" width="29.3116" height="25.3145" transform="rotate(17.8599 52.569 83.2766)" fill="#D3DEE3"/>
<path d="M55.6407 95.4648L47.0526 100.396L44.6009 108.005L72.4999 116.995L77.199 102.411L73.9653 95.0702L61.6151 102.989L55.6407 95.4648Z" fill="#82A2B0"/>
<circle cx="42" cy="215" r="18.5" stroke="#82A2B0" stroke-width="5"/>
<path d="M84 275C84.3312 273.428 87.9727 256.081 88.6387 253.129C89.3762 249.859 89.8405 245.393 90.9773 250.127C92.3895 256.007 93.5667 262.063 95.2326 267.817C96.1527 270.994 96.8776 273.609 98.9513 270.631C100.78 268.005 102.012 264.793 103.437 261.759C103.801 260.984 105.25 257.088 105.622 260.205C105.849 262.109 105.269 265.944 106.427 267.441C107.609 268.97 109.809 264.83 110.203 264.145C115.583 254.793 107.928 267.634 112.829 258.945C114.272 256.387 113.606 258.606 114.899 257.739C117.053 256.295 117.668 252.954 120.228 252.217C120.91 252.021 121.778 250.21 122.126 249.644C123.865 246.815 124.281 248.015 126.324 250.395C129.814 254.462 133.152 258.824 138.112 257.39C140.28 256.764 141.504 254.731 143 252.807" stroke="#9EB7C2" stroke-width="6" stroke-linecap="round"/>
</svg>
