<svg width="200" height="300" viewBox="0 0 400 600" xmlns="http://www.w3.org/2000/svg">
  <style>
    .page {
      opacity: 0;
      animation: cyclePages 9s infinite;
    }
    .page1 { animation-delay: 0s; }
    .page2 { animation-delay: 3s; }
    .page3 { animation-delay: 6s; }

    @keyframes cyclePages {
      0%, 33.3%   { opacity: 1; }
      33.4%, 100% { opacity: 0; }
    }
  </style>

  <!-- Фон листа с тенью -->
  <rect width="100%" height="100%" rx="8" ry="8" fill="white" stroke="#ccc" stroke-width="2" filter="url(#pageShadow)"/>

  <!-- Первая страница -->
  <g fill="#ccc" class="page page1">
    <rect x="20" y="30" width="300" height="20" rx="2" />
    <rect x="20" y="60" width="280" height="20" rx="2" />
    <rect x="20" y="90" width="270" height="20" rx="2" />
    <rect x="20" y="120" width="290" height="20" rx="2" />
    <rect x="20" y="250" width="250" height="20" rx="2" />
    <rect x="20" y="280" width="300" height="20" rx="2" />
    <rect x="20" y="310" width="280" height="20" rx="2" />
    <rect x="20" y="340" width="260" height="20" rx="2" />
    <rect x="20" y="370" width="270" height="20" rx="2" />
    <rect x="20" y="400" width="250" height="20" rx="2" />
  </g>

  <!-- Вторая страница -->
  <g class="page page2" fill="#ccc">
    <rect x="20" y="30" width="260" height="14" rx="3"/>
    <!-- Иконка изображения -->
    <g transform="translate(50, 60) scale(25)">
      <path d="M7 1H1v6h6V1Z" fill="#ccc"/>
      <path d="M3 4a.5.5 0 1 0 0-1 .5.5 0 0 0 0 1Zm0 0L1.5 6h5L5 3.5 3.5 5 3 4Z" fill="#999"/>
    </g>

    <rect x="60" y="270" width="280" height="20" rx="2" />
    <rect x="60" y="300" width="260" height="20" rx="2" />
    <rect x="60" y="330" width="270" height="20" rx="2" />
    <rect x="60" y="360" width="250" height="20" rx="2" />
    <rect x="60" y="390" width="280" height="20" rx="2" />
    <rect x="60" y="420" width="270" height="20" rx="2" />
  </g>

  <!-- Третья страница -->
  <g fill="#ccc" class="page page3">
    <rect x="20" y="130" width="250" height="20" rx="2" />
    <rect x="20" y="160" width="290" height="20" rx="2" />
    <rect x="20" y="190" width="260" height="20" rx="2" />
    <rect x="20" y="220" width="240" height="20" rx="2" />
    <rect x="20" y="250" width="300" height="20" rx="2" />
    <rect x="20" y="280" width="270" height="20" rx="2" />
    <rect x="20" y="310" width="290" height="20" rx="2" />
    <rect x="20" y="340" width="230" height="20" rx="2" />
    <rect x="20" y="370" width="280" height="20" rx="2" />
    <rect x="20" y="400" width="260" height="20" rx="2" />
  </g>

  <!-- Световая полоса сканера -->
  <rect id="scanner-bar" x="0" y="-40" width="100%" height="40" fill="url(#glow)" opacity="0.9">
    <animate 
      attributeName="y"
      values="-40; 580"
      keyTimes="0;1"
      dur="3s"
      repeatCount="indefinite"
      begin="0s;scanner-bar.end+4s"
      fill="freeze"
    />
    <animate 
      attributeName="opacity"
      values="0;0.8;0.9;0.8;0"
      keyTimes="0;0.1;0.5;0.9;1"
      dur="3s"
      repeatCount="indefinite"
      begin="0s;scanner-bar.end+4s"
      fill="freeze"
    />
  </rect>

  <!-- Градиенты и фильтры -->
  <defs>
    <linearGradient id="glow" x1="0" y1="0" x2="0" y2="1">
      <stop offset="0%" stop-color="#00f" stop-opacity="0" />
      <stop offset="50%" stop-color="#0ff" stop-opacity="0.6" />
      <stop offset="100%" stop-color="#00f" stop-opacity="0" />
    </linearGradient>

    <filter id="pageShadow" x="-20%" y="-20%" width="140%" height="140%">
      <feDropShadow dx="0" dy="4" stdDeviation="8" flood-color="#000" flood-opacity="0.2" />
    </filter>
  </defs>
</svg>
