<svg width="204" height="223" viewBox="0 0 204 223" fill="none" xmlns="http://www.w3.org/2000/svg">
<path d="M203.083 120.519C203.083 138.5 198.409 155.387 190.21 170.037C187.976 174.03 185.478 177.859 182.741 181.499C164.214 206.132 134.739 222.061 101.542 222.061C68.5457 222.061 39.2268 206.323 20.6805 181.944C17.9382 178.343 15.432 174.551 13.1866 170.592C4.7921 155.814 0 138.728 0 120.519C0 82.5872 20.7995 49.512 51.6169 32.078C66.3606 23.7379 83.3949 18.9778 101.542 18.9778C119.057 18.9778 135.536 23.4108 149.916 31.2197C181.583 48.4102 203.083 81.9539 203.083 120.519Z" fill="#C7DFEA"/>
<path d="M190.21 170.037C187.976 174.03 185.478 177.859 182.741 181.499C164.214 206.132 134.739 222.061 101.542 222.061C68.5457 222.061 39.2268 206.323 20.6805 181.944C17.9382 178.343 15.432 174.551 13.1866 170.592C14.134 170.11 15.1038 169.652 16.0961 169.22C19.0433 167.935 22.1428 166.899 25.3085 166.326C26.7316 166.067 29.9077 165.481 29.3354 163.385C29.0012 162.157 28.2946 160.812 27.8505 159.582C27.1592 157.667 26.4167 155.809 26.2014 153.765C25.8219 150.138 26.3204 146.398 27.6833 143.009C30.2615 136.606 36.2932 132.521 39.1004 126.227C40.3955 123.319 41.4376 120.26 43.2388 117.612C45.3247 114.548 48.5339 112.567 51.7838 110.915C55.5218 109.015 59.4299 107.453 63.4493 106.179H63.4508C64.1375 105.961 64.8289 105.752 65.5216 105.551C75.9461 102.525 87.0259 101.358 97.6945 101.248C111.155 101.112 124.616 103.198 137.555 106.935C138.076 107.084 138.597 107.236 139.117 107.393C140.837 107.908 142.549 108.453 144.249 109.029C147.67 110.177 151.035 111.674 153.819 114.016C156.603 116.358 158.669 119.386 160.895 122.231C163.106 125.057 165.641 127.423 168.368 129.741C170.978 131.963 173.637 134.253 175.415 137.228C177.25 140.303 178.118 143.928 177.951 147.5C177.814 150.402 176.746 153.095 175.612 155.73C175.133 156.842 174.663 157.818 173.939 158.792C173.266 159.702 172.416 160.621 172.317 161.804C172.202 163.188 173.266 164.423 174.327 165.151C176.683 166.771 179.784 167.004 182.517 167.501C185.226 167.993 187.788 168.859 190.21 170.037Z" fill="#628B9D"/>
<path d="M162.876 174.001C161.949 175.504 160.061 176.066 158.431 176.393C157.489 176.584 156.536 176.718 155.591 176.885C154.573 177.068 153.559 177.273 152.55 177.498C150.536 177.945 148.54 178.471 146.566 179.068C142.619 180.261 138.759 181.732 134.978 183.375C131.163 185.034 127.428 186.874 123.745 188.811C120.055 190.75 116.416 192.788 112.79 194.848C112.24 195.159 111.69 195.471 111.14 195.785C113.096 193.013 115.429 190.504 117.918 188.206C120.756 185.589 123.847 183.216 127.181 181.261C130.739 179.175 134.613 177.608 138.484 176.208C142.546 174.739 146.685 173.499 150.823 172.266C153.012 171.615 155.201 170.963 157.389 170.312C158.363 170.021 159.348 169.665 160.36 169.545C161.215 169.443 162.154 169.542 162.794 170.176C163.807 171.175 163.559 172.892 162.876 174.001Z" fill="#4F6F7D"/>
<path d="M91.9604 198.242C88.6835 196.831 85.3951 195.449 82.0962 194.099C77.8416 192.356 73.5687 190.66 69.278 189.014C64.9875 187.368 60.6801 185.769 56.3562 184.22C54.1849 183.443 52.0097 182.676 49.8306 181.923C47.7224 181.195 45.5985 180.509 43.4974 179.761C41.6022 179.083 39.6691 178.272 38.1471 176.875C36.8062 175.645 35.7477 173.876 35.649 171.973C35.6244 171.502 35.6597 171.026 35.7594 170.565C36.0735 169.623 36.9214 169.259 37.8279 169.21C38.1628 169.189 38.4991 169.199 38.8354 169.231C39.0539 169.251 39.2724 169.28 39.4907 169.32C40.3231 169.461 41.1451 169.715 41.9309 169.976C45.4959 171.159 48.8726 172.933 52.2243 174.642C56.3598 176.752 60.5508 178.733 64.623 180.973C65.0501 181.208 65.4764 181.446 65.9016 181.682C66.9955 182.297 68.0839 182.92 69.1673 183.553C72.4664 185.484 75.718 187.502 78.9376 189.572C83.3219 192.39 87.6466 195.306 91.9604 198.242Z" fill="#4F6F7D"/>
<path d="M156.75 131.67C156.748 131.971 156.732 132.269 156.703 132.565C156.502 134.611 155.677 136.54 154.578 138.275C153.324 140.253 151.74 142.002 150.121 143.684C148.165 145.718 146.183 147.725 144.214 149.745C141.737 152.283 140.895 155.484 139.11 158.412C139.1 158.428 139.09 158.444 139.08 158.459C138.393 159.579 137.469 160.707 136.489 161.712C136.502 161.642 134.37 160.139 134.35 160.228L134.237 159.786C134.066 159.959 133.862 160.029 133.634 160.035C132.398 160.056 130.464 158.067 129.322 159.163C128.045 160.064 126.577 160.529 124.929 160.713C119.501 161.314 112.105 158.839 103.029 158.635C86.8027 158.998 71.1579 161.882 68.9014 160.118C68.96 159.98 68.8786 159.828 68.7614 159.77C68.6761 159.726 68.5821 159.742 68.489 159.831C68.1969 160.1 67.6319 160.576 67.3257 160.862C66.3114 159.93 65.3049 158.991 64.3071 158.041C63.0123 156.811 61.7305 155.565 60.4634 154.306C56.9528 150.818 53.4027 147.272 50.5429 143.213C48.1011 139.748 46.0819 135.695 45.7388 131.413C45.7019 130.956 45.6844 130.492 45.6875 130.029C45.6896 129.702 45.7066 129.378 45.7422 129.056C45.8482 128.09 46.1161 127.158 46.6243 126.311C47.271 125.232 48.188 124.343 49.101 123.489C50.8541 121.851 52.7411 120.36 54.7297 119.02C58.4384 116.518 62.4813 114.537 66.6849 113.019C66.9664 112.917 67.2488 112.818 67.5319 112.718C77.4739 109.287 88.0677 108.463 98.5202 108.809C104.143 108.994 109.749 109.502 115.341 110.104C120.303 110.64 125.265 111.25 130.152 112.284C132.572 112.794 134.976 113.412 137.331 114.176C139.657 114.93 141.933 115.83 144.127 116.918C148.221 118.947 152.335 121.621 154.843 125.544C155.746 126.959 156.399 128.532 156.643 130.184C156.716 130.673 156.753 131.17 156.75 131.67Z" fill="#4F6F7D"/>
<path d="M136.489 161.712C136.481 161.72 133.09 164.578 131.571 165.834C126.024 170.413 119.823 174.101 113.993 178.293C111.533 180.065 109.816 181.564 108.309 184.181C108.285 184.223 108.261 184.265 108.238 184.307C108.145 184.471 108.052 184.636 107.961 184.804C107.933 184.854 107.905 184.906 107.878 184.956C107.707 185.27 107.539 185.584 107.375 185.9C107.318 186.013 107.261 186.123 107.204 186.233C107.138 186.363 107.072 186.494 107.006 186.625C106.809 187.015 106.616 187.408 106.427 187.803H106.426C106.172 188.329 105.924 188.857 105.678 189.389C105.48 189.813 105.285 190.237 105.09 190.66C104.993 190.872 104.895 191.084 104.798 191.299C104.438 192.087 104.076 192.872 103.706 193.654C103.233 194.654 102.748 195.648 102.235 196.627C101.985 197.101 101.731 197.572 101.466 198.038C101.32 198.297 101.173 198.553 101.02 198.81C100.966 198.899 100.913 198.998 100.852 199.084C100.818 199.134 100.791 199.171 100.768 199.197C100.682 199.294 100.524 199.26 100.484 199.137C100.206 198.286 98.7554 193.832 98.0527 191.676C97.2991 189.365 96.5752 187.005 95.3647 184.882C94.1465 182.742 92.3863 181.049 90.4611 179.546C88.5033 178.018 86.4852 176.571 84.4895 175.092C76.5252 169.194 67.321 160.867 67.3257 160.862C67.6319 160.576 68.1969 160.1 68.4889 159.831C68.5821 159.742 68.676 159.726 68.7613 159.77C68.8786 159.828 68.9599 159.98 68.9013 160.118C71.1579 161.882 86.8026 158.998 103.029 158.635C112.105 158.839 119.501 161.314 124.928 160.712C126.577 160.529 128.045 160.063 129.322 159.163C130.464 158.067 132.398 160.056 133.634 160.035C133.862 160.029 133.998 160.071 134.168 159.899C134.168 159.899 136.509 161.689 136.489 161.712Z" fill="white"/>
<path d="M134.807 160.388C134.891 160.474 130.997 163.335 130.722 163.531C130.639 163.591 130.552 163.651 130.466 163.714C124.983 167.579 114.67 173.46 102.836 173.193C102.418 173.203 102.002 173.203 101.583 173.198C101.164 173.203 100.746 173.203 100.327 173.193C88.4931 173.46 78.1799 167.579 72.7001 163.714C72.6111 163.651 72.5273 163.591 72.4436 163.531C70.6117 162.225 69.3582 161.173 68.8139 160.705C68.7328 160.634 68.2696 160.163 68.212 160.077C68.3874 159.956 69.5048 158.143 69.599 157.949C71.5381 153.992 71.1482 148.633 71.3759 144.318C71.546 141.086 71.6664 137.849 71.758 134.611C71.8469 131.521 71.9071 128.43 71.9595 125.34C71.9621 125.159 71.9647 124.981 71.9699 124.808C71.9909 123.469 72.0118 122.325 72.0275 121.435C72.0275 122.718 76.9552 126.768 78.1406 127.564C79.3941 128.407 80.6424 129.252 81.8933 130.079C90.2125 135.58 98.6311 140.206 109.088 136.705C114.908 134.758 120.001 131.134 124.923 127.467C125.57 126.986 126.211 126.35 126.849 125.677C128.192 124.259 129.513 122.663 130.848 121.932C131.329 122.684 131.238 123.819 131.212 124.814C131.204 124.994 131.201 125.172 131.204 125.34C131.311 131.667 131.455 137.998 131.787 144.318C131.939 147.175 132.149 150.025 132.395 152.878C132.502 154.123 132.609 155.432 132.905 156.675C133.229 158.056 133.782 159.354 134.807 160.388Z" fill="#ECF4FB"/>
<path d="M132.905 156.675C132.157 156.764 131.413 156.847 130.673 156.926C102.541 157.782 91.6048 150.583 78.2088 138.571C76.4162 136.964 74.2023 135.708 71.7581 134.611C71.847 131.521 71.9072 128.43 71.9596 125.34C71.9622 125.159 71.9648 124.981 71.97 124.809C75.2072 126.646 78.549 128.721 81.8934 130.079C83.9215 130.903 85.9496 131.461 87.9594 131.542C92.5155 131.725 111.137 128.731 126.849 125.677C128.336 125.389 129.793 125.099 131.212 124.814C131.204 124.994 131.201 125.172 131.204 125.34C131.311 131.667 131.455 137.998 131.788 144.318C131.939 147.175 132.149 150.025 132.395 152.878C132.502 154.123 132.609 155.432 132.905 156.675Z" fill="#C0D0D8"/>
<path d="M151.233 72.7424C150.852 74.8778 150.762 77.0708 150.494 79.2219C150.029 82.9562 150.227 87.0622 148.672 90.5139C147.916 92.1913 146.05 93.4814 144.751 94.7977C144.135 95.4206 143.421 96.0617 142.64 96.4726C142.143 96.7343 141.91 96.8233 141.342 96.661C141.305 96.6506 140.994 96.5014 140.773 96.3784C140.627 96.2972 140.443 96.3679 140.392 96.5275C139.714 98.6446 139.083 110.423 138.218 114.105C137.068 118.996 133.683 122.66 130.011 125.879C125.75 129.611 121.196 133.214 116.236 135.978C108.696 140.178 100.481 141.716 92.2893 138.532C86.7548 136.378 82.1511 133.858 77.6246 130.014C72.1788 125.392 66.1607 121.305 64.4686 114.108C63.6029 110.423 62.9723 98.6446 62.294 96.5275C62.2432 96.3679 62.0592 96.2972 61.9135 96.3784C61.6926 96.5014 61.3814 96.6506 61.3443 96.661C60.7759 96.8233 60.5435 96.7343 60.0455 96.4726C59.2649 96.0617 58.5505 95.4206 57.9347 94.7977C56.6357 93.4814 54.7698 92.1913 54.0135 90.5139C52.4591 87.0622 52.6574 82.9562 52.1921 79.2219C51.9239 77.0708 51.8339 74.8778 51.4529 72.7424C50.7212 68.6391 53.6364 62.7824 59.2672 68.5265C59.3928 68.6547 59.6019 68.6207 59.6899 68.4637C59.6904 68.4637 59.6912 68.4611 59.692 68.4611C65.4141 58.4487 62.9733 49.546 69.5745 39.9995C78.0366 27.7628 95.5217 41.0096 106.869 38.1336C114.732 36.1422 127.171 31.4108 133.111 39.9995C139.713 49.546 137.272 58.4487 142.994 68.4611C142.995 68.4611 142.996 68.4637 142.997 68.4637C143.084 68.6207 143.293 68.6547 143.419 68.5265C149.05 62.7824 151.965 68.6391 151.233 72.7424Z" fill="#ECF4FB"/>
<path d="M60.1261 67.9141C61.1864 70.8006 62.0383 73.755 62.3709 77.0288C62.7262 74.8725 63.5179 73.0092 63.728 71.4312C64.0248 69.199 64.1758 66.9511 64.3406 64.711C64.6217 60.8929 64.5319 56.7843 65.708 53.0709C67.2729 48.1302 71.999 37.8274 81.8557 36.744C86.5842 36.2232 89.5347 36.6367 93.8906 37.7593C98.1714 38.8637 102.753 39.0207 107.129 38.2696C111.537 37.5107 115.279 35.8726 120.015 36.1735C129.128 36.7492 136.15 45.775 137.461 51.493C138.761 57.1586 140.897 75.6811 140.898 75.8198C143.08 66.6344 147.064 59.1134 149.164 50.3441C151.22 41.7606 151.204 32.1565 147.803 23.8295C143.602 13.5476 132.106 9.3187 120.392 8.90262C120.361 8.90262 120.331 8.90257 120.301 8.89996C114.52 3.07993 103.086 0.319084 94.6121 0.0286026C70.6207 -0.795723 48.7077 17.8577 51.6876 39.4001C52.5624 45.7252 53.9378 52.0163 56.1978 58.0771C57.4775 61.5079 58.9338 64.6691 60.1261 67.9141Z" fill="#628B9D"/>
</svg>
