<svg width="204" height="216" viewBox="0 0 204 216" fill="none" xmlns="http://www.w3.org/2000/svg">
<path d="M203.547 114.126C203.547 131.429 199.221 147.72 191.588 161.977C190.763 163.518 189.903 165.033 189.002 166.527C186.194 171.175 183.028 175.579 179.537 179.704C178.15 181.339 176.716 182.93 175.232 184.474C156.754 203.703 130.779 215.668 102.006 215.668C73.2325 215.668 47.257 203.703 28.7789 184.474C27.2951 182.93 25.8584 181.339 24.4741 179.704C21.3312 175.99 18.4473 172.047 15.8566 167.904C14.658 165.986 13.5197 164.023 12.4467 162.021C4.80008 147.754 0.463867 131.448 0.463867 114.126C0.463867 74.0954 23.6288 39.4735 57.2876 22.9372C63.6362 19.8178 70.3565 17.3422 77.3646 15.5967C85.2546 13.6288 93.5058 12.5847 102.006 12.5847C110.887 12.5847 119.5 13.7257 127.709 15.8689C135.005 17.7714 141.982 20.4642 148.54 23.8531C181.212 40.727 203.547 74.8176 203.547 114.126Z" fill="#DAEAF1"/>
<path d="M189.002 166.525C186.197 171.175 183.028 175.579 179.537 179.701C178.15 181.337 176.716 182.93 175.232 184.472C156.754 203.701 130.778 215.668 102.005 215.668C73.2324 215.668 47.2569 203.701 28.7789 184.472C27.2951 182.93 25.8584 181.337 24.474 179.701C21.3311 175.99 18.4473 172.047 15.8591 167.904C19.8787 164.078 23.8276 160.548 25.3873 159.64C25.492 159.577 25.5967 159.517 25.7013 159.459C28.2398 158.022 31.1053 156.921 34.3372 156.227C34.9495 156.094 35.5619 155.971 36.1795 155.856C36.8651 155.727 37.556 155.604 38.2443 155.492C38.5347 155.442 38.8278 155.395 39.1183 155.348C39.4506 155.296 39.7804 155.243 40.1101 155.194C40.2148 155.175 40.3221 155.162 40.4294 155.144C41.3793 155 42.3266 154.864 43.2635 154.725C45.043 154.466 46.8853 154.322 48.7433 154.212C50.8892 154.084 53.0612 153.995 55.1966 153.82C57.2614 153.65 59.2947 153.393 61.2417 152.935C63.0134 152.511 64.7798 151.998 66.4886 151.352C70.6574 149.782 74.499 147.437 77.3227 143.792C78.1575 142.714 78.8405 141.573 79.3979 140.382C80.4551 138.134 81.0806 135.713 81.4731 133.235C81.6484 132.131 81.7793 131.013 81.8814 129.893C82.0148 128.423 82.1038 126.949 82.1849 125.492C82.3262 122.956 82.4597 120.342 82.4702 117.727C82.4754 116.764 82.4597 115.804 82.423 114.846V114.828C82.4047 114.357 82.3812 113.891 82.3498 113.425C82.2765 112.253 81.9363 108.092 81.9023 107.888L102.003 109.324L122.101 107.888C122.069 108.092 121.732 112.253 121.656 113.425C121.617 114.024 121.59 114.624 121.572 115.228C121.567 115.372 121.562 115.519 121.559 115.662C121.541 116.283 121.536 116.905 121.536 117.526V117.727C121.543 120.342 121.679 122.956 121.821 125.492C121.967 128.093 122.132 130.754 122.551 133.342C122.943 135.779 123.561 138.152 124.597 140.361C125.16 141.559 125.843 142.706 126.683 143.792C128.256 145.822 130.148 147.45 132.233 148.766C133.89 149.811 135.669 150.656 137.517 151.352C139.226 151.998 140.992 152.511 142.767 152.935C144.606 153.37 146.53 153.623 148.482 153.794C150.489 153.966 152.525 154.055 154.548 154.168C156.652 154.288 158.735 154.432 160.742 154.725C161.658 154.861 162.579 154.992 163.506 155.133C163.529 155.136 163.553 155.141 163.576 155.144C164.011 155.212 164.448 155.28 164.885 155.348C165.034 155.372 165.188 155.395 165.34 155.421C166.057 155.536 166.774 155.662 167.491 155.793C168.219 155.926 168.946 156.07 169.668 156.227C172.866 156.916 175.706 157.999 178.226 159.412C178.252 159.428 178.278 159.443 178.302 159.459C179.935 160.38 184.428 163.33 189.002 166.525Z" fill="#ECF4FB"/>
<path d="M102.003 107.048C102.003 107.045 102.003 107.045 102.006 107.042C102 107.042 102 107.045 102.003 107.048Z" fill="#B32935"/>
<path d="M191.588 161.977C190.763 163.518 189.903 165.033 189.002 166.527C186.194 171.175 183.028 175.579 179.537 179.704C178.15 181.339 176.716 182.93 175.232 184.474C156.754 203.703 130.778 215.668 102.005 215.668C73.2324 215.668 47.2569 203.703 28.7789 184.474C27.2951 182.93 25.8584 181.339 24.474 179.704C21.3311 175.99 18.4473 172.047 15.8565 167.904C14.658 165.986 13.5196 164.023 12.4467 162.021C21.161 155.429 30.9457 153.438 39.1183 155.348C39.1523 155.356 39.1863 155.364 39.2204 155.372C51.3472 158.232 62.1838 164.664 73.7794 169.008C86.0082 173.591 99.5455 173.978 112.478 172.879C131.459 171.264 146.577 159.666 164.785 155.372C164.817 155.364 164.851 155.356 164.885 155.348C176.389 153.325 184.985 156.939 191.588 161.977Z" fill="#82A2B0"/>
<path d="M132.233 148.767C112.97 148.311 100.948 145.553 90.3968 133.502C89.316 132.27 85.8983 131.042 81.8813 129.893C82.0148 128.423 82.1038 126.949 82.1849 125.492C82.3262 122.956 82.4597 120.342 82.4702 117.727C82.4754 116.764 82.4597 115.804 82.423 114.846C88.1645 117.209 94.2986 118.997 100.438 119.311C106.279 119.612 113.949 118.083 121.572 115.228C121.567 115.372 121.562 115.519 121.559 115.663C121.541 116.283 121.535 116.906 121.535 117.526V117.727C121.543 120.342 121.679 122.956 121.821 125.492C121.967 128.093 122.132 130.754 122.551 133.342C122.943 135.779 123.561 138.152 124.597 140.361C125.16 141.56 125.843 142.706 126.683 143.792C128.256 145.823 130.148 147.45 132.233 148.767Z" fill="#C0D0D8"/>
<path d="M146.828 63.0467C146.532 65.2763 145.76 67.6708 145.182 69.8559C144.831 71.1827 144.536 72.5278 144.245 73.8729C143.688 76.4479 143.944 79.6066 142.706 81.8728C141.683 83.7466 139.297 84.9111 137.418 85.5365C137.03 87.4861 136.606 89.4069 136.156 91.2702C135.499 93.9918 134.785 96.5877 134.047 98.9691C132.514 103.907 129.075 107.872 125.084 111.394C124.467 112.242 123.81 113.038 123.14 113.823C122.868 114.142 122.593 114.459 122.318 114.778C121.818 115.356 121.318 115.937 120.826 116.539C120.669 116.73 120.515 116.921 120.361 117.117C119.654 118.012 118.997 118.947 118.259 119.815C118.037 120.077 117.809 120.331 117.576 120.574C113.96 124.385 109.291 125.96 104.07 126.292C103.502 126.329 102.927 126.358 102.348 126.374C101.992 126.363 101.637 126.35 101.281 126.332C101.061 126.321 100.844 126.308 100.626 126.292C95.3873 125.957 90.703 124.372 87.0786 120.533C86.8614 120.302 86.6468 120.061 86.4349 119.815C85.6995 118.947 85.0427 118.012 84.3361 117.117C82.9831 115.406 81.5543 113.899 80.2485 112.234C80.06 111.991 79.8716 111.748 79.6884 111.496C75.6479 107.95 72.1569 103.954 70.6077 98.9691C69.3647 94.96 68.1923 90.3386 67.2371 85.5365C65.3582 84.9111 63.0998 83.7466 62.0766 81.8728C60.8388 79.6066 60.967 76.4479 60.4096 73.8729C60.1191 72.5278 59.8234 71.1827 59.4727 69.8559C58.8944 67.6708 58.1224 65.2763 57.8267 63.0467C56.9579 56.4992 63.618 58.509 64.6752 60.1655C64.7301 60.2493 64.861 60.422 64.9997 60.6104C64.0419 59.2993 63.7933 56.6248 63.4949 55.0547C63.1207 53.0789 62.9035 51.0769 62.8276 49.0671C62.6758 44.9978 62.1603 39.7248 63.1809 35.7758C64.0288 32.4942 65.0363 29.1629 66.9362 26.279C68.8963 23.3088 73.2299 18.3812 76.1661 16.3871C81.5412 12.7286 87.8741 9.93115 94.2961 8.91578C96.9522 8.49446 99.6372 8.25108 102.327 8.19613C105.018 8.25108 107.705 8.49446 110.361 8.91578C116.781 9.93115 123.114 12.7286 128.489 16.3871C131.425 18.3812 135.759 23.3088 137.719 26.279C139.618 29.1629 140.626 32.4942 141.474 35.7758C142.494 39.7248 141.979 44.9978 141.827 49.0671C141.751 51.0769 141.534 53.0789 141.16 55.0547C140.861 56.6248 140.613 59.2993 139.655 60.6104C139.794 60.422 139.925 60.2493 139.98 60.1655C141.039 58.509 147.697 56.4992 146.828 63.0467Z" fill="#ECF4FB"/>
<path d="M149.128 25.3187C144.664 13.6944 136.604 4.9408 124.919 3.03306C119.439 2.13808 110.565 1.74031 105.033 1.34515C97.6483 0.81915 88.1908 0.355986 80.955 1.97848C72.6437 3.84434 65.9182 10.1825 60.6215 17.0885C56.4083 22.5788 55.7881 27.3311 55.618 33.9415C55.6075 34.3183 55.5735 34.6925 55.5238 35.0641C54.7178 40.8161 50.5909 44.8985 52.2029 50.6558C52.6295 52.1814 53.5637 53.4925 54.4796 54.7669C58.6772 60.6079 62.8773 66.4488 67.0775 72.2898C69.9247 70.2695 72.1255 67.2836 73.256 63.9C73.905 61.9556 74.2688 59.7809 75.6741 58.3285C77.3018 56.6459 79.8114 56.4444 82.0646 55.9838C95.4396 53.2596 104.423 38.9477 117.765 36.0403C118.803 35.8152 119.887 35.6634 120.921 35.912C122.041 36.1842 123.006 36.9038 123.899 37.6575C129.392 42.2947 133.314 48.8972 134.84 56.0754C136.02 61.6285 136.033 67.9771 139.896 72.0098C141.194 68.6471 143.656 65.9464 145.682 62.9971C153.31 51.8935 153.886 37.7098 149.128 25.3187Z" fill="#82A2B0"/>
</svg>
