<svg width="204" height="217" viewBox="0 0 204 217" fill="none" xmlns="http://www.w3.org/2000/svg">
<path d="M203.083 114.827C203.083 138.228 195.167 159.78 181.865 176.953C179.877 179.52 177.769 181.988 175.549 184.351C157.027 204.059 130.721 216.369 101.541 216.369C72.3607 216.369 46.0567 204.059 27.5344 184.351C25.1444 181.807 22.8839 179.14 20.7618 176.361C7.73639 159.288 0 137.961 0 114.827C0 79.0695 18.4817 47.6324 46.4121 29.539C62.2884 19.2571 81.2174 13.2853 101.541 13.2853C122.504 13.2853 141.985 19.6366 158.16 30.523C185.258 48.7577 203.083 79.7106 203.083 114.827Z" fill="#DAEAF1"/>
<path d="M132.397 157.499C132.311 157.553 132.216 157.619 132.107 157.695C132.039 157.742 131.968 157.792 131.889 157.847C131.701 157.98 131.478 158.14 131.225 158.312C131.18 158.344 131.136 158.373 131.091 158.404C130.979 158.48 130.858 158.561 130.733 158.645C130.667 158.687 130.604 158.728 130.536 158.77C130.471 158.815 130.403 158.857 130.332 158.901C130.246 158.959 130.157 159.014 130.063 159.071C130.044 159.082 130.026 159.092 130.008 159.105C129.702 159.294 129.367 159.487 129 159.689C128.917 159.736 128.833 159.783 128.746 159.828C128.5 159.961 128.241 160.095 127.972 160.228C127.831 160.301 127.684 160.372 127.532 160.445C127.524 160.448 127.516 160.453 127.509 160.456C127.485 160.466 127.464 160.477 127.441 160.487C127.362 160.526 127.281 160.563 127.2 160.602C126.915 160.733 126.616 160.864 126.307 160.995C126.245 161.024 126.182 161.05 126.119 161.076C126.056 161.102 125.993 161.131 125.928 161.154C125.672 161.262 125.405 161.366 125.13 161.471C125.057 161.5 124.981 161.529 124.907 161.555C124.777 161.604 124.646 161.654 124.51 161.701C124.217 161.809 123.913 161.913 123.599 162.018C123.484 162.057 123.369 162.096 123.248 162.133C123.052 162.196 122.851 162.259 122.646 162.322C122.484 162.371 122.317 162.421 122.147 162.471C121.558 162.643 120.935 162.811 120.281 162.971C120.189 162.994 120.095 163.018 120.001 163.038C119.718 163.107 119.425 163.175 119.129 163.24C118.936 163.285 118.742 163.326 118.543 163.366C118.525 163.371 118.504 163.376 118.486 163.379C118.297 163.418 118.106 163.457 117.912 163.494C117.734 163.528 117.554 163.565 117.371 163.596C117.02 163.664 116.662 163.727 116.298 163.787C116.188 163.805 116.075 163.824 115.963 163.842C115.801 163.868 115.638 163.894 115.473 163.918C115.295 163.947 115.112 163.973 114.929 163.999C114.694 164.033 114.458 164.067 114.217 164.098C113.757 164.161 113.28 164.216 112.799 164.271C112.781 164.274 112.762 164.276 112.744 164.276C112.618 164.292 112.493 164.305 112.365 164.318C112.244 164.331 112.124 164.344 112.003 164.355C111.996 164.355 111.988 164.357 111.98 164.357C111.812 164.376 111.642 164.391 111.47 164.407C111.381 164.415 111.292 164.423 111.2 164.431C111.012 164.449 110.821 164.465 110.627 164.48C110.525 164.488 110.423 164.499 110.318 164.504C110.075 164.525 109.829 164.541 109.58 164.559C109.52 164.564 109.46 164.569 109.397 164.572C109.19 164.588 108.981 164.601 108.769 164.611C108.497 164.627 108.222 164.643 107.942 164.656C107.929 164.656 107.916 164.656 107.903 164.658C107.863 164.661 107.824 164.664 107.785 164.664C107.672 164.669 107.56 164.674 107.445 164.677C107.337 164.682 107.233 164.687 107.125 164.69C107.084 164.692 107.044 164.692 107.002 164.695C106.861 164.7 106.72 164.703 106.576 164.711C106.531 164.713 106.487 164.713 106.442 164.716C106.275 164.721 106.105 164.726 105.935 164.732C105.762 164.734 105.589 164.74 105.417 164.742C105.343 164.745 105.267 164.745 105.189 164.747C105.037 164.75 104.88 164.753 104.726 164.755C103.433 164.774 102.088 164.768 100.68 164.734C99.2721 164.768 97.9244 164.774 96.6342 164.755C96.4772 164.753 96.3228 164.75 96.1684 164.747C96.0925 164.745 96.0166 164.745 95.9408 164.742C95.768 164.74 95.5979 164.734 95.4252 164.732C95.2551 164.726 95.085 164.721 94.9149 164.716C94.8835 164.716 94.8547 164.713 94.8259 164.713C94.7998 164.713 94.7762 164.711 94.7527 164.708C94.7082 164.705 94.6637 164.706 94.6192 164.706C94.2267 164.69 93.8394 164.677 93.4547 164.658C92.8842 164.63 92.3268 164.596 91.7799 164.559C91.5025 164.541 91.2303 164.522 90.9607 164.499C90.5551 164.467 90.1574 164.433 89.7674 164.394C89.5057 164.373 89.2467 164.344 88.9928 164.318C88.8646 164.305 88.739 164.292 88.6134 164.276C88.4878 164.263 88.3648 164.25 88.2392 164.235C87.9905 164.206 87.7472 164.177 87.5038 164.145C87.3808 164.132 87.2604 164.117 87.14 164.098C87.0197 164.083 86.9019 164.067 86.7815 164.049C86.4256 164.002 86.0776 163.949 85.7348 163.897C85.5071 163.86 85.2794 163.824 85.0596 163.787C84.8372 163.75 84.6173 163.711 84.4001 163.674C84.2929 163.653 84.1855 163.635 84.0783 163.614C83.8637 163.575 83.6517 163.536 83.445 163.494C83.3926 163.483 83.3403 163.473 83.2906 163.463C83.1362 163.431 82.9818 163.4 82.83 163.368C82.6259 163.326 82.4244 163.285 82.2281 163.24C82.1287 163.219 82.0318 163.196 81.935 163.175C81.8356 163.154 81.7387 163.13 81.6445 163.107C81.3567 163.041 81.074 162.971 80.7966 162.9C80.7051 162.879 80.6135 162.855 80.5219 162.832C80.4198 162.806 80.3177 162.779 80.2183 162.751C79.9697 162.685 79.7237 162.617 79.4882 162.549C79.2213 162.476 78.9622 162.397 78.711 162.322C78.6298 162.298 78.5487 162.272 78.4676 162.246C78.3865 162.219 78.308 162.196 78.2294 162.17C78.0698 162.12 77.9128 162.068 77.7584 162.018C77.6825 161.992 77.604 161.968 77.5281 161.939C77.3763 161.89 77.2272 161.837 77.0806 161.785C77.0126 161.761 76.9445 161.738 76.8791 161.712C76.8006 161.686 76.7247 161.657 76.6488 161.628C76.5782 161.602 76.5075 161.576 76.4369 161.55C76.2982 161.497 76.1595 161.445 76.0234 161.392C75.7931 161.304 75.568 161.215 75.3508 161.123C75.254 161.084 75.1598 161.042 75.0656 161.003C74.8301 160.903 74.605 160.804 74.3878 160.707C74.2517 160.644 74.1209 160.584 73.9927 160.524C73.7676 160.416 73.5556 160.314 73.3489 160.21C73.2442 160.157 73.1448 160.108 73.0453 160.055C72.9956 160.032 72.9459 160.006 72.8962 159.979C72.8491 159.956 72.7993 159.93 72.7522 159.904C72.7051 159.877 72.658 159.854 72.6109 159.828C71.9017 159.445 71.3025 159.084 70.8 158.757C70.7424 158.721 70.6823 158.681 70.6273 158.645C70.3421 158.456 70.0908 158.284 69.871 158.132C69.8265 158.1 69.782 158.069 69.7402 158.04C69.6433 157.97 69.5517 157.907 69.468 157.847C69.3921 157.792 69.3188 157.742 69.2534 157.695C69.1435 157.619 69.0467 157.551 68.9603 157.499C70.8367 150.883 71.7604 142.161 72.2079 135.035C72.4513 131.188 72.556 127.807 72.5978 125.475C72.6345 123.534 72.624 122.319 72.6162 122.165C73.8487 123.384 81.3279 127.066 82.9844 128.325C84.408 129.406 85.8761 130.4 87.3834 131.29C89.5895 132.593 91.8793 133.674 94.2319 134.485C96.1658 135.15 98.2724 135.846 100.285 135.909H100.424C100.507 135.904 100.594 135.901 100.68 135.896C100.764 135.901 100.85 135.904 100.936 135.909H101.073C103.085 135.846 105.192 135.15 107.125 134.485C111.087 133.122 114.866 130.989 118.373 128.325C118.917 127.912 120.09 127.236 121.461 126.475C124.266 124.915 127.914 122.984 128.741 122.165C128.733 122.311 128.725 123.384 128.754 125.112C128.851 131.366 129.419 146.199 132.141 156.554C132.224 156.873 132.308 157.187 132.397 157.499Z" fill="#ECF4FB"/>
<path d="M181.865 176.953C179.877 179.52 177.769 181.988 175.549 184.351C157.027 204.059 130.721 216.369 101.541 216.369C72.3607 216.369 46.0567 204.059 27.5344 184.351C25.1444 181.807 22.8839 179.14 20.7618 176.361C31.5072 171.379 67.2974 158.053 68.5036 157.341C68.5156 157.334 68.5324 157.328 68.5489 157.326C68.5489 157.326 68.5504 157.326 68.5517 157.326C68.6391 157.315 68.7718 157.378 68.96 157.496C69.0458 157.551 69.1421 157.616 69.252 157.695C69.3198 157.742 69.3923 157.792 69.469 157.846C69.7733 158.061 70.1543 158.333 70.6272 158.645C70.683 158.681 70.7416 158.721 70.8002 158.757C71.3018 159.082 71.9011 159.445 72.6106 159.827C72.6572 159.851 72.704 159.877 72.7522 159.903C72.8003 159.93 72.8485 159.956 72.8966 159.979C72.9448 160.005 72.9945 160.029 73.0442 160.055C73.2431 160.157 73.4493 160.262 73.6631 160.364C73.7701 160.419 73.88 160.469 73.9915 160.524C74.6677 160.84 75.4222 161.165 76.2596 161.484C76.3876 161.531 76.5171 161.581 76.6482 161.628C76.7249 161.657 76.8003 161.685 76.8785 161.712C76.9447 161.735 77.0125 161.761 77.0803 161.785C77.2279 161.837 77.377 161.89 77.5291 161.939C77.6044 161.965 77.6811 161.992 77.7581 162.018C77.9883 162.094 78.2249 162.17 78.4675 162.246C78.5486 162.272 78.6284 162.298 78.7114 162.321C78.9629 162.397 79.222 162.476 79.4868 162.549C79.7249 162.617 79.9688 162.685 80.2174 162.751C80.3182 162.779 80.4205 162.803 80.5231 162.832C80.6134 162.855 80.7052 162.879 80.7971 162.9C81.0726 162.97 81.3558 163.041 81.6434 163.107C81.74 163.13 81.8363 163.151 81.9341 163.175C82.0307 163.196 82.1286 163.219 82.2277 163.24C82.4251 163.282 82.6255 163.326 82.8289 163.368C83.0319 163.41 83.2368 163.452 83.4446 163.494C83.6527 163.536 83.8649 163.575 84.0787 163.614C84.1857 163.635 84.2925 163.653 84.4011 163.672C84.5079 163.693 84.6178 163.711 84.7277 163.729C84.8363 163.75 84.9478 163.769 85.059 163.787C85.2804 163.824 85.5065 163.86 85.7352 163.897C86.0772 163.949 86.4266 163.999 86.782 164.049C86.901 164.067 87.0198 164.083 87.1389 164.098C87.3799 164.13 87.6254 164.161 87.8724 164.19C88.1163 164.221 88.3634 164.25 88.6133 164.276C88.7384 164.292 88.8648 164.305 88.9927 164.318C89.2474 164.344 89.5049 164.373 89.7668 164.394C90.157 164.433 90.5561 164.467 90.9612 164.499C91.2307 164.522 91.5034 164.541 91.7805 164.559C92.3256 164.596 92.8828 164.63 93.4535 164.658C93.5786 164.664 93.705 164.669 93.833 164.674C93.8482 164.674 93.8634 164.677 93.8783 164.677C93.9356 164.679 93.9926 164.679 94.0499 164.685C94.1101 164.685 94.1703 164.687 94.2323 164.69C94.2729 164.692 94.3135 164.695 94.3543 164.695C94.3737 164.695 94.3917 164.698 94.4113 164.698C94.5785 164.705 94.7458 164.708 94.9159 164.716C95.0847 164.721 95.2548 164.726 95.4249 164.732C95.5965 164.734 95.7682 164.739 95.9414 164.742C96.0168 164.745 96.0922 164.745 96.1689 164.747C96.3225 164.75 96.4777 164.753 96.6341 164.755C97.9248 164.773 99.2712 164.768 100.679 164.734C102.088 164.768 103.434 164.773 104.725 164.755C104.881 164.753 105.036 164.75 105.19 164.747C105.267 164.745 105.342 164.745 105.417 164.742C105.591 164.739 105.762 164.734 105.934 164.732C106.104 164.726 106.274 164.721 106.443 164.716C106.613 164.708 106.78 164.705 106.947 164.698C106.965 164.698 106.985 164.695 107.003 164.695C107.044 164.695 107.084 164.692 107.125 164.69C107.196 164.687 107.268 164.684 107.339 164.682C107.375 164.679 107.41 164.679 107.444 164.677C107.612 164.671 107.779 164.664 107.943 164.656C108.602 164.624 109.244 164.585 109.871 164.538C110.125 164.522 110.377 164.501 110.627 164.48C111.087 164.444 111.539 164.402 111.981 164.357C112.11 164.344 112.238 164.334 112.364 164.318C112.492 164.305 112.617 164.289 112.744 164.276C112.762 164.276 112.78 164.274 112.798 164.271C113.282 164.216 113.756 164.158 114.218 164.098C114.458 164.067 114.694 164.033 114.929 163.999C115.113 163.973 115.295 163.947 115.474 163.918C115.638 163.894 115.801 163.868 115.962 163.842C116.075 163.824 116.187 163.805 116.298 163.787C116.662 163.727 117.019 163.661 117.37 163.596C117.553 163.562 117.733 163.528 117.913 163.494C118.105 163.457 118.296 163.418 118.485 163.379C118.505 163.376 118.524 163.371 118.542 163.366C118.741 163.326 118.937 163.282 119.129 163.24C119.426 163.175 119.717 163.106 120 163.038C120.095 163.017 120.188 162.994 120.281 162.97C120.935 162.811 121.557 162.643 122.148 162.471C122.316 162.421 122.483 162.371 122.646 162.321C122.851 162.259 123.051 162.196 123.248 162.133C123.367 162.094 123.485 162.057 123.599 162.018C123.912 161.913 124.217 161.809 124.51 161.701C124.644 161.654 124.775 161.604 124.907 161.555C124.982 161.528 125.056 161.5 125.129 161.471C125.405 161.366 125.671 161.262 125.928 161.154C125.992 161.131 126.056 161.102 126.119 161.076C126.182 161.05 126.245 161.023 126.307 160.995C126.617 160.864 126.914 160.733 127.198 160.599C127.28 160.563 127.361 160.526 127.439 160.487C127.464 160.476 127.486 160.466 127.509 160.456C127.571 160.427 127.632 160.395 127.694 160.364C128.069 160.183 128.42 160.005 128.747 159.827C128.832 159.78 128.917 159.736 129 159.689C129.367 159.487 129.702 159.291 130.007 159.105C130.045 159.082 130.083 159.058 130.119 159.035C130.265 158.946 130.405 158.857 130.537 158.77C130.604 158.728 130.668 158.687 130.732 158.645C130.858 158.561 130.979 158.48 131.092 158.404C131.137 158.373 131.18 158.344 131.224 158.312C131.479 158.14 131.7 157.98 131.89 157.846C131.966 157.792 132.039 157.742 132.107 157.695C132.217 157.616 132.313 157.551 132.399 157.496C132.587 157.378 132.72 157.315 132.807 157.326C132.808 157.326 132.808 157.326 132.808 157.326C132.826 157.328 132.84 157.334 132.854 157.341C134.06 158.053 171.005 171.834 181.865 176.953Z" fill="#82A2B0"/>
<path d="M100.683 111.305C100.683 111.305 100.683 111.305 100.684 111.302C100.673 111.293 100.672 111.293 100.683 111.305Z" fill="#B63843"/>
<path d="M132.141 156.554C131.774 156.593 131.405 156.632 131.039 156.672C102.245 157.527 91.0523 150.328 77.3423 138.316C75.8742 137.032 74.1287 135.969 72.2079 135.035C72.4513 131.188 72.5559 127.807 72.5978 125.475C75.3927 127.053 78.253 128.689 81.1133 129.825C83.1885 130.649 85.2637 131.206 87.3206 131.287C87.3415 131.287 87.3625 131.29 87.3834 131.29C91.5993 131.426 106.906 129.113 121.461 126.475C123.371 126.127 125.269 125.776 127.127 125.423C127.673 125.318 128.215 125.216 128.754 125.112C128.851 131.366 129.419 146.199 132.141 156.554Z" fill="#C0D0D8"/>
<path d="M150.629 73.0846C150.247 75.2645 150.155 77.4994 149.886 79.6949C149.42 83.5052 149.619 87.6948 148.059 91.2172C147.303 92.9286 145.432 94.2475 144.129 95.5874C143.511 96.2233 142.794 96.8802 142.011 97.2989C141.512 97.5632 141.279 97.6575 140.708 97.49C140.672 97.4795 140.358 97.3277 140.138 97.2021C139.991 97.1184 139.805 97.1916 139.756 97.3538C139.062 99.5547 138.5 102.774 137.605 106.518C136.587 110.787 135.139 115.735 132.585 120.629C132.557 120.681 132.528 120.736 132.496 120.791C132.457 120.862 132.413 120.932 132.368 121.008C132.279 121.157 132.174 121.317 132.059 121.484C131.999 121.571 131.939 121.66 131.874 121.751C131.871 121.757 131.866 121.762 131.863 121.767C131.808 121.843 131.751 121.922 131.69 122.003C131.567 122.17 131.434 122.345 131.293 122.529C131.253 122.578 131.217 122.625 131.177 122.675C131.17 122.686 131.162 122.696 131.154 122.707C131.099 122.775 131.044 122.845 130.986 122.916C130.911 123.013 130.832 123.11 130.748 123.209V123.212C130.602 123.395 130.445 123.581 130.282 123.772C130.235 123.827 130.188 123.882 130.144 123.937C130.047 124.049 129.953 124.162 129.853 124.274C129.754 124.387 129.654 124.504 129.555 124.62C129.503 124.677 129.45 124.735 129.398 124.795C129.348 124.852 129.296 124.913 129.244 124.97C129.191 125.03 129.136 125.091 129.084 125.151C128.977 125.269 128.869 125.389 128.759 125.512C128.587 125.706 128.406 125.902 128.223 126.101C128.095 126.237 127.966 126.376 127.836 126.517C127.692 126.671 127.545 126.826 127.399 126.983C126.956 127.451 126.496 127.927 126.027 128.409C125.91 128.529 125.789 128.65 125.671 128.77C125.653 128.788 125.632 128.809 125.614 128.828C125.161 129.286 124.703 129.743 124.237 130.199C123.486 130.937 122.722 131.659 121.963 132.366C121.906 132.418 121.851 132.473 121.793 132.525C121.704 132.609 121.613 132.693 121.524 132.776C121.435 132.86 121.343 132.941 121.254 133.022C121.186 133.083 121.118 133.145 121.05 133.208C120.801 133.431 120.558 133.651 120.315 133.868C119.951 134.192 119.59 134.506 119.234 134.81C119.027 134.988 118.823 135.163 118.619 135.331C118.59 135.354 118.561 135.38 118.532 135.404C118.47 135.454 118.412 135.503 118.352 135.553C118.182 135.694 118.014 135.83 117.852 135.964C117.74 136.053 117.627 136.142 117.52 136.231H117.517C117.407 136.32 117.3 136.404 117.19 136.487C117.138 136.527 117.085 136.571 117.03 136.61C116.871 136.736 116.714 136.854 116.559 136.971C116.507 137.011 116.457 137.047 116.408 137.084C116.256 137.196 116.107 137.306 115.96 137.408C115.23 137.932 114.576 138.34 114.037 138.604C114 138.623 113.963 138.638 113.929 138.657C113.838 138.699 113.749 138.738 113.662 138.772C113.618 138.79 113.576 138.806 113.534 138.822C106.989 141.172 97.0476 141.062 90.33 139.567C90.2541 139.549 90.1756 139.531 90.0944 139.507C90.0186 139.486 89.9427 139.463 89.8642 139.437C89.8485 139.431 89.8301 139.426 89.8144 139.421C89.7804 139.41 89.749 139.397 89.715 139.387C89.7019 139.382 89.6862 139.376 89.6705 139.371C89.6129 139.35 89.5527 139.327 89.4926 139.303C89.4873 139.3 89.4847 139.3 89.4795 139.298C89.2439 139.206 88.9954 139.096 88.731 138.971C88.6813 138.947 88.6316 138.921 88.5819 138.895C88.4981 138.853 88.4144 138.811 88.3306 138.767C87.7366 138.46 87.0928 138.078 86.4098 137.636C86.3523 137.599 86.2921 137.56 86.2293 137.518C85.9571 137.34 85.6797 137.155 85.3971 136.958C85.2558 136.862 85.1118 136.762 84.9679 136.66C84.8266 136.56 84.68 136.456 84.5361 136.351C84.4079 136.257 84.277 136.163 84.1462 136.066C84.0363 135.985 83.9264 135.904 83.8165 135.823C83.7066 135.741 83.5966 135.658 83.4841 135.574C83.3088 135.443 83.1308 135.307 82.9529 135.171C82.4583 134.789 81.9585 134.394 81.456 133.988C81.3827 133.931 81.3095 133.87 81.2388 133.813C81.053 133.661 80.8646 133.509 80.6788 133.355C80.5061 133.211 80.3334 133.067 80.158 132.923C79.1845 132.107 78.2163 131.264 77.282 130.426C77.1302 130.29 76.9811 130.154 76.8345 130.021C76.7508 129.948 76.6697 129.872 76.5885 129.798C76.2902 129.529 75.9997 129.259 75.7119 128.99C75.6177 128.901 75.5208 128.812 75.4266 128.723C75.4109 128.71 75.3978 128.694 75.3821 128.681C75.1911 128.5 75.0027 128.323 74.8195 128.147C74.7201 128.053 74.6232 127.959 74.529 127.867C74.3982 127.744 74.27 127.619 74.1417 127.493C73.8565 127.216 73.5817 126.946 73.3174 126.679C73.1133 126.475 72.917 126.276 72.7207 126.08C72.6762 126.033 72.6344 125.988 72.5899 125.944V125.941C72.5585 125.91 72.5271 125.878 72.4957 125.844C72.4145 125.761 72.336 125.679 72.2602 125.598C72.2104 125.549 72.1633 125.499 72.1162 125.449C72.0246 125.352 71.9357 125.258 71.8467 125.164C71.7629 125.072 71.6792 124.983 71.5955 124.894C71.5902 124.889 71.585 124.884 71.5798 124.876C71.496 124.787 71.4149 124.698 71.3364 124.609C71.2553 124.52 71.1768 124.434 71.1009 124.347C71.059 124.3 71.0171 124.253 70.9779 124.209C70.9255 124.151 70.8784 124.094 70.8287 124.036C70.7633 123.963 70.7005 123.889 70.6403 123.816C70.5827 123.748 70.5251 123.68 70.4702 123.615C70.253 123.35 70.0646 123.11 69.9075 122.892C69.8814 122.856 69.8552 122.822 69.8317 122.788C69.8081 122.754 69.7845 122.72 69.761 122.686V122.683C69.7322 122.641 69.706 122.602 69.6825 122.565C69.6589 122.529 69.638 122.495 69.6171 122.463C69.604 122.44 69.5909 122.419 69.5778 122.398C66.4035 116.939 64.7234 111.302 63.5825 106.518C63.237 105.074 62.9413 103.708 62.6691 102.449C62.2347 100.442 61.8579 98.7068 61.4313 97.3538C61.3816 97.1916 61.1958 97.1184 61.0493 97.2021C60.8295 97.3277 60.5154 97.4795 60.4788 97.49C59.9083 97.6575 59.6754 97.5632 59.1756 97.2989C58.3931 96.8802 57.6787 96.2233 57.0611 95.5874C55.7579 94.2475 53.8868 92.9286 53.1279 91.2172C51.5682 87.6948 51.7671 83.5052 51.3013 79.6949C51.0317 77.4994 50.9427 75.2645 50.5607 73.0846C49.8253 68.8975 52.7484 62.9205 58.3957 68.7797C58.5213 68.9106 58.7333 68.8765 58.8197 68.7195C58.8197 68.7169 58.8223 68.7169 58.8223 68.7143C60.484 53.6723 62.1117 49.4145 68.7326 39.6717C75.9343 29.0758 89.6522 28.9895 100.594 29.9028C111.537 28.9895 125.253 29.0758 132.454 39.6717C139.075 49.4145 136.626 58.4979 142.365 68.7143C142.365 68.7169 142.367 68.7169 142.367 68.7195C142.456 68.8765 142.666 68.9106 142.791 68.7797C148.439 62.9205 151.362 68.8975 150.629 73.0846Z" fill="#ECF4FB"/>
<path d="M140.293 87.3782C140.489 84.1332 141.149 80.6318 140.009 77.4837C138.854 74.2936 137.966 71.3784 138.114 67.911C138.176 66.4481 138.429 64.9538 138.033 63.5459C137.482 61.5832 135.776 60.1701 134.015 59.1443C131.502 57.6814 128.688 56.7367 125.8 56.386C123.022 56.051 119.914 56.1557 117.826 54.2925C115.889 52.5627 115.515 49.7233 114.391 47.3838C113.297 45.1071 111.399 43.2256 109.113 42.1526C106.601 40.9724 103.736 40.7735 101.159 39.7477C98.5821 38.7193 96.1327 36.343 96.5007 33.5926C92.015 34.5609 87.314 35.6339 83.8816 38.68C80.5239 41.658 78.6595 46.303 74.6863 48.3913C71.137 50.2572 66.3545 49.8018 63.635 52.7485C60.9653 55.6428 61.7396 60.1465 61.889 64.0797C61.9846 66.592 61.7519 69.1226 61.1921 71.5746C60.4482 74.8327 59.964 77.5857 60.1051 80.938C60.1954 83.0865 60.3194 85.2349 60.4701 87.3782C60.4701 87.3782 56.8795 73.2939 54.2045 72.3492C49.7761 70.7869 49.9496 67.2436 46.9203 63.6558C44.6459 60.9604 41.5038 58.5607 41.0683 55.0619C40.6151 51.4191 43.2932 48.2396 44.766 44.8769C48.8013 35.6627 42.0894 16.622 54.849 12.9478C57.1705 12.2805 59.6139 12.0895 61.9152 11.3542C69.8421 8.82098 75.6263 0.0621525 83.9381 0.467775C88.5447 0.690213 92.5104 3.79903 97.017 4.78037C106.891 6.92886 117.41 -1.36671 126.772 2.43568C131.459 4.34079 134.704 8.96221 139.502 10.5638C141.886 11.3593 144.508 11.3515 146.806 12.3669C150.09 13.8219 152.138 17.0852 153.94 20.1915C156.71 24.9647 159.461 30.5178 157.796 35.7778C156.752 39.0777 154.02 42.3332 155.269 45.5598C155.783 46.8892 156.907 47.8889 157.577 49.145C159.515 52.7878 157.213 57.1555 154.973 60.6176C152.784 64.0039 152.416 71.1455 148.402 70.7713C144.977 70.4494 140.293 87.3782 140.293 87.3782Z" fill="#82A2B0"/>
<path d="M124.947 116.104C122.796 114.555 118.799 110.603 116.512 109.277C114.168 107.916 111.36 107.115 108.594 106.806C107.845 106.72 107.099 106.673 106.369 106.662C105.746 106.673 105.123 106.715 104.498 106.772C104.454 106.777 104.406 106.783 104.362 106.79C103.705 106.908 103.061 107.076 102.389 107.17C101.81 107.251 101.227 107.267 100.641 107.238C100.625 107.235 100.609 107.238 100.596 107.238C100.58 107.238 100.565 107.235 100.549 107.238C99.9655 107.267 99.3793 107.251 98.801 107.17C98.1284 107.076 97.4847 106.908 96.8278 106.79C96.7834 106.783 96.7362 106.777 96.6918 106.772C96.0689 106.715 95.4435 106.673 94.8207 106.662C94.0905 106.673 93.3447 106.72 92.5963 106.806C89.8302 107.115 87.0222 107.916 84.6775 109.277C82.3903 110.603 77.7461 114.665 75.595 116.214C73.8469 117.47 68.1119 111.603 63.5825 106.518C64.7235 111.302 66.4035 116.939 69.5779 122.398C69.591 122.419 69.604 122.44 69.6171 122.463C69.6381 122.495 69.659 122.529 69.6825 122.565C69.7061 122.602 69.7323 122.641 69.7611 122.683V122.686C69.7846 122.72 69.8082 122.754 69.8317 122.788C69.8553 122.822 69.8814 122.856 69.9076 122.892C70.0646 123.11 70.253 123.35 70.4702 123.615C70.5252 123.68 70.5828 123.748 70.6403 123.816C70.7005 123.889 70.7633 123.963 70.8288 124.036C70.8785 124.094 70.9256 124.151 70.9779 124.209C71.0172 124.253 71.059 124.3 71.1009 124.347C71.1768 124.434 71.2553 124.52 71.3364 124.609C71.4149 124.698 71.4961 124.787 71.5798 124.876C71.585 124.884 71.5903 124.889 71.5955 124.894C71.6793 124.983 71.763 125.072 71.8467 125.164C71.9357 125.258 72.0247 125.352 72.1163 125.449C72.1634 125.499 72.2105 125.549 72.2602 125.598C72.3361 125.679 72.4146 125.761 72.4957 125.844C72.5271 125.878 72.5585 125.91 72.5899 125.941V125.944C72.6344 125.988 72.6763 126.033 72.7208 126.08C72.9171 126.276 73.1133 126.475 73.3175 126.679C73.5818 126.946 73.8565 127.216 74.1418 127.493C74.27 127.619 74.3982 127.744 74.5291 127.867C74.6233 127.959 74.7201 128.053 74.8196 128.147C75.0027 128.323 75.1912 128.5 75.3822 128.681C75.3979 128.694 75.411 128.71 75.4267 128.723C75.5209 128.812 75.6177 128.901 75.7119 128.99C75.9998 129.259 76.2903 129.529 76.5886 129.798C76.6697 129.872 76.7508 129.948 76.8346 130.021C76.9811 130.154 77.1303 130.29 77.2821 130.426C78.2163 131.264 79.1846 132.107 80.1581 132.923C80.3334 133.067 80.5061 133.211 80.6788 133.355C80.8646 133.509 81.0531 133.661 81.2389 133.813C81.3095 133.87 81.3828 133.931 81.4561 133.988C81.9585 134.394 82.4583 134.789 82.9529 135.171C83.1309 135.307 83.3088 135.443 83.4842 135.574C83.5967 135.658 83.7066 135.741 83.8165 135.823C83.9264 135.904 84.0363 135.985 84.1463 136.066C84.2771 136.163 84.4079 136.257 84.5362 136.351C84.6801 136.456 84.8266 136.56 84.968 136.66C85.1119 136.762 85.2558 136.862 85.3971 136.958C85.6798 137.155 85.9572 137.34 86.2293 137.518C86.2921 137.56 86.3523 137.599 86.4099 137.636C87.0929 138.078 87.7367 138.46 88.3307 138.767C88.4144 138.811 88.4982 138.853 88.5819 138.895C88.6317 138.921 88.6814 138.947 88.7311 138.971C88.9954 139.096 89.244 139.206 89.4795 139.298C89.4848 139.3 89.4874 139.3 89.4926 139.303C89.5528 139.327 89.613 139.35 89.6706 139.371C89.6863 139.376 89.702 139.382 89.715 139.387C89.7491 139.397 89.7805 139.41 89.8145 139.421C89.8302 139.426 89.8485 139.431 89.8642 139.437C89.9427 139.463 90.0186 139.486 90.0945 139.507C90.1756 139.531 90.2541 139.549 90.33 139.567C97.0477 141.062 106.989 141.172 113.534 138.822C113.576 138.806 113.618 138.79 113.662 138.772C113.749 138.738 113.838 138.699 113.929 138.657C113.963 138.638 114 138.623 114.037 138.604C114.576 138.34 115.23 137.932 115.96 137.408C116.107 137.306 116.256 137.196 116.408 137.084C116.457 137.047 116.507 137.011 116.559 136.971C116.714 136.854 116.871 136.736 117.03 136.61C117.085 136.571 117.138 136.527 117.19 136.487C117.3 136.404 117.407 136.32 117.517 136.231H117.52C117.627 136.142 117.74 136.053 117.852 135.964C118.014 135.83 118.182 135.694 118.352 135.553C118.412 135.503 118.47 135.454 118.533 135.404C118.561 135.38 118.59 135.354 118.619 135.331C118.823 135.163 119.027 134.988 119.234 134.81C119.59 134.506 119.951 134.192 120.315 133.868C120.558 133.651 120.801 133.431 121.05 133.208C121.118 133.145 121.186 133.083 121.254 133.022C121.343 132.941 121.435 132.86 121.524 132.776C121.613 132.693 121.704 132.609 121.793 132.525C121.851 132.473 121.906 132.418 121.963 132.366C122.722 131.659 123.486 130.937 124.237 130.199C124.703 129.743 125.161 129.286 125.614 128.828C125.632 128.809 125.653 128.788 125.671 128.77C125.789 128.65 125.91 128.529 126.027 128.409C126.496 127.927 126.956 127.451 127.399 126.983C127.545 126.826 127.692 126.671 127.836 126.517C127.967 126.376 128.095 126.237 128.223 126.101C128.406 125.902 128.587 125.706 128.759 125.512C128.869 125.389 128.977 125.269 129.084 125.151C129.136 125.091 129.191 125.03 129.244 124.97C129.296 124.913 129.348 124.852 129.398 124.795C129.45 124.735 129.503 124.677 129.555 124.62C129.654 124.504 129.754 124.387 129.853 124.274C129.953 124.162 130.047 124.049 130.144 123.937C130.188 123.882 130.235 123.827 130.283 123.772C130.445 123.581 130.602 123.395 130.748 123.212V123.209C130.832 123.11 130.911 123.013 130.986 122.916C131.044 122.845 131.099 122.775 131.154 122.707C131.162 122.696 131.17 122.686 131.178 122.675C131.217 122.625 131.253 122.578 131.293 122.529C131.434 122.345 131.567 122.17 131.69 122.003C131.751 121.922 131.808 121.843 131.863 121.767C131.866 121.762 131.871 121.757 131.874 121.751C131.939 121.66 131.999 121.571 132.059 121.484C132.175 121.317 132.279 121.157 132.368 121.008C132.413 120.932 132.457 120.862 132.496 120.791C132.528 120.736 132.557 120.681 132.585 120.629C135.14 115.735 136.587 110.787 137.605 106.518C133.256 111.87 126.695 117.36 124.947 116.104ZM100.594 129.916C95.2551 129.825 80.0029 124.771 80.4504 121.867C81.4919 115.131 85.1425 115.887 89.8687 115.384C92.3495 115.117 94.7806 114.607 97.1803 113.911C97.7744 113.738 98.774 113.825 99.8234 113.953C100.08 113.982 100.336 113.997 100.595 113.997C100.852 113.997 101.108 113.982 101.365 113.953C102.417 113.825 103.416 113.738 104.008 113.911C106.408 114.607 108.841 115.117 111.32 115.384C116.046 115.887 120.299 114.712 121.341 121.448C121.791 124.353 105.929 129.825 100.594 129.916Z" fill="#82A2B0"/>
</svg>
