<svg width="204" height="222" viewBox="0 0 204 222" fill="none" xmlns="http://www.w3.org/2000/svg">
<path d="M203.547 120.045C203.547 137.28 199.253 153.515 191.674 167.733C190.698 169.565 189.667 171.363 188.584 173.126C184.996 178.967 180.83 184.418 176.169 189.398C175.373 190.251 174.562 191.091 173.735 191.916C173.335 192.316 172.929 192.711 172.524 193.104C171.919 193.69 171.304 194.266 170.684 194.834C170.535 194.975 170.383 195.114 170.229 195.252C169.752 195.687 169.271 196.116 168.784 196.537C167.172 197.948 165.513 199.309 163.812 200.612C163.65 200.737 163.487 200.86 163.325 200.981C162.448 201.648 161.561 202.3 160.661 202.938C159.894 203.483 159.12 204.016 158.335 204.537C158.141 204.671 157.945 204.799 157.746 204.93C142.259 215.123 123.82 221.189 103.981 221.568C103.667 221.573 103.351 221.579 103.037 221.581C102.696 221.584 102.359 221.586 102.019 221.586C101.372 221.586 100.728 221.581 100.085 221.568C99.7654 221.563 99.4462 221.555 99.1269 221.547C79.678 221.005 61.595 214.992 46.362 204.995C45.7208 204.574 45.0823 204.147 44.4516 203.71C44.2658 203.582 44.08 203.454 43.8969 203.326C42.434 202.302 40.9973 201.243 39.592 200.146C38.383 199.201 37.1923 198.228 36.0251 197.231C35.7975 197.035 35.5698 196.838 35.3421 196.639C34.6591 196.045 33.984 195.443 33.3166 194.831C32.9948 194.533 32.6729 194.234 32.3536 193.933C32.0396 193.638 31.7282 193.337 31.4168 193.038C31.0295 192.662 30.6448 192.282 30.2627 191.903C28.5748 190.217 26.9471 188.475 25.3822 186.674C21.5065 182.225 18.0155 177.434 14.9537 172.352C13.9017 170.606 12.9021 168.827 11.9574 167.013C4.6143 152.971 0.463867 136.992 0.463867 120.045C0.463867 87.137 16.1183 57.8851 40.3876 39.3312C44.8363 35.9292 49.5729 32.8883 54.5556 30.2479C56.2068 29.3738 57.8869 28.5443 59.5905 27.7592C60.4645 27.3588 61.3412 26.9689 62.2257 26.592C66.1459 24.9198 70.1942 23.4884 74.3499 22.316H74.3525C83.1192 19.8378 92.3674 18.511 101.924 18.5031H102.087C111.659 18.511 120.923 19.843 129.703 22.3291C134.133 23.58 138.443 25.1292 142.604 26.9453C142.604 26.9453 142.607 26.9453 142.607 26.9479C143.405 27.296 144.201 27.6545 144.986 28.0235H144.988C147.087 29.0048 149.144 30.0568 151.162 31.1743C155.532 33.5975 159.706 36.3348 163.652 39.3521C187.903 57.9087 203.547 87.1501 203.547 120.045Z" fill="#C7DFEA"/>
<path d="M182.75 122.377C182.504 124.766 182.525 127.205 183.02 129.557C183.501 131.855 184.629 133.951 184.98 136.283C185.231 137.95 185.1 139.567 184.737 141.137C184.708 143.317 184.26 145.473 183.42 147.564C182.067 150.94 179.78 153.842 178.226 157.134C176.671 160.419 176.373 163.928 177.064 167.45C176.415 168.131 175.758 168.798 175.093 169.46C174.931 169.622 174.769 169.782 174.604 169.944C174.094 170.447 173.576 170.947 173.055 171.436C171.325 173.074 169.548 174.649 167.721 176.167C166.612 177.088 165.487 177.989 164.346 178.865C163.317 179.656 162.273 180.425 161.218 181.176C156.846 180.888 148.003 180.524 137.363 180.145C107.93 179.096 64.7667 177.934 64.5469 178.015C64.4971 177.944 63.6466 178.114 62.8223 178.311C62.1995 178.46 61.5924 178.625 61.3621 178.714C60.5665 178.97 59.7684 179.2 58.965 179.41C53.5218 180.825 47.4034 180.504 41.7797 181.252C40.8873 180.619 40.0054 179.975 39.134 179.313C36.2135 177.104 33.3951 174.741 30.6944 172.239C30.4484 172.014 30.2051 171.784 29.9617 171.556C29.229 170.865 28.5067 170.167 27.7923 169.455C27.4442 169.109 27.0988 168.761 26.7586 168.413C27.3291 166.074 27.4704 163.583 27.1825 161.188C26.8763 158.642 25.6804 156.747 24.4138 154.656C23.0321 152.372 21.6242 150.082 20.6167 147.564C19.7766 145.473 19.3291 143.317 19.3004 141.137C18.9366 139.567 18.8058 137.95 19.057 136.283C19.4077 133.951 20.5355 131.855 21.017 129.557C21.5116 127.205 21.5352 124.766 21.2866 122.377C21.0354 119.953 20.4701 117.574 19.7793 115.259C19.0936 112.961 18.3059 110.684 18.005 108.279C17.4345 103.773 18.9576 99.4262 21.4907 95.8933C23.0373 93.7318 25.1021 92.2349 26.7586 90.2356C28.5904 88.0216 30.3202 85.5487 31.6287 82.9344C32.8272 80.5451 33.6568 77.8706 33.6856 75.1307C33.6986 73.8039 33.437 72.5033 33.4291 71.1582C33.4213 69.6247 33.4971 68.0912 33.6018 66.5603C33.7431 64.4929 33.9446 62.4177 34.2639 60.3713C34.434 58.3065 34.8946 56.281 35.8681 54.3288C35.8942 54.2817 35.9178 54.232 35.944 54.1823C35.9623 54.1404 35.9806 54.0959 36.0015 54.0514C36.9096 52.0259 38.4719 51.0184 39.6207 49.1813C41.2223 46.6194 40.5314 42.9269 40.411 40.0117C40.3142 37.7323 40.2985 35.4399 40.7382 33.1972C41.5363 29.1279 43.7031 25.438 46.7414 22.8996C49.7796 20.3586 53.8385 19.9373 56.7589 17.535C57.3844 17.0194 57.879 16.3469 58.3893 15.6979C62.7935 10.0741 68.6136 5.72743 75.0224 3.17856C75.0302 3.17332 75.0355 3.1707 75.0407 3.16808C77.8539 2.05066 80.7796 1.27605 83.7472 0.893967C85.6733 0.642746 87.6176 0.559021 89.5594 0.642761C91.365 0.723877 93.2414 0.904434 94.9921 1.41736C96.243 1.78372 97.575 2.35684 98.6898 3.1864C98.9515 3.35388 99.2053 3.53183 99.4461 3.73071C100.655 4.71207 101.456 5.96295 101.958 7.36299H102.079C102.581 5.96295 103.382 4.71207 104.591 3.73071C104.834 3.53183 105.088 3.35388 105.347 3.1864C106.462 2.35684 107.794 1.78372 109.045 1.41736C109.592 1.25772 110.149 1.12952 110.717 1.02745C111.963 0.799774 113.237 0.700333 114.48 0.642761C116.417 0.559021 118.364 0.642746 120.29 0.893967C130.059 2.15532 138.873 7.52786 145.339 15.4231C148.521 19.3118 153.535 19.7541 157.298 22.8996C160.337 25.438 162.501 29.1279 163.299 33.1972C163.739 35.4399 163.725 37.7323 163.629 40.0117C163.524 42.4402 162.768 46.3498 164.032 48.535C164.61 49.5372 165.45 50.3302 166.185 51.2042C168.425 53.8709 169.231 56.9301 169.773 60.3713C170.095 62.4177 170.294 64.4929 170.438 66.5603C170.582 68.6983 170.749 70.8939 170.493 73.0136C170.239 75.1202 170.396 77.2818 170.948 79.3204C171.932 82.937 174.107 86.0223 176.342 88.9166C178.275 91.4263 180.704 93.3209 182.546 95.8933C185.082 99.4262 186.603 103.773 186.035 108.279C185.731 110.684 184.946 112.961 184.258 115.259C183.567 117.574 183.002 119.953 182.75 122.377Z" fill="#628B9D"/>
<path d="M191.674 167.733C190.698 169.565 189.667 171.363 188.584 173.126C184.996 178.967 180.83 184.418 176.169 189.398C175.373 190.251 174.562 191.091 173.735 191.916C173.335 192.316 172.929 192.711 172.524 193.104C171.919 193.69 171.304 194.266 170.684 194.834C170.535 194.975 170.383 195.114 170.229 195.252C169.752 195.687 169.271 196.116 168.784 196.537C167.172 197.948 165.513 199.309 163.812 200.612C163.65 200.737 163.487 200.86 163.325 200.981C162.448 201.648 161.561 202.3 160.661 202.938C159.894 203.483 159.12 204.016 158.335 204.537C158.141 204.671 157.945 204.799 157.746 204.93C142.259 215.123 123.82 221.189 103.981 221.568C103.667 221.573 103.351 221.579 103.037 221.581C102.696 221.584 102.359 221.586 102.019 221.586C101.372 221.586 100.728 221.581 100.085 221.568C99.7654 221.563 99.4462 221.555 99.1269 221.547C79.678 221.005 61.5951 214.992 46.362 204.995C45.7208 204.574 45.0823 204.147 44.4516 203.71C44.2658 203.582 44.0801 203.454 43.8969 203.326C42.434 202.302 40.9973 201.243 39.592 200.146C38.383 199.201 37.1923 198.228 36.0252 197.231C35.7975 197.035 35.5698 196.838 35.3422 196.639C34.6591 196.045 33.984 195.443 33.3167 194.831C32.9948 194.533 32.6729 194.234 32.3536 193.933C32.0396 193.638 31.7282 193.337 31.4168 193.038C31.0295 192.662 30.6448 192.282 30.2627 191.903C28.5748 190.217 26.9471 188.475 25.3822 186.674C21.5065 182.225 18.0156 177.434 14.9538 172.352C13.9018 170.606 12.9021 168.827 11.9574 167.013C15.5347 162.028 19.6668 157.755 24.4008 154.635H24.4034C26.0626 153.544 27.795 152.594 29.6033 151.804C32.092 150.72 34.7089 149.846 37.3834 149.359C38.5845 149.142 41.2669 148.648 40.7854 146.876C40.5027 145.84 39.9061 144.704 39.5318 143.665C38.9483 142.048 38.3202 140.478 38.1397 138.751C37.8178 135.689 38.2391 132.527 39.3905 129.667C41.5678 124.261 46.6603 120.806 49.0313 115.491C50.1277 113.039 51.007 110.454 52.5275 108.219C54.2913 105.628 57.0024 103.956 59.7449 102.561C62.8119 101.004 66.0124 99.7139 69.3071 98.6541C69.9823 98.4369 70.6627 98.2275 71.3483 98.0286C80.1543 95.4745 89.5097 94.488 98.5224 94.399C109.89 94.2812 121.258 96.0424 132.186 99.1984C132.911 99.4078 133.634 99.6223 134.353 99.8448C135.52 100.201 136.685 100.578 137.842 100.965C140.731 101.938 143.573 103.202 145.923 105.181C148.275 107.159 150.021 109.716 151.9 112.121C153.768 114.507 155.909 116.501 158.212 118.462C160.415 120.338 162.663 122.272 164.163 124.784C165.714 127.383 166.447 130.444 166.306 133.464C166.191 135.911 165.288 138.185 164.33 140.41C163.927 141.349 163.529 142.173 162.917 143C162.349 143.765 161.629 144.542 161.548 145.541C161.449 146.711 162.349 147.753 163.244 148.368C165.235 149.736 167.852 149.935 170.163 150.354C173.536 150.966 176.692 152.416 179.634 154.494C179.634 154.494 179.636 154.494 179.636 154.497C184.148 157.684 188.157 162.347 191.674 167.733Z" fill="#9DBDCB"/>
<path d="M153.574 155.844C152.789 157.114 151.196 157.587 149.819 157.865C149.024 158.024 148.22 158.137 147.42 158.281C146.561 158.435 145.703 158.608 144.852 158.796C143.151 159.173 141.466 159.621 139.799 160.123C136.465 161.131 133.204 162.371 130.012 163.761C126.788 165.161 123.634 166.715 120.523 168.351C117.406 169.989 114.334 171.711 111.272 173.451C110.806 173.713 110.34 173.977 109.877 174.244C111.528 171.902 113.499 169.782 115.603 167.843C118 165.632 120.609 163.624 123.425 161.976C126.432 160.215 129.703 158.888 132.971 157.708C136.402 156.467 139.898 155.42 143.395 154.379C145.242 153.829 147.09 153.277 148.94 152.728C149.762 152.484 150.594 152.183 151.45 152.079C152.172 151.992 152.965 152.076 153.504 152.612C154.36 153.455 154.15 154.908 153.574 155.844Z" fill="#6F93A4"/>
<path d="M93.6785 176.316C90.9098 175.126 88.1332 173.961 85.3462 172.818C81.7532 171.347 78.1445 169.915 74.52 168.523C70.8982 167.134 67.2581 165.783 63.6075 164.475C61.773 163.818 59.936 163.172 58.0963 162.536C56.3141 161.918 54.5215 161.34 52.7473 160.709C51.1457 160.136 49.5128 159.45 48.2279 158.273C47.0947 157.234 46.1997 155.737 46.1186 154.13C46.0977 153.732 46.1265 153.332 46.2102 152.942C46.4771 152.147 47.1916 151.838 47.9583 151.796C48.2409 151.78 48.5236 151.788 48.8088 151.814C48.992 151.833 49.1778 151.856 49.361 151.89C50.0649 152.01 50.7584 152.222 51.4231 152.445C54.4352 153.445 57.285 154.944 60.1165 156.386C63.6101 158.165 67.1508 159.84 70.5894 161.732C70.9506 161.931 71.3091 162.13 71.6702 162.332C72.594 162.85 73.5125 163.376 74.4284 163.912C77.2128 165.543 79.9606 167.246 82.6796 168.994C86.3825 171.376 90.0358 173.838 93.6785 176.316Z" fill="#6F93A4"/>
<path d="M148.506 123.604C148.503 123.858 148.49 124.112 148.464 124.36C148.296 126.087 147.597 127.718 146.671 129.183C145.611 130.853 144.274 132.329 142.905 133.752C141.254 135.469 134.06 146.494 134.05 146.507C133.471 147.452 125.273 153.248 123.543 153.662C123.553 153.604 77.8618 153.377 78.9557 153.377C73.099 150.16 68.2499 143.786 67.1822 142.723C64.2146 139.776 61.2182 136.783 58.8028 133.355C56.7407 130.429 55.0345 127.003 54.744 123.387C54.7126 122.999 54.6995 122.61 54.7021 122.217C54.7021 121.942 54.7178 121.667 54.7466 121.395C54.8382 120.581 55.0632 119.794 55.4924 119.077C56.0394 118.166 56.814 117.415 57.5833 116.695C59.0645 115.311 60.6582 114.052 62.3383 112.919C65.4707 110.807 68.8858 109.135 72.4344 107.85C72.6725 107.764 72.9106 107.68 73.1514 107.599C81.5491 104.699 90.4963 104.003 99.3232 104.294C104.073 104.451 108.807 104.88 113.53 105.39C117.72 105.84 121.912 106.356 126.039 107.23C128.083 107.662 130.114 108.182 132.103 108.829C134.068 109.465 135.991 110.226 137.842 111.145C141.301 112.859 144.776 115.117 146.893 118.43C147.655 119.624 148.207 120.953 148.414 122.348C148.477 122.761 148.508 123.18 148.506 123.604Z" fill="#6F93A4"/>
<path d="M131.061 148.98C131.03 149.004 124.519 153.662 115.093 159.594C112.277 161.369 110.463 163.122 108.794 165.943C108.768 165.988 108.741 166.032 108.715 166.079C108.613 166.254 108.509 166.435 108.409 166.613C108.378 166.668 108.346 166.723 108.317 166.778C108.126 167.115 107.941 167.456 107.76 167.798C107.695 167.916 107.632 168.037 107.569 168.154C107.496 168.296 107.422 168.437 107.349 168.576C107.132 168.997 106.917 169.421 106.708 169.847C106.425 170.415 106.151 170.983 105.879 171.556C105.659 172.012 105.444 172.47 105.227 172.928C105.12 173.158 105.01 173.386 104.902 173.616C104.505 174.464 104.104 175.312 103.693 176.157C103.17 177.232 102.631 178.303 102.063 179.36C101.786 179.87 101.503 180.378 101.21 180.88C101.05 181.16 100.885 181.438 100.718 181.713C100.658 181.809 100.598 181.914 100.53 182.008C100.493 182.061 100.461 182.1 100.438 182.129C100.341 182.233 100.166 182.197 100.124 182.066C99.8151 181.147 98.2057 176.348 97.4285 174.024C96.5937 171.53 95.7903 168.986 94.4478 166.697C93.1001 164.391 91.1479 162.567 89.0151 160.947C86.8457 159.299 84.6082 157.736 82.3969 156.143C79.3063 153.918 75.3862 151.479 73.1199 148.998C73.1121 148.996 73.1068 148.991 73.099 148.985C74.3132 146.405 80.0024 145.508 80.5101 142.676C95.0968 142.817 106.551 144.147 120.777 144.369C121.279 146.928 129.698 148.525 131.061 148.98Z" fill="#6F93A4"/>
<path d="M130.949 148.97C130.915 148.978 130.878 148.985 130.844 148.996C130.841 148.996 130.841 148.996 130.839 148.998H130.831C128.34 149.632 125.895 150.16 123.504 150.605C120.476 151.165 117.529 151.584 114.679 151.89C110.33 152.359 106.2 152.563 102.327 152.607C93.6079 152.508 84.0012 151.869 73.1226 149.001C73.12 149.001 73.1148 148.998 73.1122 148.998C73.1043 148.998 73.0965 148.996 73.0886 148.993C73.0886 148.991 73.0912 148.988 73.0938 148.985C74.3055 146.405 75.0722 143.647 75.5773 140.815C75.6349 140.491 75.6898 140.169 75.7422 139.844C75.7762 139.627 75.8102 139.413 75.8416 139.195C76.0797 137.563 76.2446 135.911 76.3755 134.26C76.3755 134.249 76.3755 134.239 76.3781 134.229C76.4906 132.792 76.5743 131.355 76.6528 129.932C76.802 127.296 76.9433 124.593 76.9957 121.877C77.0088 121.301 77.0166 120.723 77.0192 120.144V119.993C77.0218 119.396 77.0166 118.797 77.0088 118.2C76.9904 116.957 76.9459 115.716 76.8674 114.484C76.8648 114.468 76.8648 114.455 76.8622 114.439C76.7994 113.476 76.6136 111.121 76.4723 109.394C76.4644 109.3 76.4566 109.208 76.4487 109.119C76.4226 108.805 76.399 108.515 76.3755 108.269C76.3545 108.018 76.3362 107.806 76.3205 107.654C76.31 107.512 76.2996 107.423 76.2943 107.392L77.9509 107.51L102.026 109.232L127.756 107.392C127.751 107.434 127.735 107.594 127.712 107.845C127.706 107.918 127.698 107.999 127.691 108.088C127.68 108.203 127.67 108.326 127.659 108.462C127.636 108.732 127.609 109.038 127.581 109.368C127.578 109.415 127.573 109.465 127.57 109.512C127.46 110.841 127.327 112.506 127.246 113.626C127.241 113.67 127.238 113.712 127.235 113.756C127.214 114.047 127.196 114.296 127.183 114.484C127.081 116.101 127.036 117.734 127.031 119.367V119.993C127.042 123.34 127.214 126.687 127.397 129.932C127.583 133.263 127.795 136.668 128.332 139.983C128.366 140.2 128.402 140.418 128.442 140.632C128.491 140.933 128.546 141.231 128.607 141.53C129.109 144.092 129.967 146.633 131.061 148.98C131.061 148.983 130.933 148.93 130.933 148.933C130.938 148.943 130.943 148.957 130.949 148.97Z" fill="#ECF4FB"/>
<path d="M128.442 140.632C127.329 140.805 126.23 140.964 125.139 141.111C102.683 141.967 93.9532 134.768 83.2605 122.756C81.5647 120.851 79.3927 119.438 77.0087 118.2C76.9904 116.957 76.9459 115.716 76.8674 114.484C76.8647 114.468 76.8647 114.455 76.8621 114.439C76.7993 113.476 76.6135 111.121 76.4722 109.394C76.4644 109.3 76.4565 109.208 76.4486 109.119C76.4225 108.805 76.3989 108.515 76.3754 108.269C76.3544 108.017 76.3361 107.805 76.3204 107.654C81.0414 110.723 86.1182 115.478 91.0432 115.727C95.2407 115.939 114.381 111.919 127.659 108.462C127.636 108.732 127.609 109.038 127.581 109.368C127.578 109.415 127.573 109.465 127.57 109.512C127.46 110.841 127.327 112.505 127.246 113.626C127.24 113.67 127.238 113.712 127.235 113.756C127.214 114.047 127.196 114.295 127.183 114.484C127.081 116.101 127.036 117.734 127.031 119.367V119.992C127.042 123.34 127.214 126.687 127.397 129.932C127.583 133.263 127.795 136.667 128.332 139.983C128.366 140.2 128.402 140.418 128.442 140.632Z" fill="#C0D0D8"/>
<path d="M147.153 66.0579C146.852 68.1855 146.069 70.4701 145.483 72.5584C145.127 73.825 144.826 75.1073 144.533 76.3948C143.968 78.8521 144.227 81.8694 142.971 84.0309C141.935 85.8209 139.514 86.9305 137.609 87.5298C137.216 89.3904 136.784 91.2248 136.329 93.0017C135.662 95.6003 134.939 98.0812 134.188 100.353C133.306 103.03 120.204 118.014 118.178 120.254C117.953 120.506 117.723 120.746 117.485 120.982C113.816 124.617 109.082 126.121 103.785 126.441C103.209 126.475 102.626 126.501 102.04 126.517C101.678 126.509 101.317 126.493 100.959 126.477C100.736 126.467 100.514 126.454 100.294 126.441C96.1934 126.189 92.1581 125.012 88.8215 122.717C87.1519 121.571 85.6891 120.173 84.4696 118.603C82.9361 116.633 70.9584 103.715 69.8489 100.353C68.5875 96.5241 67.3994 92.112 66.4286 87.5298C64.5261 86.9305 62.2336 85.8209 61.1973 84.0309C59.9412 81.8694 60.0695 78.8521 59.5068 76.3948C59.2111 75.1073 58.9128 73.825 58.5569 72.5584C57.9707 70.4701 57.1856 68.1855 56.8873 66.0579C56.0054 59.8061 62.7596 61.7243 63.8326 63.3049C63.8875 63.3861 64.021 63.5509 64.1597 63.7315C63.1914 62.478 62.9376 59.9265 62.6366 58.427C62.2572 56.5402 62.0347 54.6273 61.9589 52.7117C61.8045 48.8255 61.2811 43.7932 62.3174 40.0196C63.1783 36.8872 64.1963 33.7076 66.1276 30.9546C68.1139 28.1205 72.5103 23.4153 75.4857 21.5075C80.9394 18.0192 87.3613 15.3447 93.8722 14.3764C96.5676 13.9734 99.2918 13.7431 102.019 13.6908C104.748 13.7431 107.472 13.9734 110.165 14.3764C116.679 15.3447 123.101 18.0192 128.552 21.5075C131.53 23.4153 135.923 28.1205 137.912 30.9546C139.841 33.7076 140.862 36.8872 141.723 40.0196C142.756 43.7932 142.235 48.8255 142.078 52.7117C142.003 54.6273 141.783 56.5402 141.403 58.427C141.102 59.9265 140.848 62.478 139.878 63.7315C140.016 63.5509 140.152 63.3861 140.205 63.3049C141.28 61.7243 148.032 59.8061 147.153 66.0579Z" fill="#ECF4FB"/>
<path d="M149.241 24.9069C144.714 13.1176 136.538 4.24106 124.689 2.30453C119.131 1.39647 110.131 0.996063 104.52 0.593063C97.0307 0.0592117 87.4371 -0.409203 80.1019 1.23684C71.6702 3.12887 64.8504 9.55602 59.4779 16.5589C55.2045 22.1303 54.5764 26.9481 54.4037 33.6526C54.3933 34.0347 54.3592 34.4141 54.3069 34.791C53.4904 40.6267 49.3033 44.7667 50.9389 50.605C51.3733 52.1542 52.318 53.481 53.247 54.7737C57.5074 60.6984 61.7651 66.6231 66.0254 72.5479C68.9145 70.4988 71.1468 67.4684 72.293 64.0376C72.9498 62.0645 73.3188 59.8584 74.745 58.3877C76.3963 56.6815 78.94 56.4747 81.2271 56.0089C94.7906 53.2455 103.903 38.7294 117.432 35.7828C118.487 35.5525 119.586 35.3981 120.635 35.6519C121.771 35.9293 122.75 36.6568 123.655 37.421C129.227 42.1262 133.204 48.8229 134.751 56.1005C135.949 61.7321 135.963 68.1724 139.88 72.2626C141.194 68.8528 143.693 66.1128 145.747 63.1217C153.483 51.8611 154.069 37.4759 149.241 24.9069Z" fill="#628B9D"/>
</svg>
