<svg width="204" height="229" viewBox="0 0 204 229" fill="none" xmlns="http://www.w3.org/2000/svg">
<path d="M203.476 126.519C203.476 144.126 198.993 160.683 191.108 175.121C190.81 175.668 190.509 176.209 190.2 176.749C190.14 176.851 190.082 176.955 190.022 177.057C187.583 181.307 184.841 185.361 181.831 189.192C181.491 189.626 181.146 190.058 180.798 190.49C163.95 211.232 139.084 225.201 110.918 227.668C108.173 227.912 105.396 228.043 102.594 228.061H101.934C98.9064 228.061 95.91 227.93 92.9476 227.668C90.6212 227.464 88.3183 227.182 86.039 226.826C60.7307 222.846 38.5262 209.518 23.0707 190.49C21.8879 189.038 20.7495 187.551 19.6504 186.031C17.0178 182.396 14.6207 178.583 12.4801 174.61C12.4094 174.48 12.3387 174.346 12.2681 174.215C11.6636 173.082 11.0826 171.939 10.5226 170.782C4.03 157.407 0.389893 142.388 0.389893 126.519C0.389893 92.6905 16.9341 62.7241 42.3731 44.2722C44.608 42.6498 46.9108 41.1162 49.2791 39.6796C52.8983 37.4813 56.6667 35.5004 60.5607 33.7601C71.4445 28.9031 83.3357 25.9015 95.8393 25.1609C96.4307 25.1243 97.0222 25.0955 97.6188 25.0719C99.0503 25.0117 100.487 24.9803 101.934 24.9803C109.866 24.9803 117.589 25.891 125 27.613C133.701 29.6332 141.97 32.7735 149.656 36.869C150.07 37.0914 150.486 37.3165 150.897 37.5442C182.245 54.8289 203.476 88.1972 203.476 126.519Z" fill="#DAEAF1"/>
<path d="M191.108 175.121C190.81 175.668 190.509 176.209 190.2 176.749C190.14 176.851 190.082 176.955 190.022 177.057C187.583 181.307 184.841 185.361 181.831 189.192C181.491 189.626 181.146 190.058 180.798 190.49C163.95 211.232 139.084 225.201 110.918 227.668C108.173 227.912 105.396 228.043 102.594 228.061H101.934C98.9064 228.061 95.9099 227.93 92.9476 227.668C90.6212 227.464 88.3183 227.182 86.0389 226.826C60.7307 222.846 38.5262 209.518 23.0707 190.49C21.8878 189.038 20.7495 187.551 19.6504 186.031C17.0178 182.396 14.6207 178.583 12.48 174.61C12.4094 174.48 12.3387 174.346 12.2681 174.215C30.4556 165.689 63.4628 151.903 69.5969 149.87C70.4631 149.585 70.9472 149.436 70.9681 149.449C72.7005 150.634 99.9924 161.434 129.017 149.449C129.04 149.441 129.522 149.593 130.38 149.878C137.346 152.204 175.64 167.322 191.108 175.121Z" fill="#82A2B0"/>
<path d="M130.399 149.852C130.349 149.941 129.951 150.428 129.859 150.53L129.849 150.54C129.352 151.056 128.208 152.212 126.536 153.646C126.457 153.712 126.382 153.78 126.3 153.848C118.874 160.178 110.11 164.255 100.246 164.321C90.1949 164.386 81.2476 160.299 73.6821 153.848C73.6036 153.78 73.5251 153.712 73.4492 153.646C71.777 152.212 70.6308 151.056 70.1335 150.54C70.0603 150.464 69.6363 149.943 69.584 149.852C69.7436 149.716 70.7642 147.724 70.8506 147.512C72.6222 143.163 72.2663 137.27 72.4731 132.528C72.5149 131.586 72.5516 130.644 72.5882 129.699C72.706 126.514 72.795 123.329 72.863 120.142C72.9232 117.318 72.9677 114.492 73.0069 111.668C73.0331 109.944 73.0514 108.478 73.0697 107.374C73.0697 108.787 77.5682 113.239 78.6516 114.113C83.8514 118.318 88.9701 122.636 94.5729 124.517C96.3263 125.109 98.1268 125.462 99.9926 125.496C103.79 125.426 107.317 124.044 110.725 122.008C114.341 119.849 117.816 116.955 121.334 114.113C122.414 113.239 126.913 108.787 126.913 107.374C126.931 108.478 126.952 109.944 126.976 111.668C127.01 114.105 127.049 116.544 127.099 118.98C127.188 123.497 127.313 128.014 127.51 132.528C127.716 137.27 127.363 143.163 129.132 147.512C129.218 147.724 130.239 149.716 130.399 149.852Z" fill="#ECF4FB"/>
<path d="M86.8381 107.963C86.8264 107.951 86.8264 107.951 86.8381 107.963Z" fill="#B63843"/>
<path d="M91.21 84.4916C88.7449 89.257 83.2807 94.7997 77.1048 95.7025C76.4087 95.8046 75.7126 95.8464 75.0348 95.8229C73.551 95.7731 72.1117 95.4225 70.7509 94.7787C65.1874 92.1461 61.4007 84.4707 62.2564 77.6117C62.2616 77.5542 62.2695 77.4992 62.2774 77.4442C62.348 76.9156 62.4605 76.3164 62.6333 75.6857C63.4314 72.7835 65.5302 69.1801 70.9864 68.3531C73.7368 67.937 76.2831 67.7303 78.7063 67.7303C79.5778 67.7303 80.4309 67.759 81.2736 67.8114C81.5955 67.8297 81.9278 67.8559 82.2575 67.8873C82.6369 67.9187 83.0216 67.9475 83.4299 67.9789C86.3818 68.1987 90.0585 68.4735 91.7648 70.8836C93.2486 72.9772 93.3689 75.6726 93.2093 77.5673C93.0156 79.8859 92.2856 82.4085 91.21 84.4916ZM92.3641 70.4205C90.2078 67.377 85.5888 67.4005 82.3229 67.1101C81.9879 67.0813 81.653 67.0525 81.3154 67.0342C77.8323 66.8143 74.3283 67.0603 70.8792 67.5837C66.0169 68.3191 63.1959 71.2971 62.0288 75.0812C61.843 75.6857 61.699 76.3085 61.5944 76.9497C60.4769 83.8557 64.0856 92.4784 70.4448 95.4879C71.9495 96.1997 73.483 96.5504 75.0113 96.6001C75.7466 96.6262 76.482 96.5792 77.2095 96.4745C83.3435 95.5769 89.0641 90.2776 91.8642 84.8632C93.9368 80.8541 95.1904 74.4113 92.3641 70.4205Z" fill="#46305E"/>
<path d="M129.26 94.7787C127.902 95.4225 126.46 95.7732 124.976 95.8229C124.298 95.8464 123.602 95.8046 122.906 95.7025C120.849 95.4016 118.871 94.5851 117.055 93.4546C113.423 91.191 110.447 87.6686 108.804 84.4916C108.265 83.4501 107.814 82.2987 107.472 81.1184C107.131 79.9382 106.899 78.7266 106.802 77.5673C106.642 75.6753 106.765 72.9772 108.246 70.8837C109.953 68.4735 113.629 68.1987 116.581 67.9789C116.992 67.9501 117.377 67.9187 117.754 67.8873C118.083 67.8559 118.416 67.8323 118.74 67.8114C119.58 67.7591 120.436 67.7329 121.305 67.7329C122.378 67.7329 123.474 67.7721 124.602 67.8533C126.023 67.9553 127.491 68.1228 129.027 68.3557C134.481 69.1801 136.58 72.7835 137.378 75.6857C137.553 76.3164 137.663 76.9156 137.736 77.4443C137.744 77.4992 137.752 77.5542 137.757 77.6091C138.61 84.4707 134.826 92.1461 129.26 94.7787ZM138.417 76.9497C138.312 76.3086 138.171 75.6857 137.982 75.0812C136.815 71.2971 133.994 68.3191 129.134 67.5837C125.683 67.0604 122.179 66.8144 118.696 67.0342C118.361 67.0551 118.023 67.0813 117.691 67.1101C114.425 67.4006 109.803 67.377 107.647 70.4205C104.821 74.4139 106.074 80.8541 108.147 84.8632C110.947 90.2802 116.667 95.5769 122.802 96.4745C123.532 96.5818 124.264 96.6263 125 96.6001C126.528 96.5504 128.064 96.1998 129.569 95.4906C135.925 92.4785 139.537 83.8557 138.417 76.9497Z" fill="#46305E"/>
<path d="M130.398 149.852C130.349 149.941 129.951 150.427 129.859 150.529C129.496 150.571 129.132 150.611 128.768 150.65C100.636 151.506 89.7002 144.306 76.3042 132.295C75.2077 131.313 73.9542 130.46 72.5881 129.699C72.7059 126.514 72.7949 123.329 72.8629 120.142C75.2129 121.497 77.5995 122.832 79.9887 123.803C82.0169 124.627 84.045 125.185 86.0548 125.266C87.5621 125.326 90.6056 125.041 94.5729 124.517C99.0687 123.928 104.75 123.036 110.724 122.008C115.427 121.196 120.313 120.301 124.945 119.401C125.67 119.26 126.389 119.119 127.098 118.98C127.187 123.497 127.313 128.013 127.509 132.528C127.716 137.27 127.363 143.163 129.132 147.512C129.218 147.724 130.239 149.716 130.398 149.852Z" fill="#C0D0D8"/>
<path d="M150.766 60.7327C150.578 60.0052 150.104 59.6728 149.528 59.5734C148.814 59.4478 147.942 59.6781 147.28 59.945C145.158 60.8007 144.263 64.7261 143.949 66.6181C143.949 66.469 143.862 66.346 143.847 66.1968C141.926 48.6844 143.386 30.0624 115.893 23.821C110.866 22.6801 105.336 25.7314 99.9925 26.1998C94.6488 25.7314 89.1192 22.6801 84.0921 23.821C56.5987 30.0624 58.059 48.6844 56.1382 66.1968C56.1225 66.346 56.0361 66.469 56.0361 66.6181C55.7247 64.7261 54.8271 60.8007 52.7048 59.945C52.0427 59.6781 51.1712 59.4478 50.4568 59.5734C49.8811 59.6728 49.4075 60.0052 49.2191 60.7327C48.96 61.7402 49.1693 63.0355 49.2191 64.0692C49.3761 67.309 49.8942 70.5226 50.4647 73.7126C51.1503 77.5751 50.8441 80.4459 52.1055 84.1672C52.8147 86.2555 54.8742 89.3251 56.0361 91.2171C56.6092 92.1488 57.567 93.6613 58.8624 93.6038C58.9618 93.6011 60.1577 93.4991 60.3069 92.9312C60.3095 92.9312 60.3096 92.9312 60.3122 92.9312C60.4326 93.0202 60.5529 93.1563 60.6785 93.3395C62.4371 95.9433 63.0128 99.7038 64.0072 102.64C65.4858 107 67.0088 111.396 69.3196 115.397C71.4157 119.027 74.4513 122.115 77.3587 125.101C81.5903 129.442 86.4918 134.891 92.3013 137.058C94.6016 137.913 97.2814 138.361 99.9925 138.364C102.704 138.361 105.383 137.913 107.684 137.058C113.493 134.891 118.397 129.442 122.626 125.101C126.384 121.244 129.48 117.588 130.33 115.997C130.589 115.518 130.838 115.039 131.079 114.563C131.155 114.408 131.233 114.256 131.309 114.102C131.325 114.071 131.341 114.037 131.356 114.005C136.116 104.385 137.815 95.5455 139.309 93.3395C139.432 93.1563 139.552 93.0202 139.675 92.9312C139.675 92.9312 139.675 92.9312 139.678 92.9312C139.827 93.4991 141.023 93.6011 141.123 93.6038C142.418 93.6613 143.378 92.1488 143.949 91.2171C145.111 89.3251 147.17 86.2555 147.879 84.1672C149.141 80.4459 148.835 77.5751 149.52 73.7126C150.091 70.5226 150.609 67.309 150.766 64.0692C150.816 63.0355 151.025 61.7402 150.766 60.7327Z" fill="#ECF4FB"/>
<path d="M92.9765 39.0881C88.6664 43.3092 84.3302 47.9045 79.2167 51.2306C80.7005 49.4642 82.1241 47.6585 83.5346 45.8528C87.1695 41.1973 96.9045 34.8879 101.432 30.8474C101.539 30.8474 101.646 30.8474 101.759 30.8474C98.841 33.6004 95.8472 36.2775 92.9765 39.0881ZM154.49 38.5254C154.108 34.0871 153.032 29.6698 151.326 25.4539C146.464 13.4318 137.684 4.37987 124.955 2.4041C118.986 1.48032 109.322 1.06948 103.295 0.661238C95.2506 0.116919 84.9452 -0.361977 77.0656 1.31547C68.0111 3.24675 60.6863 9.80216 54.9134 16.9437C50.326 22.6224 49.6508 27.537 49.465 34.3724C49.4546 34.7623 49.4179 35.1496 49.3603 35.5343C48.8291 39.1535 46.9554 42.1342 45.9662 45.2535C45.3276 47.2607 45.0555 49.3281 45.7437 51.6598C46.2095 53.2378 46.9449 54.8681 48.2246 55.9122C49.8916 57.2704 51.1739 58.5475 52.1892 59.7617C54.2514 62.2242 55.2065 64.4303 56.023 66.5291C56.0282 66.5421 56.0335 66.5605 56.0413 66.5736C57.0122 69.0858 57.7894 71.4436 60.0295 73.9114C60.7858 73.4011 61.6153 72.8385 62.4554 72.2313C64.2087 70.9569 66.0065 69.4757 67.2784 67.8349C67.8881 67.0446 68.3748 66.2177 68.6784 65.3567C69.385 63.3469 69.7827 61.0989 71.3136 59.5968C73.0853 57.8566 75.8173 57.6472 78.2746 57.1736C92.843 54.3525 102.63 39.5513 117.162 36.5444C118.293 36.3115 119.475 36.1545 120.601 36.4136C121.82 36.6936 122.872 37.4368 123.846 38.2166C129.828 43.0134 134.101 49.8436 135.763 57.2652C136.886 62.2818 137.04 67.9265 139.864 72.0508C140.167 72.4983 140.505 72.9301 140.879 73.3383C141.005 73.477 141.136 73.6131 141.272 73.7439C142.682 70.2687 145.367 67.4764 147.573 64.425C148.615 62.9831 149.536 61.4941 150.339 59.9632C153.838 53.3031 155.12 45.8842 154.49 38.5254Z" fill="#82A2B0"/>
<path d="M101.544 71.5613C100.217 71.3729 98.8515 71.4462 97.4934 71.7759C96.1142 72.1109 95.0255 72.6395 94.3556 73.0215C94.0573 71.8727 93.5915 70.8417 92.9634 69.9545C92.8797 69.8394 92.7934 69.7269 92.7044 69.6143H107.309C107.218 69.7269 107.131 69.8394 107.048 69.9571C106.414 70.8521 105.946 71.8963 105.645 73.0582C104.339 72.2679 102.963 71.7654 101.544 71.5613ZM93.2094 77.5671C93.0157 79.8857 92.2856 82.4084 91.2101 84.4915C88.745 89.2569 83.2808 94.7996 77.1049 95.7024C76.4088 95.8044 75.7127 95.8463 75.0349 95.8228C73.5511 95.773 72.1118 95.4224 70.751 94.7786C65.1874 92.146 61.4008 84.4706 62.2565 77.6116C62.2617 77.554 62.2696 77.4991 62.2775 77.4441C62.3481 76.9155 62.4606 76.3163 62.6334 75.6856C63.4315 72.7834 65.5303 69.1799 70.9865 68.353C73.7369 67.9369 76.2832 67.7301 78.7064 67.7301C79.5779 67.7301 80.431 67.7589 81.2737 67.8113C81.5956 67.8296 81.9279 67.8558 82.2576 67.8872C82.637 67.9186 83.0217 67.9473 83.43 67.9788C86.3819 68.1986 90.0586 68.4733 91.7649 70.8835C93.2487 72.9771 93.369 75.6725 93.2094 77.5671ZM122.906 95.7024C120.849 95.4014 118.871 94.585 117.055 93.4544C113.423 91.1908 110.447 87.6684 108.804 84.4915C108.265 83.45 107.814 82.2985 107.472 81.1183C107.131 79.9381 106.899 78.7264 106.802 77.5671C106.642 75.6751 106.765 72.9771 108.246 70.8835C109.952 68.4733 113.629 68.1986 116.581 67.9788C116.992 67.95 117.377 67.9186 117.754 67.8872C118.083 67.8558 118.416 67.8322 118.74 67.8113C119.58 67.7589 120.436 67.7328 121.305 67.7328C122.378 67.7328 123.474 67.772 124.602 67.8531C126.023 67.9552 127.491 68.1227 129.027 68.3556C134.481 69.1799 136.58 72.7834 137.378 75.6856C137.553 76.3163 137.663 76.9155 137.736 77.4441C137.744 77.4991 137.752 77.5541 137.757 77.609C138.61 84.4706 134.826 92.146 129.26 94.7786C127.902 95.4224 126.46 95.773 124.976 95.8228C124.298 95.8463 123.602 95.8044 122.906 95.7024ZM139.212 77.2269C139.17 76.9155 139.118 76.6093 139.06 76.3058C138.935 75.6777 138.773 75.0706 138.576 74.4844C138.472 74.1808 138.359 73.8799 138.236 73.5868C137.739 72.4092 137.077 71.3572 136.279 70.4517C135.431 69.4992 134.423 68.7089 133.282 68.1044C132.084 67.4711 130.726 67.0367 129.242 66.8116C125.403 66.2307 121.938 66.0501 118.651 66.2568C118.314 66.2751 117.971 66.3039 117.625 66.3327C117.261 66.3667 116.879 66.3955 116.474 66.4243C114.896 66.5421 113.101 66.6781 111.444 67.1335C110.18 67.4815 109.144 67.9761 108.312 68.633H91.7021C90.8673 67.9761 89.831 67.4815 88.567 67.1335C86.9105 66.6781 85.1179 66.5421 83.5373 66.4243C83.1343 66.3955 82.7522 66.3641 82.3859 66.3327C82.0404 66.3039 81.6976 66.2751 81.3626 66.2568C78.0732 66.0501 74.6084 66.2307 70.772 66.8116C69.5106 67.0027 68.3356 67.3455 67.2784 67.8348C67.0926 67.9186 66.9094 68.0102 66.7314 68.1044C65.5878 68.7089 64.5803 69.4966 63.7351 70.4517C63.2562 70.9934 62.827 71.5875 62.4554 72.2312C62.2015 72.663 61.9765 73.1158 61.7776 73.5868C61.652 73.8799 61.5395 74.1808 61.4348 74.487C61.2385 75.0706 61.0763 75.6777 60.9533 76.3058C60.8931 76.6093 60.8434 76.9155 60.8015 77.2243C60.5608 78.996 60.6026 80.8645 60.9271 82.7748C61.2464 84.6564 61.8221 86.4856 62.636 88.2127C63.4708 89.9844 64.5201 91.565 65.7527 92.9075C67.0638 94.3337 68.5371 95.4407 70.136 96.197C71.6748 96.9245 73.3051 97.3223 74.9878 97.3798C75.1265 97.3851 75.2652 97.385 75.4065 97.385C76.0346 97.385 76.6731 97.338 77.3117 97.2464C80.3211 96.8041 83.4117 95.3282 86.251 92.9729C88.813 90.848 91.04 88.0976 92.5212 85.2321C93.1048 84.099 93.5967 82.8481 93.9683 81.5658C94.3373 80.2809 94.5885 78.9646 94.6958 77.7032C94.8057 76.3947 94.7612 75.1622 94.5702 74.0238C95.1302 73.681 96.245 73.087 97.7053 72.7337C100.427 72.0742 103.026 72.5217 105.436 74.071C105.25 75.1936 105.211 76.4105 105.318 77.7032C105.53 80.2259 106.32 82.9711 107.49 85.2321C108.233 86.6636 109.16 88.0689 110.222 89.3799C111.284 90.691 112.48 91.9105 113.763 92.9729C115.757 94.6294 117.877 95.8489 120.004 96.5843C120.904 96.8931 121.805 97.1155 122.699 97.2464C123.338 97.338 123.977 97.3877 124.607 97.3877C124.746 97.3877 124.885 97.3851 125.023 97.3798C126.706 97.3249 128.336 96.9271 129.875 96.1996C131.474 95.4407 132.95 94.3337 134.261 92.9075C135.491 91.565 136.54 89.987 137.375 88.2127C138.192 86.4856 138.767 84.6564 139.087 82.7774C139.408 80.8645 139.45 78.9986 139.212 77.2269Z" fill="#5D8293"/>
</svg>
