<svg width="204" height="227" viewBox="0 0 204 227" fill="none" xmlns="http://www.w3.org/2000/svg">
<path d="M203.476 125.126C203.476 147.31 196.363 167.832 184.294 184.533C183.925 185.041 183.551 185.548 183.174 186.051C182.695 186.689 182.211 187.317 181.719 187.943C179.937 190.201 178.06 192.384 176.098 194.482C175.3 195.333 174.488 196.173 173.661 196.997C172.664 197.994 171.649 198.968 170.613 199.918C170.461 200.057 170.309 200.195 170.157 200.334C168.095 202.208 165.952 203.998 163.738 205.696C147.947 217.833 128.486 225.425 107.307 226.529C106.964 226.548 106.619 226.563 106.273 226.576C105.569 226.608 104.865 226.629 104.159 226.644C103.418 226.66 102.677 226.668 101.934 226.668H101.882C101.699 226.668 101.516 226.668 101.33 226.665C100.932 226.663 100.534 226.658 100.136 226.652C99.3697 226.639 98.6056 226.618 97.8466 226.587C74.2577 225.653 52.7362 216.671 35.9539 202.312C35.0353 201.527 34.1351 200.729 33.2454 199.913C32.6042 199.324 31.9709 198.725 31.3455 198.12C30.9556 197.746 30.5735 197.366 30.1888 196.984C28.5035 195.302 26.8732 193.556 25.3082 191.758C24.1987 190.481 23.1179 189.175 22.0737 187.846C21.5948 187.241 21.1264 186.632 20.6659 186.014C20.289 185.512 19.9174 185.007 19.5484 184.496C7.49489 167.8 0.392578 147.292 0.392578 125.126C0.392578 69.0458 45.8537 23.5847 101.934 23.5847C158.012 23.5847 203.476 69.0458 203.476 125.126Z" fill="#C7DFEA"/>
<path d="M181.719 187.943C179.937 190.201 178.06 192.384 176.098 194.482C175.3 195.333 174.488 196.173 173.661 196.997C172.664 197.994 171.649 198.968 170.613 199.918C170.461 200.057 170.309 200.195 170.157 200.334C168.095 202.208 165.952 203.998 163.738 205.696C146.621 218.851 125.191 226.668 101.934 226.668H101.882C101.704 226.668 101.523 226.668 101.343 226.665C76.3852 226.524 53.5605 217.378 35.9539 202.312C35.0353 201.527 34.1351 200.729 33.2454 199.913C32.6042 199.324 31.9709 198.725 31.3455 198.12C30.9556 197.746 30.5735 197.366 30.1888 196.984C28.5035 195.302 26.8731 193.556 25.3082 191.758C24.1987 190.481 23.1179 189.175 22.0737 187.846C22.9033 187.401 23.4633 187.095 23.6361 186.977C23.7434 186.901 23.8506 186.831 23.9605 186.76C24.2117 186.592 24.4682 186.43 24.7247 186.271C27.1244 184.795 29.7989 183.648 32.7769 182.9C33.3998 182.74 34.0278 182.594 34.6559 182.455C35.3572 182.301 36.0612 182.154 36.7625 182.021C37.401 181.895 38.0369 181.777 38.6676 181.665C38.7775 181.644 38.8875 181.626 38.9974 181.605C39.9682 181.435 40.9339 181.267 41.8891 181.105C43.7104 180.793 45.5894 180.623 47.4893 180.49C49.6796 180.335 51.8961 180.233 54.0786 180.021C55.1882 179.914 56.2925 179.778 57.3786 179.592C58.3494 179.43 59.3099 179.221 60.2493 178.962C62.0576 178.459 63.8607 177.844 65.6088 177.072C69.8665 175.196 73.7893 172.396 76.6731 168.036C77.5236 166.748 78.2197 165.385 78.7928 163.961C79.1383 163.098 79.4392 162.211 79.7035 161.308C80.2557 159.408 80.6351 157.432 80.9099 155.42C81.3233 152.366 81.4882 149.233 81.6374 146.164C81.674 145.4 81.7107 144.63 81.7421 143.856C81.8415 141.563 81.9201 139.226 81.9279 136.887C81.9305 136.034 81.9252 135.183 81.9043 134.333C81.8991 134.029 81.8886 133.726 81.8781 133.422C81.8598 132.862 81.8363 132.305 81.8049 131.744C81.7997 131.635 81.7918 131.501 81.7813 131.349C81.6766 129.588 81.3809 125.354 81.3495 125.126L101.874 126.843L122.399 125.126C122.37 125.349 122.082 129.47 121.975 131.273C121.962 131.457 121.954 131.616 121.946 131.744C121.896 132.608 121.862 133.477 121.846 134.351C121.844 134.372 121.844 134.398 121.844 134.422C121.825 135.241 121.82 136.065 121.82 136.887C121.82 137.277 121.825 137.669 121.831 138.059V138.083C121.865 140.81 121.985 143.523 122.113 146.164C122.116 146.247 122.121 146.329 122.126 146.412C122.27 149.445 122.44 152.536 122.857 155.548C123.087 157.21 123.39 158.848 123.806 160.436C123.84 160.578 123.877 160.719 123.916 160.858C124.207 161.907 124.544 162.938 124.945 163.938C125.521 165.367 126.219 166.741 127.075 168.036C129.961 172.396 133.882 175.196 138.142 177.072C139.887 177.844 141.688 178.459 143.499 178.962C144.765 179.312 146.071 179.566 147.395 179.752C148.039 179.846 148.685 179.922 149.337 179.99C151.386 180.199 153.469 180.304 155.534 180.44C157.68 180.581 159.807 180.752 161.859 181.105C162.791 181.264 163.733 181.424 164.677 181.592C164.704 181.597 164.725 181.602 164.751 181.605C165.35 181.712 165.949 181.822 166.551 181.934C167.284 182.076 168.017 182.222 168.749 182.382C169.493 182.541 170.233 182.712 170.971 182.9C173.965 183.654 176.65 184.805 179.057 186.292C179.277 186.428 179.494 186.566 179.709 186.708C179.738 186.723 179.764 186.742 179.79 186.76C179.994 186.896 180.69 187.32 181.719 187.943Z" fill="#ECF4FB"/>
<path d="M123.807 160.437C108.579 159.28 97.9619 155.87 88.4311 146.562C87.4942 145.648 84.9479 144.732 81.7422 143.856C81.8416 141.563 81.9202 139.226 81.928 136.887C81.9306 136.034 81.9254 135.183 81.9044 134.333C81.8992 134.029 81.8887 133.726 81.8782 133.422C81.8599 132.862 81.8365 132.305 81.8051 131.745C81.7998 131.635 81.7919 131.501 81.7814 131.349L89.2423 131.81C92.6129 132.564 96.041 133.071 99.4666 133.223C103.565 133.401 108.482 132.88 113.679 131.787L121.975 131.274L122.414 131.247C122.38 131.423 122.019 134.977 121.941 135.976C121.883 136.667 121.849 137.363 121.831 138.059V138.083C121.818 138.606 121.812 139.127 121.812 139.65C121.823 141.885 121.964 144.117 122.116 146.279C122.119 146.323 122.121 146.368 122.126 146.412C122.27 149.445 122.441 152.536 122.857 155.548C123.087 157.21 123.39 158.848 123.807 160.437Z" fill="#C0D0D8"/>
<path d="M130.239 33.0212C131.343 31.9849 132.215 30.6529 132.806 29.211C133.882 27.3713 134.638 25.304 135.062 23.2052C135.185 22.5981 135.269 21.9857 135.318 21.3707C135.779 22.4254 136.048 23.5323 135.8 24.7623C135.391 26.7747 134.143 28.405 133.17 30.14C132.549 31.2444 132.086 32.4063 131.817 33.6336C131.291 33.4321 130.765 33.2306 130.239 33.0212ZM75.0349 31.5636C74.8125 31.985 74.5429 32.367 74.2394 32.7203C75.0899 31.2077 75.3411 29.2607 74.8465 27.6278C74.8151 27.5231 74.7811 27.4184 74.7471 27.3164C75.2992 28.7661 75.7415 30.2369 75.0349 31.5636ZM72.9257 22.2395C72.7661 20.2899 73.2475 18.3273 74.1242 16.6158C74.4278 16.0244 74.7706 15.4565 75.1448 14.9096C74.7732 15.7391 74.4513 16.5922 74.1922 17.4741C73.5485 19.6802 73.4412 21.9988 73.7578 24.286C73.8547 24.9952 74.1321 25.7436 74.4304 26.5078C73.8312 25.1156 73.0539 23.8332 72.9257 22.2395ZM139.633 38.1557C136.988 36.685 135.119 34.9185 132.659 33.9581C132.979 32.4743 133.62 31.1214 134.413 29.8024C135.391 28.1695 136.459 26.5182 136.731 24.566C136.993 22.674 136.245 21.2059 135.365 19.6645C135.187 12.2979 130.173 4.91033 123.503 2.03172C120.143 0.581947 116.5 0.383087 112.938 0.901237C110.478 1.25713 108.058 1.87731 105.59 2.17826C104.439 2.31696 103.274 2.39022 102.115 2.3248C100.874 2.25414 99.6705 1.97678 98.4563 1.71509C98.3778 1.69677 98.3046 1.69939 98.2392 1.71509C96.3367 1.06871 94.3844 0.762497 92.3065 0.990166C87.18 1.5528 82.4722 4.62507 78.9681 8.84092C77.241 10.2698 75.642 11.8896 74.3284 13.6665C72.1668 16.5922 70.7981 20.5072 71.8894 24.1865C72.4729 26.1518 73.8756 27.7587 73.7055 29.9229C73.538 32.0321 70.8792 35.5387 69.1023 36.3709C51.6632 44.5435 51.7679 65.1387 51.6685 70.8854C51.4931 80.7512 58.6425 87.2831 61.3955 96.458C61.5787 97.0704 64.5777 100.886 65.088 100.595C65.266 100.493 65.3733 100.284 65.4596 100.08C66.3546 97.9417 66.5875 95.1678 67.1501 92.8885C67.7075 90.6196 65.8286 85.323 66.577 83.1379C68.0922 78.7127 70.0523 74.4994 72.3709 70.6342C74.6319 66.8685 77.2777 63.1603 80.418 60.457C81.9515 59.1355 83.6341 58.0573 85.4738 57.5496C87.1591 57.0838 88.8732 57.2147 90.5349 57.7459C96.3811 59.6144 135.904 98.2087 136.106 99.4229C136.221 100.114 140.633 96.2408 140.646 95.5708C140.646 95.4793 140.646 95.3851 140.646 95.2935C140.712 95.5525 141.057 95.6703 141.183 95.3772C141.745 94.0609 142.345 92.7655 142.947 91.4701C143.501 90.2794 144.046 88.9998 144.873 87.9923C161.422 67.8472 145.66 41.5053 139.633 38.1557Z" fill="#628B9D"/>
<path d="M145.629 92.7683C145.584 94.799 145.519 96.8323 145.328 98.8578C144.988 102.49 144.242 106.107 142.564 109.396C141.889 110.718 141.178 112.228 140.023 113.206C138.396 114.583 136.778 113.369 135.2 114.41C133.69 115.412 130.417 123.601 129.695 125.215C126.47 132.401 123.092 135.992 116.906 140.94C113.292 143.83 106.658 147.407 102.028 147.674C101.997 147.674 101.963 147.674 101.932 147.674C97.3022 147.407 90.6683 143.83 87.0544 140.94C80.868 135.992 77.3299 132.401 74.1059 125.215C73.381 123.601 70 115.412 68.49 114.41C67.0455 113.455 66.2446 114.41 64.0909 113.544C62.526 112.911 61.9974 110.888 61.2359 109.396C59.5584 106.107 58.8126 102.49 58.4724 98.8578C58.3337 97.4081 58.2631 95.9531 58.2186 94.4981C58.216 94.4562 58.2133 94.4117 58.2133 94.3698C58.2029 94.0087 58.1924 93.6475 58.182 93.2838C58.182 93.2445 58.182 93.2053 58.1793 93.166C58.1767 93.0326 58.1741 92.9017 58.1715 92.7683C58.161 92.3286 58.1375 91.8497 58.1401 91.3708C58.1427 91.308 58.1427 91.2426 58.1453 91.1798C58.1532 90.8134 58.182 90.447 58.2474 90.0964C58.2605 90.0283 58.2761 89.9629 58.2918 89.8949C58.4698 89.1307 58.8545 88.453 59.6396 88.0212C60.3487 87.6339 61.2071 87.6469 61.8665 88.1206C63.3268 89.1647 63.8476 90.9626 64.2925 92.6086C64.5175 93.4486 65.1796 95.2125 65.2058 95.7725C65.0749 92.9096 65.0697 84.0748 65.5276 81.2381C67.5479 68.7502 76.2544 60.7084 86.9576 55.1815C101.042 47.9091 118.313 90.9364 139.189 93.4487C141.083 93.6764 140.277 89.3061 141.934 88.1206C142.593 87.6469 143.454 87.6339 144.161 88.0212C145.896 88.9737 145.668 91.1222 145.629 92.7683Z" fill="#ECF4FB"/>
<path d="M184.294 184.533C183.925 185.041 183.551 185.548 183.174 186.051C182.695 186.689 182.211 187.317 181.719 187.943C179.937 190.201 178.06 192.384 176.098 194.482C175.299 195.333 174.488 196.173 173.661 196.997C172.664 197.994 171.649 198.968 170.613 199.918C170.461 200.057 170.309 200.195 170.157 200.334C168.095 202.208 165.952 203.998 163.738 205.696C147.947 217.833 128.485 225.425 107.307 226.529C106.964 226.548 106.618 226.563 106.273 226.576C105.569 226.608 104.865 226.629 104.159 226.644C103.418 226.66 102.677 226.668 101.934 226.668H101.882C101.699 226.668 101.515 226.668 101.33 226.665C100.932 226.663 100.534 226.658 100.136 226.652C99.3696 226.639 98.6055 226.618 97.8466 226.587C74.2577 225.653 52.7361 216.671 35.9538 202.312C35.0353 201.527 34.1351 200.729 33.2453 199.913C32.6042 199.324 31.9709 198.725 31.3454 198.12C30.9555 197.746 30.5734 197.366 30.1887 196.984C28.5034 195.302 26.8731 193.556 25.3082 191.758C24.1986 190.481 23.1178 189.175 22.0737 187.846C21.5948 187.241 21.1264 186.632 20.6658 186.014C20.289 185.512 19.9173 185.007 19.5483 184.496C21.1002 183.196 22.7645 182.029 24.5467 181.024C27.1714 179.54 30.1338 178.402 33.473 177.682C35.5639 177.232 37.6784 176.881 39.7719 176.564C40.7532 176.415 41.732 176.271 42.7002 176.13C48.7192 175.251 55.3897 175.672 61.283 174.277C63.1174 173.843 64.9414 173.312 66.7078 172.644C71.6486 170.784 75.6838 166.584 78.1804 162.001C78.5651 161.29 78.9053 160.57 79.2063 159.845C80.2085 157.401 80.7476 154.881 81.0721 152.303C82.4984 154.959 84.1994 157.469 86.162 159.764C87.4051 161.214 88.7397 162.577 90.1659 163.846C91.5006 165.034 92.9241 166.12 94.2928 167.272C95.6222 168.389 96.9018 169.572 97.9669 170.949C98.4798 171.613 98.9221 172.317 99.2884 173.063C99.3015 173.087 99.3147 173.113 99.3251 173.136C99.7438 174.005 100.058 174.926 100.249 175.887C100.414 176.716 100.505 177.554 100.55 178.394V178.402C100.55 178.409 100.55 178.417 100.552 178.425V178.428C100.589 179.124 100.597 179.82 100.589 180.519V180.642C100.589 180.642 100.589 180.642 100.589 180.644C100.584 181.118 100.576 181.592 100.566 182.065C100.547 182.929 100.539 183.79 100.539 184.653C100.537 184.659 100.537 184.664 100.539 184.666C100.539 186.014 100.563 187.362 100.613 188.707C100.675 190.468 100.78 192.224 100.929 193.977C100.932 194.022 100.935 194.066 100.94 194.111C100.948 194.218 100.958 194.325 100.966 194.43C100.976 194.548 100.987 194.666 100.997 194.783C101.008 194.896 101.018 195.008 101.029 195.121C101.039 195.234 101.05 195.346 101.063 195.459C101.078 195.637 101.097 195.82 101.115 196C101.12 196.042 101.123 196.084 101.128 196.129C101.128 196.144 101.131 196.16 101.133 196.176C101.144 196.293 101.157 196.411 101.17 196.529C101.173 196.55 101.173 196.568 101.175 196.589C101.356 198.272 101.573 199.947 101.83 201.619C101.832 201.621 101.83 201.621 101.83 201.624C101.845 201.734 101.861 201.841 101.879 201.949C101.884 201.99 101.892 202.03 101.897 202.069C101.903 202.03 101.911 201.99 101.918 201.949C101.921 201.925 101.926 201.901 101.929 201.878C101.929 201.87 101.929 201.867 101.932 201.862V201.854C102.607 197.5 103.023 193.111 103.182 188.707C103.264 186.496 103.277 184.282 103.232 182.065C103.19 180 103.141 177.923 103.549 175.887C103.716 175.041 103.978 174.233 104.323 173.458V173.456C104.323 173.453 104.323 173.453 104.323 173.453C104.719 172.563 105.229 171.728 105.831 170.949C106.893 169.572 108.176 168.389 109.505 167.272C110.874 166.12 112.295 165.034 113.629 163.846C115.055 162.577 116.393 161.214 117.633 159.764C119.598 157.469 121.299 154.959 122.723 152.298C123.029 154.716 123.521 157.082 124.411 159.384C124.751 160.266 125.151 161.138 125.62 162.001C128.114 166.584 132.149 170.784 137.09 172.644C138.856 173.312 140.683 173.843 142.515 174.277C148.408 175.672 155.081 175.251 161.1 176.13C162.068 176.271 163.044 176.415 164.026 176.564C166.119 176.881 168.234 177.232 170.325 177.682C173.664 178.402 176.626 179.54 179.251 181.024C181.049 182.039 182.726 183.219 184.294 184.533Z" fill="#628B9D"/>
<path d="M128.213 169.159C125.748 174.133 123.144 179.294 118.986 183.122C118.062 183.973 116.921 184.98 115.566 184.779C114.972 184.69 114.438 184.36 113.977 183.976C112.925 183.096 109.756 178.668 108.958 177.577C107.828 176.028 105.572 172.88 105.564 172.867C105.752 173.427 106.064 174.254 106.326 174.884C107.035 176.588 107.835 178.258 108.728 179.875C109.649 181.542 110.672 183.162 111.873 184.643C112.528 185.454 113.158 186.328 114.014 186.943C115.095 187.72 116.142 187.412 117.152 186.674C118.827 185.449 120.263 183.97 121.543 182.343C123.943 179.281 125.767 175.764 127.18 172.15C127.554 171.197 128.025 170.166 128.213 169.159Z" fill="#4F6F7D"/>
<path d="M75.7573 169.159C78.2251 174.133 80.8289 179.294 84.9872 183.122C85.9083 183.973 87.0493 184.98 88.4075 184.779C89.0015 184.69 89.5354 184.36 89.996 183.976C91.048 183.096 94.2171 178.668 95.0126 177.577C96.1458 176.028 98.4016 172.88 98.4094 172.867C98.221 173.427 97.9095 174.254 97.6478 174.884C96.936 176.588 96.1379 178.258 95.2455 179.875C94.3243 181.542 93.2985 183.162 92.1 184.643C91.4457 185.454 90.815 186.328 89.9593 186.943C88.8785 187.72 87.8318 187.412 86.8217 186.674C85.1442 185.449 83.7075 183.97 82.4305 182.343C80.0281 179.281 78.2041 175.764 76.791 172.15C76.4194 171.197 75.9484 170.166 75.7573 169.159Z" fill="#4F6F7D"/>
<path d="M104.983 190.065C104.965 189.047 104.944 188.029 104.907 187.011C104.836 185.004 104.703 182.994 104.399 181.019C104.234 179.935 104.017 178.849 104.036 177.737C104.054 176.64 104.323 173.456 104.323 173.456C104.323 173.456 103.282 175.327 103.143 176.245C103.007 177.156 102.976 178.093 102.939 179.014C102.858 181.013 102.863 183.013 102.887 185.012C102.931 188.961 102.819 192.941 102.426 196.869C102.209 199.047 102.052 201.187 101.426 203.244C101.332 203.558 101.712 203.767 101.853 203.49C102.651 201.92 103.447 200.339 104.041 198.63C104.334 197.79 104.575 196.916 104.729 196.019C104.897 195.045 104.972 194.053 104.999 193.059C105.022 192.062 105.001 191.062 104.983 190.065Z" fill="#4F6F7D"/>
<path d="M98.4356 189.369C98.4539 188.362 98.4748 187.357 98.5114 186.352C98.5978 183.957 98.9039 181.529 99.1891 179.134C99.32 178.048 99.3776 176.96 99.4456 175.871C99.498 175.031 99.2886 173.063 99.2886 173.063C100.39 175.146 100.668 177.216 100.72 179.537C100.788 182.565 100.699 185.509 100.83 188.537C100.937 191.005 101.162 193.643 101.414 196.102C101.631 198.254 101.665 200.164 102.008 202.38C102.055 202.702 101.72 202.899 101.578 202.624C100.778 201.075 99.9769 199.512 99.3802 197.827C99.0871 196.995 98.8463 196.134 98.6919 195.247C98.5218 194.286 98.446 193.305 98.4225 192.324C98.3963 191.34 98.4172 190.353 98.4356 189.369Z" fill="#4F6F7D"/>
</svg>
