<svg width="205" height="227" viewBox="0 0 205 227" fill="none" xmlns="http://www.w3.org/2000/svg">
<path d="M204.012 124.827C204.012 143.936 198.733 161.812 189.553 177.076C187.085 181.18 184.337 185.097 181.333 188.795C164.823 209.126 140.609 222.946 113.136 225.811C112.576 225.874 112.016 225.926 111.454 225.976C108.494 226.235 105.498 226.369 102.47 226.369C99.4421 226.369 96.4457 226.235 93.4833 225.976C92.9233 225.926 92.3607 225.874 91.8007 225.811C64.3309 222.946 40.1166 209.126 23.6064 188.795C20.6022 185.097 17.8518 181.18 15.3867 177.076C6.20655 161.812 0.928223 143.936 0.928223 124.827C0.928223 86.0286 22.6879 52.3121 54.6692 35.2184C68.9157 27.6032 85.1877 23.2853 102.47 23.2853C119.749 23.2853 136.021 27.6007 150.268 35.2159C182.252 52.3122 204.012 86.0286 204.012 124.827Z" fill="#DAEAF1"/>
<path d="M138.403 158.719C138.371 158.768 138.22 158.936 138.073 159.095C138.073 159.095 138.073 159.095 138.071 159.095C137.934 159.239 137.798 159.381 137.759 159.415C137.176 159.936 135.83 161.105 133.868 162.558C133.779 162.623 133.687 162.691 133.593 162.759C127.718 167.056 116.662 173.593 103.977 173.3C103.553 173.308 103.129 173.311 102.708 173.305C102.287 173.311 101.863 173.308 101.439 173.3C88.7547 173.593 77.6982 167.056 71.8233 162.759C71.7291 162.691 71.6375 162.623 71.5485 162.558C69.5832 161.105 68.2407 159.936 67.6572 159.415C67.5708 159.339 67.0735 158.813 67.0107 158.719C67.1992 158.583 68.3977 156.568 68.4972 156.353C70.5776 151.954 70.1615 145.995 70.4049 141.198C70.6143 137.056 70.7556 132.911 70.8576 128.765C70.9283 125.879 70.9832 122.99 71.0303 120.101C71.0591 118.358 71.0801 116.879 71.1036 115.759C71.1036 117.188 76.3846 121.689 77.6538 122.574C85.672 128.158 93.5201 133.939 102.708 134.086C111.896 133.939 119.744 128.158 127.762 122.574C129.032 121.689 134.313 117.188 134.313 115.757C134.334 116.877 134.357 118.358 134.386 120.101C134.501 127.135 134.655 134.172 135.011 141.198C135.255 145.995 134.839 151.954 136.919 156.353C137.019 156.568 138.217 158.583 138.403 158.719Z" fill="#ECF4FB"/>
<path d="M139.746 157.672V157.675C139.727 157.675 139.727 157.672 139.746 157.672Z" fill="#040606"/>
<path d="M89.1653 110.253C89.1549 110.24 89.1549 110.243 89.1653 110.253Z" fill="#B63843"/>
<path d="M138.403 158.719C138.371 158.768 138.22 158.936 138.073 159.096C138.073 159.096 138.073 159.096 138.07 159.096C104.901 160.153 91.8818 149.907 75.9578 132.89C74.474 131.304 72.7495 129.959 70.8574 128.765C70.9281 125.879 70.983 122.99 71.0301 120.101C71.0589 118.358 71.0799 116.879 71.1034 115.759C71.1034 117.188 76.3844 121.689 77.6536 122.574C85.6718 128.158 93.5199 133.939 102.708 134.086C111.896 133.939 119.744 128.158 127.762 122.574C129.032 121.689 134.312 117.188 134.312 115.757C134.333 116.877 134.357 118.358 134.386 120.101C134.501 127.135 134.655 134.172 135.011 141.198C135.255 145.995 134.838 151.954 136.919 156.353C137.018 156.568 138.217 158.583 138.403 158.719Z" fill="#C0D0D8"/>
<path d="M153.819 62.4841C153.631 61.7488 153.149 61.4138 152.568 61.3144C151.846 61.1861 150.964 61.419 150.294 61.6885C148.148 62.5521 147.243 66.5246 146.924 68.4376C146.926 68.2884 146.84 68.1628 146.821 68.011C144.88 50.2997 146.356 31.4658 118.551 25.1538C113.466 23.9997 107.874 27.085 102.47 27.5587C97.066 27.085 91.4736 23.9997 86.3889 25.1538C58.5842 31.4658 60.0602 50.2997 58.1184 68.011C58.1001 68.1628 58.0137 68.2884 58.0137 68.4376C57.6971 66.5246 56.7916 62.5521 54.6457 61.6885C53.9732 61.419 53.0939 61.1861 52.3716 61.3144C51.788 61.4138 51.3092 61.7488 51.1182 62.4841C50.8565 63.5047 51.0684 64.8132 51.1182 65.8599C51.2778 69.1363 51.8012 72.3865 52.3769 75.6132C53.073 79.5202 52.7616 82.4224 54.0386 86.1855C54.7557 88.2974 56.8387 91.4036 58.0137 93.3166C58.5921 94.2587 59.5629 95.787 60.8714 95.7294C60.9708 95.7268 62.1825 95.6247 62.3316 95.049C62.3343 95.049 62.3369 95.049 62.3369 95.049C62.4599 95.138 62.5828 95.2767 62.7084 95.4625C64.2184 97.6947 65.9351 106.634 70.7476 116.364C70.766 116.395 70.7817 116.429 70.7974 116.461C70.8759 116.618 70.9517 116.772 71.0302 116.926C71.2736 117.408 71.5248 117.892 71.7865 118.376C72.6475 119.986 75.7774 123.683 79.5771 127.582C83.8558 131.974 88.8148 137.488 94.6924 139.678C97.0163 140.544 99.7274 140.994 102.47 141C105.212 140.994 107.924 140.544 110.247 139.678C116.122 137.488 121.081 131.974 125.36 127.582C129.16 123.683 132.292 119.986 133.153 118.376C133.412 117.892 133.664 117.408 133.91 116.926C133.985 116.772 134.064 116.618 134.142 116.461C134.158 116.429 134.174 116.395 134.19 116.364C139.005 106.634 140.721 97.6947 142.231 95.4625C142.357 95.2767 142.48 95.138 142.603 95.049H142.606C142.757 95.6247 143.966 95.7268 144.068 95.7294C145.377 95.787 146.348 94.2587 146.926 93.3166C148.101 91.4036 150.184 88.2974 150.901 86.1855C152.176 82.4224 151.867 79.5202 152.56 75.6132C153.139 72.3865 153.662 69.1363 153.822 65.8599C153.871 64.8132 154.081 63.5047 153.819 62.4841Z" fill="#ECF4FB"/>
<path d="M140.907 13.6812C132.324 4.52462 117.287 -0.00780209 102.47 4.86621e-05C87.6528 -0.00780209 72.616 4.52462 64.0299 13.6812C51.0631 27.5169 53.332 50.6949 56.7601 67.7154C57.6446 71.7166 56.7627 78.0025 59.8742 84.1104C59.869 83.4509 61.29 72.7686 62.3603 69.2149C65.8304 57.69 54.5252 38.9476 81.1445 31.895C86.1926 30.5577 96.0453 32.8528 101.397 33.1668C101.434 33.1694 101.473 33.1694 101.509 33.172C101.546 33.1694 101.583 33.1694 101.622 33.1668C101.891 33.1511 102.177 33.1302 102.47 33.1041C102.763 33.1302 103.046 33.1511 103.318 33.1668C103.354 33.1694 103.394 33.1694 103.43 33.172C103.467 33.1694 103.503 33.1694 103.543 33.1668C108.892 32.8528 118.747 30.5577 123.795 31.895C150.414 38.9476 139.109 57.69 142.579 69.2149C143.65 72.7686 145.068 83.4509 145.063 84.1104C148.177 78.0025 147.292 71.7166 148.18 67.7154C151.608 50.6949 153.877 27.5169 140.907 13.6812Z" fill="#82A2B0"/>
<path d="M110.383 103.497C107.748 103.094 105.042 103.766 102.47 103.763C99.8946 103.766 97.1888 103.094 94.5535 103.497C91.0966 104.023 81.9504 110.489 82.2802 110.622C85.5304 111.915 90.3141 112.823 99.0546 110.374C99.6801 110.198 100.758 110.301 101.87 110.434C102.268 110.481 102.671 110.481 103.069 110.434C104.181 110.301 105.257 110.198 105.882 110.374C114.625 112.823 119.409 111.915 122.657 110.622C122.989 110.489 113.843 104.023 110.383 103.497Z" fill="#82A2B0"/>
<path d="M189.553 177.076C187.085 181.18 184.338 185.097 181.333 188.795C164.823 209.126 140.609 222.946 113.136 225.811C112.576 225.874 112.016 225.926 111.454 225.976C108.494 226.235 105.498 226.369 102.47 226.369C99.4421 226.369 96.4457 226.235 93.4834 225.976C92.9233 225.926 92.3607 225.874 91.8007 225.811C64.3309 222.946 40.1166 209.126 23.6064 188.795C20.6022 185.097 17.8519 181.18 15.3867 177.076C23.528 172.693 37.1935 165.711 41.3387 163.759C46.5882 161.291 51.6834 158.405 56.4331 155.071C58.8014 153.409 60.7144 151.454 62.3447 149.067C62.3918 148.997 62.4389 148.929 62.4834 148.861C62.4834 148.858 62.4834 148.858 62.4834 148.858C62.4834 148.858 62.4834 148.858 62.486 148.858C64.1896 146.354 65.8017 143.784 67.4477 141.24C68.2668 139.979 69.7191 138.443 70.5461 137.181C70.5513 137.226 70.5618 137.276 70.5801 137.336V137.338C70.6063 137.427 70.6482 137.535 70.7005 137.658C70.7005 137.66 70.7031 137.666 70.7031 137.668C70.7031 137.671 70.7058 137.671 70.7058 137.671C70.711 137.689 70.7136 137.707 70.7214 137.726C70.7241 137.739 70.7267 137.752 70.7319 137.765C70.7476 137.817 70.7607 137.872 70.779 137.93C70.7842 137.943 70.7869 137.956 70.7921 137.972C70.8026 138.014 70.8183 138.061 70.8313 138.108C70.834 138.116 70.8366 138.126 70.8392 138.134C70.8444 138.155 70.8497 138.173 70.8575 138.194C70.868 138.233 70.8811 138.275 70.8915 138.315C70.8994 138.336 70.9046 138.356 70.9098 138.377C70.9596 138.537 71.0119 138.712 71.0695 138.903C71.0878 138.956 71.1061 139.011 71.1218 139.066C71.1584 139.181 71.1951 139.301 71.2344 139.424C71.2553 139.482 71.271 139.539 71.2919 139.6C71.305 139.641 71.3207 139.686 71.3364 139.733C71.4437 140.068 71.5667 140.429 71.7054 140.819C71.729 140.882 71.7525 140.95 71.776 141.015C71.8781 141.3 71.988 141.596 72.1058 141.905C72.1529 142.028 72.1974 142.151 72.2471 142.277C72.3204 142.465 72.3963 142.656 72.4774 142.855C72.5559 143.051 72.637 143.25 72.7234 143.454C72.7522 143.522 72.7783 143.59 72.8071 143.661C72.849 143.758 72.8909 143.857 72.9354 143.959C73.1499 144.456 73.3802 144.977 73.6314 145.514C73.6838 145.629 73.7414 145.747 73.7963 145.867C73.846 145.972 73.8957 146.076 73.9481 146.181C73.9612 146.207 73.9716 146.233 73.9847 146.26C74.0292 146.349 74.0711 146.438 74.1156 146.526C74.1548 146.613 74.1993 146.697 74.2412 146.783C74.5291 147.359 74.8326 147.95 75.1623 148.552C75.2435 148.704 75.3272 148.853 75.4109 149.007C75.6438 149.426 75.8872 149.853 76.1437 150.284C76.2065 150.389 76.2667 150.494 76.3295 150.598C76.4446 150.787 76.5624 150.978 76.6775 151.172C76.8215 151.402 76.9628 151.632 77.1119 151.865C77.2376 152.064 77.3684 152.265 77.5019 152.467C77.5123 152.488 77.5254 152.509 77.5411 152.527C77.6327 152.666 77.7243 152.807 77.8185 152.946C77.9153 153.092 78.0148 153.239 78.1142 153.385C78.423 153.838 78.7449 154.293 79.0799 154.754C79.1636 154.869 79.25 154.984 79.3363 155.102C79.407 155.199 79.4777 155.296 79.5509 155.39C80.1424 156.18 80.773 156.978 81.4455 157.777C81.5633 157.918 81.6811 158.057 81.8015 158.198C81.8826 158.295 81.9664 158.389 82.0501 158.486C82.0893 158.53 82.1286 158.575 82.1679 158.617C82.249 158.713 82.3327 158.808 82.4191 158.905C82.5394 159.043 82.6624 159.182 82.788 159.318C82.8953 159.436 83.0026 159.556 83.1126 159.674C83.2329 159.805 83.3507 159.933 83.4711 160.061C83.5914 160.189 83.7144 160.315 83.8374 160.443C84.298 160.927 84.7743 161.406 85.2662 161.888C85.3055 161.922 85.3422 161.956 85.3788 161.992C85.3866 162 85.3945 162.008 85.4024 162.016C85.4442 162.058 85.4861 162.097 85.5279 162.136C85.6457 162.249 85.7635 162.361 85.8812 162.474C86.5695 163.12 87.2839 163.761 88.0324 164.392C88.1554 164.497 88.2783 164.601 88.4013 164.704C88.5426 164.821 88.6839 164.939 88.8253 165.054C89.1314 165.305 89.4403 165.551 89.7569 165.797C89.8537 165.873 89.9506 165.952 90.05 166.028C91.628 168.344 93.172 170.654 94.5694 172.813V172.816C94.5903 172.842 94.6087 172.871 94.627 172.9C94.873 173.282 95.1163 173.659 95.3545 174.033C95.4827 174.232 95.6083 174.428 95.7313 174.624C96.5975 175.99 97.9348 176.925 99.4578 177.432C100.41 177.749 101.439 177.901 102.47 177.882C103.564 177.901 104.655 177.731 105.657 177.372C107.107 176.851 108.374 175.938 109.208 174.624C109.276 174.514 109.347 174.407 109.415 174.297V174.295C109.473 174.206 109.528 174.119 109.585 174.033C109.823 173.659 110.067 173.279 110.315 172.897C110.334 172.868 110.352 172.842 110.37 172.813V172.811C111.579 170.945 113.1 169.445 114.453 167.446L114.251 166.965C114.254 166.965 114.254 166.965 114.254 166.965C114.463 166.651 114.879 166.818 115.091 166.507C129.568 155.34 134.81 137.773 134.854 137.836C134.854 137.836 134.854 137.838 134.857 137.838C135.692 138.951 136.809 140.191 137.492 141.24C138.314 142.512 139.13 143.792 139.949 145.066C140.774 146.338 141.601 147.607 142.454 148.861C142.501 148.929 142.545 148.997 142.592 149.067C142.671 149.18 142.75 149.29 142.828 149.4C142.828 149.403 142.828 149.402 142.828 149.402C144.409 151.64 146.251 153.487 148.507 155.071C153.256 158.405 158.352 161.291 163.601 163.759C167.749 165.711 181.412 172.696 189.553 177.076Z" fill="white"/>
<path d="M113.136 225.811C112.576 225.874 112.016 225.926 111.454 225.976C108.494 226.235 105.498 226.369 102.47 226.369C99.4422 226.369 96.4458 226.235 93.4834 225.976C92.9234 225.926 92.3608 225.874 91.8008 225.811C92.2849 222.273 92.7586 218.73 93.2296 215.187C94.3261 206.922 95.4173 198.653 96.4379 190.37C96.4824 189.999 96.5296 189.627 96.574 189.256C96.5662 189.237 96.5583 189.216 96.5505 189.195C96.506 189.072 96.4615 188.949 96.4144 188.829C96.2888 188.502 96.5139 188.083 96.8645 188.062C98.678 187.95 100.484 187.832 102.3 187.814C104.187 187.798 106.071 187.874 107.958 187.986C108.447 188.015 108.549 188.591 108.324 188.91C108.382 189.397 108.442 189.884 108.502 190.37C109.523 198.653 110.614 206.922 111.71 215.187C112.179 218.73 112.655 222.273 113.136 225.811Z" fill="#82A2B0"/>
<path d="M99.6306 177.241C90.6101 187.18 77.7192 200.084 75.8664 201.249C75.589 201.424 75.1964 201.28 75.1258 200.969C73.7048 194.727 64.5901 162.505 64.5796 156.316C64.5796 155.95 83.6674 179.097 84.1071 178.96C84.5441 178.824 96.4014 171.447 96.8488 172.026C97.6863 173.109 98.3954 174.271 98.9528 175.501C99.2119 176.069 99.4369 176.647 99.6306 177.241Z" fill="#ECF4FB"/>
<path d="M105.54 177.241C114.557 187.18 127.451 200.084 129.301 201.249C129.579 201.424 129.971 201.28 130.042 200.969C131.465 194.727 140.58 162.505 140.591 156.316C140.591 155.95 121.5 179.097 121.063 178.96C120.623 178.824 108.766 171.447 108.319 172.026C107.481 173.109 106.775 174.271 106.215 175.501C105.958 176.069 105.731 176.647 105.54 177.241Z" fill="#ECF4FB"/>
<path d="M107.026 171.285C106.351 171.288 104.26 171.293 102.569 171.293C100.879 171.293 98.589 171.29 97.9113 171.288C97.5109 171.285 89.9584 180.392 90.1704 180.63C91.4003 181.999 92.5335 183.449 93.5174 185.003C94.4281 186.437 95.153 187.942 95.8962 189.465C96.2338 190.161 96.6734 190.81 97.3564 191.208C98.0499 191.613 98.8612 191.823 99.6436 191.99C100.578 192.189 101.523 192.294 102.47 192.302C103.417 192.294 104.362 192.189 105.296 191.99C106.076 191.823 106.887 191.613 107.583 191.208C108.264 190.81 108.706 190.161 109.044 189.465C109.784 187.942 110.512 186.437 111.422 185.003C112.406 183.449 113.539 181.999 114.767 180.63C114.981 180.392 107.426 171.28 107.026 171.285Z" fill="#82A2B0"/>
<path d="M98.5184 171.447L77.1225 195.832C75.3142 190.137 73.5059 184.44 71.6976 178.746C69.0623 170.44 66.4245 162.134 63.7893 153.828C63.525 152.998 62.3447 148.693 62.3081 147.817C62.2636 146.665 68.6148 139.728 70.5461 137.181C70.8366 137.543 75.1755 159.169 98.5184 171.447Z" fill="white"/>
<path d="M106.916 171.447L128.315 195.832C130.12 190.137 131.929 184.44 133.737 178.746C136.375 170.44 139.01 162.134 141.648 153.828C141.909 152.998 143.092 148.693 143.126 147.817C143.173 146.665 136.822 139.728 134.888 137.181C134.6 137.543 128.244 160.969 106.916 171.447Z" fill="white"/>
</svg>
