<svg width="204" height="221" viewBox="0 0 204 221" fill="none" xmlns="http://www.w3.org/2000/svg">
<path d="M203.476 118.827C203.476 138.763 197.729 157.361 187.801 173.05C186.649 174.868 185.445 176.645 184.184 178.383C182.446 180.777 180.607 183.093 178.67 185.325C177.54 186.631 176.375 187.908 175.177 189.154C159.643 205.332 138.796 216.373 115.445 219.476C111.025 220.065 106.514 220.369 101.932 220.369C97.3389 220.369 92.8169 220.062 88.3838 219.471C65.0488 216.36 44.2155 205.321 28.6893 189.154C27.4908 187.908 26.3263 186.631 25.1957 185.325C23.2592 183.093 21.4195 180.777 19.6819 178.383C18.4231 176.645 17.2168 174.866 16.0653 173.05C6.13934 157.361 0.392578 138.763 0.392578 118.827C0.392578 82.1509 19.8337 50.0177 48.973 32.1703C64.3919 22.7285 82.5271 17.2827 101.932 17.2827C120.051 17.2827 137.061 22.0298 151.789 30.3464C182.643 47.7672 203.476 80.8634 203.476 118.827Z" fill="#DAEAF1"/>
<path d="M184.184 178.383C182.446 180.78 180.607 183.096 178.67 185.326C177.54 186.631 176.375 187.908 175.177 189.154C159.64 205.332 138.796 216.373 115.445 219.476C111.007 219.958 106.498 220.204 101.932 220.204C97.3546 220.204 92.8326 219.955 88.3839 219.474C65.0488 216.362 44.2155 205.321 28.6893 189.154C27.4908 187.908 26.3263 186.631 25.1958 185.326C23.2592 183.096 21.4195 180.78 19.6819 178.383C30.9058 173.107 46.3719 167.023 60.4456 161.491C60.5294 161.459 60.6105 161.428 60.6916 161.394C61.9242 160.902 63.06 160.491 64.3292 160.057C65.3785 159.696 68.1839 158.557 69.7462 158.013C69.9477 157.942 70.1387 157.84 70.3088 157.717C70.6386 157.479 70.9395 157.157 71.0755 156.772C71.1069 156.676 71.1331 156.576 71.1436 156.474C71.646 151.774 71.9836 145.773 72.2113 139.844C72.295 137.698 72.3631 135.56 72.4233 133.497C72.4599 132.158 72.4939 130.847 72.5227 129.585C72.6038 126.068 72.6588 122.933 72.7006 120.57C72.7033 120.353 72.7085 120.141 72.7111 119.937C72.7216 119.35 72.732 118.819 72.7399 118.351C72.7556 117.594 76.9584 123.456 77.6571 123.852C84.6207 127.806 90.5585 135.068 101.932 135.735C109.963 135.264 115.283 131.506 120.166 127.947C122.202 126.463 124.162 125.014 126.211 123.852C126.907 123.456 131.11 117.594 131.126 118.351C131.136 118.819 131.147 119.35 131.157 119.937C131.157 119.963 131.157 119.992 131.16 120.02C131.16 120.198 131.163 120.379 131.168 120.57C131.223 123.781 131.301 128.413 131.445 133.497C131.503 135.56 131.573 137.698 131.655 139.844C131.882 145.773 132.217 151.774 132.722 156.474C132.733 156.576 132.756 156.676 132.79 156.772C132.926 157.157 133.23 157.479 133.56 157.717C133.73 157.84 133.918 157.942 134.122 158.013C134.9 158.285 135.983 158.704 137.009 159.099C138.04 159.499 139.011 159.876 139.539 160.057C140.806 160.491 141.942 160.902 143.174 161.394C143.255 161.428 143.337 161.459 143.42 161.491C157.494 167.023 172.96 173.107 184.184 178.383Z" fill="#ECF4FB"/>
<path d="M137.009 159.099C104.899 159.816 92.0292 149.623 76.3381 132.854C75.1972 131.634 73.9149 130.559 72.5227 129.585C72.6038 126.068 72.6588 122.933 72.7006 120.57C72.7032 120.353 72.7085 120.141 72.7111 119.937C72.7216 119.35 72.732 118.819 72.7399 118.351C72.7556 117.594 76.9584 123.456 77.6571 123.852C84.6207 127.806 90.5585 135.068 101.932 135.735C109.963 135.264 115.283 131.506 120.166 127.947C122.843 126.264 125.484 124.391 128.143 122.538C128.671 122.169 129.907 121.167 131.16 120.02C131.16 120.198 131.163 120.379 131.168 120.57C131.223 123.781 131.301 128.413 131.445 133.497C131.503 135.56 131.573 137.698 131.655 139.843C131.882 145.773 132.217 151.774 132.722 156.474C132.733 156.576 132.756 156.676 132.79 156.772C132.926 157.157 133.23 157.479 133.56 157.717C133.73 157.84 133.918 157.942 134.122 158.013C134.9 158.285 135.983 158.704 137.009 159.099Z" fill="#C0D0D8"/>
<path d="M152.634 77.9115C151.682 81.0623 151.357 83.3835 149.895 86.3432C149.091 87.9683 148.157 89.7504 146.48 90.6271C145.171 91.3127 141.753 91.7759 141.282 89.9519C141.28 89.9519 141.28 89.9519 141.277 89.9519C140.966 90.1848 140.793 90.7789 140.683 91.6686C140.61 92.2705 140.563 93.0059 140.518 93.8537C140.283 98.4805 140.147 106.446 136.09 114.145C135.549 115.179 133.984 117.016 131.877 119.199C126.005 125.286 115.911 134.073 111.968 135.685C111.18 136.01 110.379 136.277 109.571 136.502C107.006 137.211 104.389 137.449 101.934 137.425C99.3881 137.449 96.6665 137.192 94.013 136.42C93.3012 136.214 92.5946 135.97 91.8985 135.685C88.0569 134.115 78.3742 125.73 72.4495 119.67C70.11 117.28 68.3567 115.252 67.7757 114.145C63.6803 106.373 63.5808 98.326 63.3401 93.7202C63.3139 93.1942 63.2825 92.7128 63.2459 92.2836C63.1412 91.0536 62.9685 90.2345 62.589 89.9519C62.589 89.9519 62.5864 89.9519 62.5838 89.9519C62.1127 91.7759 58.6976 91.3127 57.3866 90.6271C55.7117 89.7504 54.7749 87.9683 53.9741 86.3432C52.5112 83.3835 52.1842 81.0623 51.2316 77.9115C50.0723 74.0725 49.0465 69.7991 49.2584 65.7428C49.4468 62.1472 51.2368 57.6461 55.5573 59.4151C57.6509 60.2708 58.067 61.6657 58.3758 63.5629C58.3758 63.4111 58.3993 63.2698 58.4752 63.1363C64.4156 52.7419 61.8824 43.5016 68.7361 33.5887C72.3239 28.3993 77.7227 27.5542 84.9846 29.2761C88.63 30.1423 95.5282 30.3359 101.934 30.2182C108.338 30.3359 115.236 30.1423 118.881 29.2761C126.143 27.5542 131.542 28.3993 135.133 33.5887C141.986 43.5016 139.45 52.7419 145.391 63.1363C145.467 63.2698 145.493 63.4111 145.493 63.5629C145.802 61.6657 146.218 60.2708 148.309 59.4151C152.629 57.6461 154.419 62.1472 154.608 65.7428C154.82 69.7991 153.794 74.0725 152.634 77.9115Z" fill="#ECF4FB"/>
<path d="M152.548 34.816C151.76 28.381 149.751 22.192 146.262 17.4214C139.351 7.97428 127.263 3.31349 116.047 1.63081C103.722 -0.219349 84.6914 -0.551636 75.4825 9.25657C75.4694 9.27227 75.4563 9.2853 75.4432 9.29838C74.912 9.17277 74.3729 9.07071 73.8312 8.99744C67.5428 8.14694 59.0509 11.0726 55.5887 16.2123C50.5014 23.7673 48.0389 33.4003 47.6123 42.3475C47.3899 47.003 48.8187 50.9885 51.119 55.2253C52.697 58.1353 54.9763 60.5534 56.6145 63.4006C58.763 67.1271 60.3567 71.1728 61.2883 75.3756C61.4349 76.0272 61.5631 76.684 61.6782 77.3435C61.7437 77.7229 62.4738 66.4938 62.4398 66.2138C61.9504 62.2622 62.3298 58.2112 63.5284 54.414C63.5598 54.3198 63.5886 54.223 63.62 54.1262C63.9 55.8376 63.9393 57.5858 63.7325 59.3182C63.6854 59.7081 67.5951 53.1528 68.9219 49.8581C69.9739 47.2438 70.8872 44.5639 71.5414 41.8188C72.0386 40.3088 72.2977 38.7152 72.3762 37.1137C72.3867 37.1267 72.3945 37.1424 72.405 37.1581C74.1767 40.0995 77.686 41.6723 80.562 43.3079C85.5995 46.1786 96.6062 50.8577 96.6062 50.8577C96.6062 50.8577 94.6618 45.7835 95.7217 43.7737C102.908 49.3164 115.919 57.6198 115.919 57.6198C115.919 57.6198 112.48 50.2374 113.119 47.1835C113.006 47.7226 114.051 49.1331 114.328 49.591C114.836 50.4285 115.411 51.2215 116.029 51.9778C117.332 53.5741 118.832 55.0028 120.397 56.3427C123.728 59.1951 127.326 61.6263 130.953 64.0836C133.963 66.1221 135.316 69.7152 136.873 72.8974C138.063 75.3285 139.032 78.0422 140.502 80.3215C140.586 80.1462 140.599 79.963 140.61 79.7668C141.117 70.092 146.485 61.3227 148.385 57.8213C152.153 50.8786 153.503 42.6223 152.548 34.816Z" fill="#82A2B0"/>
<path d="M187.801 173.05C186.649 174.868 185.445 176.645 184.184 178.383C182.446 180.777 180.607 183.093 178.67 185.326C177.54 186.631 176.375 187.908 175.177 189.154C159.643 205.332 138.796 216.373 115.446 219.476C111.007 219.958 106.498 220.204 101.932 220.204C97.3547 220.204 92.8327 219.955 88.384 219.471C65.0489 216.36 44.2156 205.321 28.6895 189.154C27.4909 187.908 26.3264 186.631 25.1959 185.326C23.2593 183.093 21.4196 180.777 19.682 178.383C18.4233 176.645 17.2169 174.866 16.0654 173.05C21.3359 169.967 39.9605 160.399 44.7887 158.128C49.6954 155.82 54.4583 153.122 58.8992 150.005C61.1131 148.451 62.8978 146.624 64.4261 144.392C66.0669 141.989 67.6135 139.519 69.1941 137.077C69.9582 135.895 70.7224 134.712 71.497 133.534C71.7351 133.17 72.2219 133.241 72.4234 133.495C72.4809 133.571 72.515 133.66 72.5124 133.754C74.6975 138.504 77.5054 142.952 80.9048 146.925C82.5639 148.861 84.3513 150.688 86.2564 152.381C88.0411 153.97 89.941 155.422 91.7702 156.961C93.5471 158.452 95.256 160.036 96.6796 161.875C98.1869 163.825 99.2468 166.052 99.7283 168.473C100.27 171.192 100.21 173.971 100.152 176.729C100.092 179.689 100.108 182.648 100.215 185.606C100.432 191.53 100.995 197.445 101.908 203.301C101.916 203.356 101.926 203.408 101.932 203.461C101.942 203.408 101.95 203.356 101.958 203.301C102.869 197.445 103.434 191.53 103.651 185.606C103.758 182.648 103.774 179.689 103.714 176.729C103.659 173.971 103.596 171.192 104.138 168.473C104.622 166.052 105.679 163.825 107.187 161.875C108.61 160.036 110.322 158.452 112.096 156.961C113.925 155.422 115.828 153.97 117.612 152.381C119.515 150.688 121.302 148.861 122.959 146.925C126.361 142.952 129.169 138.504 131.356 133.754C131.354 133.66 131.388 133.571 131.445 133.495C131.644 133.241 132.131 133.17 132.372 133.534C133.144 134.712 133.908 135.895 134.672 137.077C136.253 139.519 137.799 141.989 139.443 144.392C140.968 146.624 142.756 148.451 144.97 150.005C149.408 153.122 154.171 155.82 159.077 158.128C163.906 160.399 182.535 169.97 187.801 173.05Z" fill="#82A2B0"/>
<path d="M137.103 159.478C133.806 166.128 130.328 173.023 124.77 178.142C123.537 179.278 122.011 180.625 120.198 180.353C119.405 180.236 118.693 179.796 118.076 179.28C116.67 178.105 112.436 172.188 111.371 170.728C109.858 168.658 106.841 164.453 106.831 164.435C107.084 165.183 107.5 166.29 107.851 167.13C108.801 169.409 109.866 171.642 111.062 173.801C112.292 176.028 113.661 178.192 115.262 180.173C116.139 181.256 116.982 182.426 118.125 183.248C119.57 184.284 120.967 183.873 122.318 182.886C124.558 181.248 126.478 179.275 128.187 177.098C131.396 173.005 133.832 168.308 135.721 163.477C136.219 162.202 136.849 160.826 137.103 159.478Z" fill="#5D8293"/>
<path d="M67.001 159.478C70.2983 166.128 73.7762 173.023 79.3319 178.142C80.5671 179.278 82.0927 180.625 83.9062 180.353C84.6991 180.236 85.4109 179.796 86.0259 179.28C87.4338 178.105 91.668 172.188 92.7331 170.728C94.2457 168.658 97.263 164.453 97.2709 164.435C97.0171 165.183 96.6035 166.29 96.2529 167.13C95.3029 169.409 94.2352 171.642 93.0419 173.801C91.812 176.028 90.4433 178.192 88.8418 180.173C87.9651 181.256 87.1199 182.426 85.9789 183.248C84.5344 184.284 83.1343 183.873 81.784 182.886C79.5465 181.248 77.6256 179.275 75.9168 177.098C72.7085 173.005 70.2721 168.308 68.3827 163.477C67.8855 162.202 67.2548 160.826 67.001 159.478Z" fill="#5D8293"/>
</svg>
