<svg width="204" height="232" viewBox="0 0 204 232" fill="none" xmlns="http://www.w3.org/2000/svg">
<path d="M203.547 129.519C203.547 146.841 199.208 163.149 191.559 177.422C191.14 178.202 190.711 178.979 190.272 179.749C187.788 184.108 184.985 188.267 181.903 192.192C181.562 192.626 181.217 193.058 180.869 193.487C164.024 214.232 139.155 228.201 110.989 230.668C108.6 230.878 106.185 231.006 103.748 231.048C103.4 231.053 103.052 231.058 102.702 231.061H102.665C102.445 231.061 102.225 231.061 102.006 231.061C98.9777 231.061 95.9813 230.93 93.0216 230.668C91.3442 230.522 89.6746 230.334 88.0233 230.106C87.3848 230.017 86.7463 229.923 86.1103 229.823C60.8021 225.846 38.5976 212.518 23.1421 193.487C21.9618 192.035 20.8209 190.549 19.7217 189.028C17.0891 185.396 14.692 181.583 12.5514 177.61C12.1327 176.831 11.7218 176.046 11.3241 175.253C4.37616 161.511 0.463867 145.972 0.463867 129.519C0.463867 93.6571 19.0545 62.139 47.1235 44.0718C47.8589 43.5982 48.6021 43.1349 49.3505 42.6796C54.2284 39.7146 59.3759 37.1501 64.7458 35.033H64.7485C69.7546 33.0546 74.9518 31.4661 80.3113 30.3016H80.3139C87.301 28.7811 94.5604 27.9778 102.006 27.9778C108.658 27.9778 115.161 28.6189 121.46 29.841C124.825 30.4952 128.133 31.3143 131.37 32.2904C131.373 32.2904 131.373 32.2904 131.373 32.2904C137.781 34.2217 143.921 36.7706 149.728 39.869C150.395 40.2249 151.06 40.5887 151.716 40.9603C182.651 58.3602 203.547 91.5008 203.547 129.519Z" fill="#DAEAF1"/>
<path d="M191.559 177.419C191.14 178.202 190.711 178.976 190.272 179.746C187.788 184.108 184.985 188.267 181.903 192.192C181.562 192.626 181.217 193.058 180.869 193.487C164.024 214.232 139.155 228.201 110.989 230.668C108.6 230.878 106.185 231.006 103.748 231.048C103.4 231.053 103.052 231.058 102.702 231.058H102.665C99.2447 231.037 95.8558 230.875 92.5035 230.579C91.0014 230.449 89.5097 230.289 88.0233 230.106C87.3848 230.017 86.7463 229.923 86.1104 229.823C60.8022 225.845 38.5976 212.518 23.1421 193.487C21.9619 192.035 20.8209 190.548 19.7218 189.028C17.0892 185.396 14.6921 181.58 12.5514 177.608C12.1327 176.831 11.7219 176.043 11.3241 175.253C23.1473 169.522 40.4111 162.731 56.0289 156.591C56.1153 156.56 56.2016 156.526 56.2854 156.492C56.6046 156.361 56.9213 156.241 57.2327 156.123C57.3897 156.06 57.5467 156.003 57.7011 155.945C57.8581 155.885 58.0125 155.83 58.1669 155.772C58.6458 155.594 59.1273 155.424 59.6298 155.251C59.7763 155.199 59.9255 155.147 60.0746 155.094C60.1348 155.076 60.1977 155.055 60.2683 155.029C61.0403 154.754 62.4168 154.21 63.7148 153.71C63.7828 153.687 63.8483 153.658 63.9163 153.634C63.9817 153.611 64.0471 153.584 64.1152 153.558C64.246 153.509 64.3743 153.459 64.4999 153.412C64.5862 153.38 64.6726 153.349 64.7537 153.318C64.8558 153.278 64.9604 153.239 65.0599 153.205C65.298 153.119 65.5205 153.038 65.7246 152.964C65.9392 152.891 66.1354 152.786 66.3134 152.658C66.6588 152.407 66.9728 152.075 67.1142 151.672C67.1482 151.572 67.1743 151.467 67.1848 151.363C67.2084 151.125 67.2345 150.884 67.2581 150.638C67.2764 150.465 67.2947 150.287 67.3104 150.114C67.3523 149.688 67.3942 149.254 67.4334 148.811C67.4439 148.662 67.457 148.518 67.4701 148.369C67.5093 147.906 67.5486 147.435 67.5878 146.958C67.6088 146.668 67.6297 146.372 67.6533 146.077C67.6873 145.608 67.7187 145.132 67.7553 144.653C67.7658 144.496 67.7762 144.339 67.7867 144.182C67.7867 144.179 67.7867 144.179 67.7867 144.179V144.174C67.9961 140.96 68.1636 137.524 68.2944 134.109C68.297 134.081 68.297 134.049 68.2996 134.02C68.3023 133.971 68.3022 133.921 68.3049 133.871C68.42 130.786 68.5116 127.724 68.5823 124.861C68.5875 124.644 68.5927 124.429 68.598 124.215C68.6581 121.941 68.7 119.805 68.734 117.895C68.7628 116.419 68.7864 115.079 68.8073 113.917C68.823 113.041 68.8361 112.263 68.8518 111.609C68.8649 110.816 73.2482 116.929 73.9731 117.34C74.3918 117.578 74.8079 117.827 75.2188 118.086C76.9014 119.138 78.5449 120.35 80.238 121.585C84.637 124.791 89.3684 128.156 95.9605 129.339C97.0203 129.532 98.1273 129.666 99.2918 129.734C102.796 129.53 105.805 128.724 108.493 127.58C112.201 126.01 115.297 123.804 118.241 121.661C119.934 120.428 121.572 119.214 123.25 118.157C123.7 117.874 124.155 117.599 124.608 117.34C125.335 116.929 129.719 110.816 129.734 111.609C129.747 112.263 129.763 113.041 129.779 113.917C129.797 115.045 129.821 116.335 129.847 117.756C129.884 119.646 129.928 121.763 129.983 124.016C129.988 124.317 129.996 124.623 130.004 124.929V124.932C130.075 127.821 130.169 130.912 130.289 134.02C130.289 134.049 130.289 134.078 130.292 134.107C130.423 137.538 130.59 140.989 130.802 144.219V144.221C130.831 144.622 130.857 145.017 130.886 145.407C130.912 145.799 130.941 146.189 130.97 146.574C131.03 147.343 131.09 148.094 131.155 148.827C131.174 149.047 131.192 149.261 131.213 149.471C131.226 149.633 131.242 149.795 131.26 149.957C131.271 150.094 131.286 150.232 131.299 150.371C131.331 150.706 131.365 151.036 131.401 151.363C131.412 151.467 131.438 151.572 131.472 151.672C131.613 152.075 131.927 152.407 132.273 152.658C132.448 152.786 132.647 152.891 132.862 152.964C133.063 153.038 133.286 153.119 133.524 153.205C133.631 153.242 133.741 153.281 133.851 153.325C133.88 153.336 133.908 153.346 133.94 153.357C134.031 153.391 134.126 153.425 134.217 153.462C134.466 153.556 134.722 153.655 134.981 153.755C135.568 153.98 136.164 154.213 136.711 154.425C136.803 154.459 136.892 154.495 136.978 154.527C137.122 154.582 137.261 154.634 137.394 154.684C137.452 154.707 137.507 154.725 137.562 154.749C137.564 154.749 137.564 154.749 137.567 154.752C137.603 154.765 137.64 154.778 137.674 154.791C137.784 154.833 137.886 154.872 137.983 154.906C138.09 154.945 138.192 154.982 138.284 155.019C138.313 155.026 138.341 155.037 138.37 155.047C138.373 155.047 138.378 155.05 138.381 155.053C138.402 155.06 138.428 155.068 138.449 155.074C138.47 155.081 138.491 155.089 138.509 155.094C138.682 155.155 138.852 155.215 139.019 155.272C139.817 155.55 140.576 155.825 141.351 156.123C141.508 156.18 141.665 156.241 141.822 156.303C141.982 156.364 142.141 156.429 142.301 156.492C142.385 156.526 142.471 156.56 142.557 156.591C158.997 163.055 177.252 170.239 189.078 176.148C189.942 176.579 190.769 177.001 191.559 177.419Z" fill="#ECF4FB"/>
<path d="M85.3515 113.941C85.341 113.928 85.341 113.93 85.3515 113.941Z" fill="#B63843"/>
<path d="M134.319 155.427C133.495 155.516 132.678 155.599 131.865 155.678C100.946 156.534 88.9235 149.334 74.2007 137.323C72.5259 135.957 70.5187 134.845 68.3048 133.871C68.42 130.786 68.5116 127.724 68.5822 124.861C68.5875 124.644 68.5927 124.429 68.5979 124.215C71.7591 125.874 75.0041 127.632 78.2517 128.831C80.4787 129.655 82.7083 130.213 84.917 130.294C86.7803 130.362 90.7815 129.99 95.9604 129.339C99.6529 128.875 103.947 128.271 108.493 127.58C114.711 126.638 121.397 125.536 127.662 124.429C128.444 124.291 129.219 124.155 129.983 124.016C129.988 124.317 129.996 124.623 130.004 124.929V124.932C130.075 127.821 130.169 130.911 130.289 134.02C130.289 134.049 130.289 134.078 130.292 134.107C130.423 137.537 130.59 140.989 130.802 144.218V144.221C130.831 144.621 130.857 145.017 130.886 145.407C130.912 145.799 130.941 146.189 130.97 146.574C131.03 147.343 131.09 148.094 131.155 148.827C131.174 149.047 131.192 149.261 131.213 149.471C131.226 149.633 131.242 149.795 131.26 149.957C131.271 150.093 131.286 150.232 131.299 150.371C131.331 150.706 131.365 151.036 131.401 151.363C131.412 151.467 131.438 151.572 131.472 151.671C131.613 152.074 131.927 152.407 132.273 152.658C132.448 152.786 132.647 152.891 132.862 152.964C133.063 153.037 133.286 153.119 133.524 153.205C133.631 153.242 133.741 153.281 133.851 153.325C133.88 153.336 133.908 153.346 133.94 153.357C134.023 154.053 134.141 154.749 134.319 155.427Z" fill="#C0D0D8"/>
<path d="M191.559 177.749C191.14 178.532 190.711 179.306 190.272 180.076C187.788 184.438 184.985 188.596 181.903 192.519C181.562 192.956 181.217 193.388 180.869 193.817C164.024 214.561 139.155 228.528 110.989 230.996C108.6 231.205 106.185 231.333 103.748 231.378C103.4 231.383 103.052 231.388 102.702 231.388H102.665C99.2447 231.367 95.8558 231.202 92.5035 230.909C91.0014 230.778 89.5097 230.619 88.0233 230.433C87.3848 230.347 86.7463 230.252 86.1104 230.153C60.8022 226.175 38.5976 212.847 23.1421 193.817C21.9619 192.365 20.8209 190.878 19.7218 189.358C17.0892 185.723 14.6921 181.91 12.5514 177.938C12.1327 177.158 11.7219 176.373 11.3241 175.582C23.1473 169.851 40.4111 163.06 56.0315 156.921C56.1152 156.887 56.2016 156.856 56.2854 156.819C56.6046 156.691 56.9213 156.568 57.2327 156.45C57.3897 156.39 57.5467 156.33 57.7011 156.275C57.8581 156.215 58.0125 156.157 58.1669 156.102C58.6458 155.924 59.1273 155.754 59.6298 155.579C59.7763 155.529 59.9255 155.477 60.0746 155.424C60.1348 155.403 60.1977 155.382 60.2683 155.359C61.0403 155.081 62.4168 154.54 63.7148 154.04C63.7828 154.014 63.8483 153.988 63.9163 153.964C63.9817 153.94 64.0471 153.914 64.1152 153.886C64.246 153.836 64.3743 153.789 64.4999 153.742C64.5862 153.71 64.6726 153.676 64.7537 153.645C64.8558 153.608 64.9604 153.569 65.0599 153.532C65.298 153.446 65.5205 153.365 65.7272 153.294C65.9392 153.218 66.1354 153.114 66.3134 152.985C66.6588 152.737 66.9728 152.404 67.1142 152.001C67.1482 151.902 67.1743 151.797 67.1848 151.69C67.2084 151.452 67.2345 151.211 67.2581 150.968C67.2764 150.792 67.2947 150.617 67.3104 150.442C67.3523 150.015 67.3942 149.583 67.4334 149.138C67.4439 148.992 67.457 148.845 67.4727 148.696C67.5093 148.236 67.5486 147.765 67.5878 147.288C67.6088 146.998 67.6323 146.702 67.6533 146.404C67.6873 145.935 67.7187 145.462 67.7553 144.983C67.7631 144.823 67.7762 144.664 67.7867 144.504V144.499C67.7867 144.501 67.7867 144.501 67.7867 144.504C67.7919 144.52 67.7946 144.535 67.7998 144.548C67.8364 144.677 67.8783 144.818 67.9254 144.972C68.0327 145.326 68.1609 145.742 68.3179 146.21C68.3493 146.304 68.3834 146.404 68.4148 146.503C68.7052 147.364 69.0795 148.387 69.5531 149.539C69.6421 149.753 69.7337 149.976 69.8305 150.201C70.3722 151.47 71.0291 152.878 71.8272 154.375C71.8717 154.464 71.9214 154.553 71.9685 154.642C72.0156 154.731 72.0654 154.82 72.1125 154.909C72.1779 155.027 72.2433 155.144 72.3061 155.262C72.7405 156.045 73.2142 156.851 73.7245 157.672C73.8056 157.8 73.8894 157.931 73.9705 158.062C74.0568 158.201 74.1458 158.337 74.2348 158.473C74.3081 158.586 74.3814 158.701 74.4572 158.813C74.4729 158.839 74.4886 158.863 74.5043 158.886C74.5959 159.025 74.6875 159.164 74.7817 159.303C74.9675 159.58 75.1612 159.86 75.3574 160.14C75.4543 160.279 75.5537 160.42 75.6532 160.559C75.7552 160.7 75.8573 160.841 75.9593 160.983C76.0614 161.124 76.1661 161.265 76.2708 161.407C76.3754 161.548 76.4827 161.689 76.59 161.833C76.8046 162.116 77.0244 162.401 77.2521 162.684C77.3568 162.82 77.4641 162.953 77.5714 163.089C77.608 163.134 77.6447 163.178 77.6813 163.223C77.8828 163.471 78.0895 163.72 78.2989 163.969C78.4192 164.112 78.5396 164.256 78.6626 164.398C78.6679 164.406 78.6705 164.411 78.6783 164.416C78.7961 164.555 78.9138 164.691 79.0342 164.827C79.2645 165.089 79.4974 165.35 79.7329 165.612C79.7565 165.636 79.7774 165.659 79.801 165.685C79.9318 165.827 80.0653 165.97 80.1961 166.112C80.2249 166.143 80.2537 166.175 80.2851 166.206C80.3898 166.319 80.4945 166.431 80.6018 166.541C80.8713 166.824 81.1513 167.109 81.4339 167.394C81.7296 167.69 82.0306 167.985 82.3368 168.279C82.5409 168.475 82.7502 168.671 82.9596 168.867C83.1716 169.061 83.3835 169.257 83.6007 169.451C83.8153 169.645 84.0352 169.841 84.2576 170.032C84.48 170.226 84.7025 170.419 84.9302 170.61C85.0872 170.741 85.2442 170.872 85.4038 171.003C85.5634 171.134 85.7231 171.264 85.8853 171.395C86.3695 171.785 86.8693 172.173 87.3796 172.557C87.5183 172.659 87.657 172.764 87.7983 172.869C87.8323 172.895 87.8637 172.916 87.8951 172.939C88.4133 173.319 88.9445 173.696 89.4914 174.067C89.672 174.19 89.8552 174.313 90.041 174.436C90.2085 174.549 90.3786 174.659 90.5487 174.771C90.9569 175.033 91.373 175.297 91.7943 175.556C91.9723 175.664 92.1476 175.771 92.3256 175.878C92.5061 175.985 92.6893 176.093 92.8725 176.2C93.3043 176.454 93.7439 176.705 94.194 176.948C94.3066 177.011 94.4191 177.071 94.5316 177.134C94.6468 177.194 94.7593 177.255 94.8744 177.317C95.772 177.323 97.7086 177.323 99.1793 177.323C100.854 177.323 102.921 177.317 103.589 177.315C103.607 177.315 103.644 177.336 103.691 177.372H103.693C103.746 177.344 103.801 177.317 103.853 177.291C104.013 177.213 104.172 177.132 104.327 177.048C104.431 176.996 104.533 176.943 104.636 176.888C104.819 176.794 105.002 176.695 105.182 176.595C105.248 176.559 105.313 176.524 105.379 176.488C105.428 176.459 105.478 176.433 105.528 176.407C105.544 176.396 105.562 176.388 105.575 176.378C105.635 176.347 105.693 176.313 105.753 176.278C106.022 176.129 106.287 175.978 106.549 175.821C106.771 175.69 106.988 175.559 107.205 175.423C107.336 175.347 107.464 175.266 107.593 175.187C107.873 175.012 108.15 174.837 108.422 174.659C108.485 174.617 108.545 174.575 108.605 174.536C108.658 174.504 108.71 174.47 108.76 174.434C108.812 174.4 108.862 174.366 108.912 174.332C110.128 173.515 111.28 172.657 112.376 171.767C112.489 171.678 112.601 171.586 112.711 171.495C112.931 171.312 113.151 171.128 113.366 170.943C113.473 170.851 113.58 170.762 113.687 170.665C113.933 170.453 114.177 170.239 114.412 170.021C114.488 169.956 114.562 169.891 114.632 169.823C114.747 169.718 114.86 169.616 114.97 169.511C115.082 169.406 115.192 169.302 115.305 169.197C115.344 169.158 115.386 169.119 115.425 169.082C115.566 168.946 115.705 168.812 115.844 168.676C116.043 168.485 116.236 168.292 116.427 168.098C116.621 167.902 116.812 167.708 117 167.512C117.377 167.119 117.746 166.724 118.102 166.332C118.191 166.232 118.28 166.133 118.369 166.033C118.461 165.934 118.547 165.834 118.633 165.735C118.767 165.586 118.895 165.437 119.023 165.285C119.152 165.136 119.277 164.986 119.405 164.837C119.505 164.72 119.604 164.602 119.701 164.484C119.798 164.366 119.897 164.249 119.992 164.131C120.088 164.013 120.183 163.895 120.277 163.777C120.374 163.66 120.465 163.542 120.559 163.422C120.635 163.327 120.711 163.231 120.785 163.134C120.871 163.026 120.952 162.919 121.033 162.812C121.122 162.699 121.206 162.587 121.292 162.474C121.303 162.461 121.313 162.445 121.324 162.432C121.528 162.165 121.727 161.896 121.92 161.626C121.962 161.571 122.004 161.514 122.043 161.459C123.135 159.952 124.111 158.457 124.979 157.013C125.076 156.848 125.173 156.688 125.267 156.526C125.38 156.338 125.49 156.147 125.6 155.958C125.738 155.715 125.874 155.471 126.008 155.233C126.045 155.168 126.081 155.102 126.118 155.037C126.293 154.723 126.463 154.412 126.628 154.103C126.662 154.04 126.696 153.975 126.728 153.912C126.861 153.66 126.992 153.412 127.117 153.166C127.18 153.043 127.24 152.923 127.303 152.8C127.806 151.81 128.248 150.868 128.643 149.994C128.677 149.916 128.711 149.84 128.745 149.764C128.829 149.575 128.91 149.392 128.989 149.209C129.02 149.138 129.049 149.068 129.08 149C129.14 148.861 129.195 148.725 129.253 148.589C129.303 148.476 129.35 148.364 129.394 148.254C129.593 147.775 129.771 147.328 129.933 146.911C129.944 146.893 129.952 146.872 129.957 146.851C129.988 146.773 130.017 146.697 130.048 146.621C130.072 146.558 130.093 146.498 130.116 146.438C130.14 146.378 130.164 146.317 130.184 146.26C130.331 145.873 130.459 145.519 130.572 145.208C130.588 145.166 130.601 145.124 130.616 145.082C130.632 145.038 130.645 144.996 130.658 144.957C130.661 144.951 130.663 144.944 130.669 144.936C130.669 144.93 130.671 144.925 130.674 144.92C130.7 144.844 130.729 144.766 130.752 144.695C130.758 144.677 130.765 144.661 130.771 144.643C130.781 144.611 130.792 144.58 130.802 144.551C130.802 144.548 130.805 144.548 130.805 144.546C130.831 144.946 130.857 145.344 130.886 145.736C130.915 146.129 130.941 146.519 130.97 146.904C131.03 147.673 131.09 148.424 131.155 149.157C131.174 149.374 131.195 149.591 131.213 149.801C131.226 149.963 131.244 150.125 131.26 150.285C131.271 150.423 131.286 150.562 131.299 150.701C131.331 151.036 131.365 151.365 131.401 151.69C131.414 151.797 131.438 151.902 131.472 152.001C131.613 152.404 131.927 152.737 132.273 152.985C132.448 153.114 132.647 153.218 132.862 153.294C133.063 153.365 133.286 153.446 133.524 153.532C133.631 153.571 133.741 153.611 133.851 153.655C133.969 153.697 134.094 153.744 134.217 153.791C134.466 153.886 134.722 153.985 134.981 154.084C135.568 154.309 136.164 154.54 136.711 154.752C136.803 154.788 136.892 154.822 136.981 154.854C137.122 154.911 137.261 154.961 137.394 155.013C137.452 155.037 137.507 155.055 137.562 155.079C137.564 155.079 137.564 155.079 137.567 155.081C137.603 155.095 137.64 155.108 137.674 155.121C137.784 155.16 137.886 155.199 137.983 155.236C138.09 155.273 138.192 155.312 138.284 155.348C138.313 155.356 138.341 155.367 138.37 155.377C138.373 155.377 138.378 155.38 138.381 155.38C138.402 155.388 138.428 155.398 138.449 155.403C138.47 155.411 138.491 155.419 138.509 155.424C138.682 155.484 138.852 155.542 139.019 155.602C139.817 155.88 140.576 156.154 141.351 156.45C141.508 156.51 141.665 156.57 141.822 156.633C141.982 156.693 142.141 156.756 142.301 156.819C142.387 156.856 142.471 156.887 142.557 156.921C158.997 163.382 177.252 170.568 189.078 176.477C189.942 176.907 190.769 177.331 191.559 177.749Z" fill="white"/>
<path d="M96.2718 182.878C87.3507 192.71 74.5959 205.478 72.7667 206.63C72.4893 206.802 72.102 206.658 72.0339 206.35C70.626 200.176 61.6081 168.3 61.5977 162.181C61.5977 161.817 80.484 184.713 80.9157 184.579C81.3475 184.446 93.0792 177.147 93.5214 177.718C94.3484 178.791 95.0497 179.942 95.6019 181.159C95.8584 181.719 96.0808 182.292 96.2718 182.878Z" fill="#DAEAF1"/>
<path d="M102.118 182.878C111.039 192.71 123.791 205.478 125.623 206.63C125.898 206.802 126.285 206.658 126.356 206.35C127.764 200.176 136.782 168.3 136.79 162.181C136.792 161.817 117.906 184.713 117.474 184.579C117.04 184.446 105.311 177.147 104.868 177.718C104.039 178.791 103.34 179.942 102.785 181.159C102.532 181.719 102.306 182.292 102.118 182.878Z" fill="#DAEAF1"/>
<path d="M95.1728 177.147L94.0449 178.432L87.0603 186.393L74.0071 201.27C72.2198 195.636 70.4298 190.002 68.6425 184.367C66.2951 176.972 63.9477 169.577 61.5977 162.181C61.3386 161.359 61.077 160.54 60.8179 159.719C60.7237 159.418 60.5065 158.659 60.2683 157.774C60.0459 156.953 59.8077 156.024 59.6298 155.252C59.4728 154.579 59.3629 154.027 59.3524 153.77C59.3079 152.632 65.5912 145.77 67.5015 143.25C67.5355 143.292 67.6219 143.614 67.7841 144.172C67.826 144.313 67.8731 144.47 67.9254 144.643C69.4223 149.596 75.3732 166.591 94.8745 176.99C94.9739 177.043 95.0733 177.095 95.1728 177.147Z" fill="white"/>
<path d="M139.302 153.77C139.289 154.029 139.179 154.592 139.019 155.272C138.841 156.047 138.6 156.976 138.381 157.795C138.145 158.672 137.931 159.42 137.836 159.719C137.467 160.878 137.101 162.037 136.732 163.196C134.492 170.254 132.252 177.31 130.012 184.367C128.224 190.002 126.434 195.636 124.647 201.27L110.796 185.485L104.463 178.265L103.481 177.147C103.552 177.113 103.623 177.079 103.691 177.043C121.698 168.082 128.837 149.79 130.661 144.629C130.713 144.48 130.76 144.344 130.805 144.219C131.006 143.632 131.119 143.292 131.153 143.25C133.063 145.77 139.346 152.632 139.302 153.77Z" fill="white"/>
<path d="M152.198 81.3105C151.206 84.5974 150.866 87.0206 149.34 90.106C148.503 91.8017 147.529 93.6597 145.781 94.573C144.415 95.2874 140.851 95.7689 140.362 93.8691C140.359 93.8691 140.359 93.8691 140.356 93.8691C140.032 94.1098 139.851 94.7327 139.736 95.659C139.658 96.2871 139.611 97.0538 139.566 97.9384C139.482 99.5373 139.414 101.516 139.202 103.743C138.778 108.236 137.776 113.729 134.947 119.099C134.382 120.177 132.749 122.09 130.554 124.367C124.427 130.715 113.905 139.88 109.791 141.562C108.969 141.897 108.134 142.18 107.292 142.413C104.617 143.151 101.888 143.399 99.3258 143.376C96.6723 143.399 93.8355 143.133 91.0668 142.329C90.3262 142.112 89.5883 141.858 88.8634 141.562C84.8543 139.924 74.7608 131.178 68.5796 124.859C66.1433 122.367 64.3141 120.253 63.707 119.099C60.9854 113.936 59.9569 108.655 59.5016 104.261C59.2425 101.759 59.1718 99.5426 59.0802 97.7997C59.0541 97.2501 59.0227 96.7477 58.9834 96.3002C58.8709 95.0153 58.6929 94.1622 58.2978 93.8691C58.2978 93.8691 58.2952 93.8691 58.2925 93.8691C57.8032 95.7689 54.2389 95.2874 52.8729 94.573C51.1248 93.6597 50.1487 91.8017 49.3113 90.106C47.7882 87.0206 47.448 84.5974 46.4536 81.3105C45.2446 77.3092 44.1769 72.8526 44.3967 68.6211C44.593 64.8736 46.4615 60.1789 50.9652 62.0238C53.1477 62.9162 53.5795 64.3685 53.904 66.3496C53.9013 66.1925 53.9301 66.0434 54.006 65.9047C60.2029 55.0654 57.5598 45.4273 64.7066 35.0905C68.4488 29.6787 74.0804 28.7994 81.6538 30.5946C85.4561 31.4975 92.6474 31.699 99.3258 31.576C106.004 31.699 113.198 31.4975 117 30.5946C124.574 28.7994 130.205 29.6787 133.948 35.0905C141.094 45.4273 138.451 55.0654 144.646 65.9047C144.724 66.0434 144.753 66.1925 144.75 66.3496C145.075 64.3685 145.507 62.9162 147.689 62.0238C152.193 60.1789 154.061 64.8736 154.258 68.6211C154.477 72.8526 153.41 77.3092 152.198 81.3105Z" fill="#ECF4FB"/>
<path d="M117.861 122.386C116.76 123.278 115.653 124.163 114.543 125.047C113.478 125.898 112.389 126.74 111.149 127.342C108.624 128.567 105.766 128.373 103.055 128.002C101.809 127.832 100.569 127.633 99.3257 127.491C98.0827 127.633 96.8423 127.832 95.5966 128.002C92.8881 128.373 90.0278 128.567 87.5025 127.342C86.2647 126.74 85.176 125.898 84.1083 125.047C82.9988 124.163 81.8918 123.278 80.7875 122.386C80.5362 122.182 82.9281 115.998 85.0112 114.436C86.9948 112.949 89.4076 111.989 91.9224 111.905C93.4664 111.855 94.9842 112.151 96.4942 112.413C97.4049 112.572 98.313 112.703 99.2289 112.771C100.145 112.703 101.055 112.572 101.964 112.413C103.479 112.151 104.994 111.855 106.541 111.905C109.053 111.989 111.466 112.949 113.449 114.436C115.532 115.998 118.115 122.182 117.861 122.386ZM135.269 110.651C133.662 113.174 131.836 115.535 129.847 117.759C128.13 119.688 126.288 121.514 124.367 123.262C123.914 123.673 123.459 124.079 122.998 124.484C123.362 122.959 123.446 121.355 123.375 119.803C123.352 119.256 123.312 118.706 123.25 118.159C123.106 116.893 122.836 115.639 122.292 114.477C121.601 112.999 120.476 111.779 119.214 110.738C117.929 109.683 116.498 108.814 115.074 107.951C113.462 106.969 111.814 105.999 110.008 105.386C108.31 104.813 106.441 104.583 104.672 104.965C103.795 105.156 102.995 105.514 102.238 105.98C101.545 106.412 100.851 106.917 100.032 107.1C99.7654 107.161 99.4958 107.184 99.2289 107.179C98.962 107.184 98.6977 107.161 98.4281 107.1C97.6116 106.917 96.9182 106.412 96.2221 105.98C95.4658 105.514 94.665 105.156 93.7883 104.965C92.0193 104.583 90.1508 104.813 88.455 105.386C86.6494 105.999 85.0007 106.969 83.3861 107.951C81.9625 108.814 80.531 109.683 79.2461 110.738C77.9848 111.779 76.8568 112.999 76.1686 114.477C75.6374 115.616 75.3652 116.843 75.2187 118.086C75.1506 118.657 75.1114 119.232 75.0852 119.803C75.0146 121.355 75.0983 122.959 75.462 124.484C75.0041 124.079 74.5487 123.673 74.0934 123.262C72.2171 121.559 70.4192 119.774 68.7339 117.895C66.698 115.631 64.8321 113.224 63.1913 110.651C61.8201 108.498 60.5142 106.132 59.5041 104.266C59.5041 104.264 59.5015 104.264 59.5015 104.264C59.5145 104.4 59.5303 104.536 59.546 104.677C59.5617 104.816 59.5773 104.954 59.5957 105.096C59.6087 105.237 59.6271 105.378 59.6454 105.52C59.6637 105.661 59.682 105.805 59.703 105.949C59.7396 106.237 59.7815 106.527 59.8259 106.82C59.8469 106.967 59.8705 107.116 59.894 107.263C59.9411 107.558 59.9934 107.857 60.0458 108.158C60.0667 108.265 60.085 108.375 60.106 108.482C60.1243 108.584 60.1452 108.684 60.1635 108.786C60.2159 109.058 60.2735 109.333 60.3336 109.605C60.3572 109.733 60.386 109.861 60.4148 109.989C60.4514 110.144 60.4854 110.298 60.5221 110.453C60.5221 110.458 60.5247 110.463 60.5247 110.468C60.5613 110.617 60.5979 110.769 60.6346 110.921C60.6738 111.078 60.7131 111.235 60.755 111.392C60.8361 111.706 60.9224 112.02 61.014 112.339C61.0585 112.496 61.1056 112.656 61.1527 112.816C61.1894 112.941 61.2286 113.064 61.2653 113.187C61.3778 113.543 61.4929 113.899 61.6185 114.255C61.6735 114.417 61.7284 114.577 61.7886 114.739C61.8436 114.899 61.9038 115.058 61.964 115.221C62.0242 115.383 62.0896 115.545 62.1524 115.705C62.1943 115.815 62.2388 115.925 62.2832 116.034C62.3199 116.126 62.3591 116.218 62.3984 116.309C62.4062 116.335 62.4167 116.362 62.4298 116.385C62.469 116.482 62.5083 116.579 62.5502 116.676C62.6182 116.835 62.6889 116.995 62.7621 117.157C62.7621 117.16 62.7621 117.162 62.7674 117.165C62.8328 117.314 62.9008 117.466 62.9715 117.615C63.05 117.788 63.1311 117.958 63.2149 118.131C63.2934 118.293 63.3745 118.453 63.4556 118.615C63.5367 118.777 63.6231 118.939 63.7069 119.099V119.102C63.7252 119.138 63.7461 119.175 63.767 119.211C63.788 119.248 63.8089 119.287 63.8351 119.327C63.8822 119.408 63.9319 119.489 63.9895 119.575V119.578C64.0418 119.656 64.0942 119.735 64.1543 119.819C64.191 119.874 64.2328 119.931 64.2747 119.989C64.3087 120.036 64.3428 120.085 64.382 120.135C64.4919 120.287 64.6123 120.444 64.7405 120.606C64.8688 120.771 65.0048 120.941 65.154 121.117C65.2508 121.234 65.3529 121.355 65.455 121.478C65.5596 121.601 65.6695 121.726 65.7821 121.854C65.8658 121.951 65.9522 122.053 66.0438 122.153C66.363 122.514 66.7084 122.891 67.0748 123.286C67.2083 123.43 67.3444 123.574 67.4831 123.72C67.6244 123.87 67.7657 124.019 67.9096 124.168C68.0169 124.283 68.1294 124.398 68.242 124.513C68.3519 124.626 68.4644 124.744 68.5795 124.861C68.5822 124.861 68.5822 124.861 68.5822 124.864C68.8726 125.157 69.171 125.458 69.4745 125.764C69.6786 125.966 69.8828 126.172 70.0921 126.379C70.0948 126.382 70.0974 126.382 70.1 126.387C70.3093 126.591 70.5213 126.8 70.7359 127.007C70.8432 127.112 70.9505 127.217 71.0604 127.321C71.2253 127.481 71.3927 127.64 71.5602 127.805C71.8088 128.046 72.0653 128.287 72.3217 128.528C72.4473 128.651 72.5782 128.771 72.7064 128.894C72.8373 129.014 72.9655 129.137 73.0964 129.26C73.3293 129.472 73.5595 129.69 73.7924 129.904C74.028 130.124 74.2661 130.341 74.5069 130.558C74.622 130.666 74.7398 130.773 74.8575 130.88C74.9779 130.988 75.0957 131.097 75.2161 131.202C75.3338 131.312 75.4542 131.419 75.5746 131.527C75.695 131.634 75.8153 131.744 75.9357 131.849C76.0875 131.987 76.2445 132.123 76.3989 132.259C76.4041 132.265 76.4094 132.27 76.4146 132.275C76.4957 132.348 76.5769 132.419 76.6606 132.492C76.7784 132.597 76.8987 132.704 77.0165 132.806C77.1369 132.914 77.2599 133.016 77.3803 133.123C77.5006 133.228 77.621 133.332 77.7414 133.437C77.7492 133.442 77.7545 133.45 77.7623 133.455C77.7702 133.463 77.778 133.471 77.7859 133.476C77.8906 133.568 77.9978 133.659 78.1025 133.746C78.2229 133.85 78.3433 133.953 78.461 134.055C78.7018 134.261 78.9399 134.465 79.1781 134.667C79.2984 134.766 79.4188 134.866 79.5366 134.965C79.6282 135.041 79.7198 135.12 79.8114 135.196C79.9029 135.271 79.9945 135.347 80.0835 135.423C80.1385 135.468 80.1908 135.512 80.2431 135.557C80.3635 135.653 80.4813 135.75 80.5964 135.845C80.654 135.894 80.7142 135.939 80.7718 135.988C80.8293 136.036 80.8869 136.083 80.9445 136.13C81.0596 136.224 81.1748 136.316 81.2899 136.407C81.2899 136.412 81.2899 136.412 81.2925 136.412C81.5228 136.596 81.7505 136.779 81.9729 136.957C81.9729 136.957 81.9729 136.957 81.9782 136.959C82.0462 137.012 82.1116 137.067 82.1797 137.119C82.3367 137.242 82.4937 137.362 82.6481 137.483V137.485C82.7031 137.53 82.758 137.572 82.8156 137.614C82.8705 137.655 82.9255 137.7 82.9778 137.742C83.0877 137.823 83.195 137.909 83.3023 137.99H83.3049V137.993C83.4149 138.074 83.5195 138.155 83.6268 138.234C83.7341 138.315 83.8388 138.393 83.9461 138.472C84.0508 138.553 84.1554 138.629 84.2575 138.707C84.3622 138.781 84.4642 138.857 84.5663 138.93C84.773 139.079 84.9719 139.223 85.1708 139.359C85.1996 139.38 85.231 139.401 85.2598 139.422C85.2781 139.438 85.299 139.451 85.3174 139.466C85.3645 139.5 85.4142 139.534 85.4639 139.566C85.5476 139.626 85.6314 139.681 85.7151 139.739C85.7282 139.746 85.7387 139.757 85.7492 139.762C85.9402 139.893 86.126 140.016 86.3065 140.136C86.5787 140.314 86.8404 140.479 87.0916 140.634C87.178 140.683 87.2591 140.733 87.3402 140.783C87.4083 140.822 87.4763 140.859 87.5391 140.895C87.6045 140.934 87.67 140.971 87.7328 141.005C87.8113 141.047 87.8872 141.089 87.9631 141.131C87.9788 141.139 87.9945 141.146 88.0128 141.157C88.0259 141.165 88.0416 141.173 88.0573 141.18C88.0756 141.191 88.0965 141.201 88.1148 141.212C88.1279 141.217 88.1384 141.222 88.1541 141.228C88.2143 141.262 88.2745 141.293 88.3347 141.322C88.3373 141.322 88.3399 141.324 88.3425 141.324C88.3451 141.327 88.3477 141.327 88.3504 141.327C88.3661 141.337 88.3844 141.345 88.4001 141.353C88.4079 141.358 88.4184 141.364 88.4263 141.366C88.4577 141.382 88.4891 141.395 88.5178 141.411C88.5545 141.426 88.5885 141.442 88.6225 141.46C88.6278 141.46 88.6304 141.463 88.6356 141.463C88.6461 141.468 88.6592 141.474 88.6723 141.479C88.7037 141.494 88.735 141.508 88.7665 141.521C88.8005 141.534 88.8319 141.549 88.8633 141.563C88.9523 141.599 89.0438 141.636 89.1354 141.672C89.3186 141.743 89.5018 141.811 89.685 141.879C89.8682 141.945 90.0514 142.007 90.2372 142.07C90.4203 142.13 90.6061 142.188 90.7893 142.246C90.8835 142.274 90.9751 142.3 91.0693 142.329C93.8354 143.133 96.6722 143.4 99.3257 143.376C99.7392 143.379 100.158 143.376 100.582 143.366C100.888 143.358 101.197 143.345 101.511 143.326C101.545 143.326 101.579 143.321 101.616 143.321C101.668 143.318 101.72 143.316 101.773 143.311C101.841 143.308 101.909 143.303 101.977 143.298C101.982 143.298 101.99 143.298 101.995 143.298C102.058 143.29 102.118 143.287 102.181 143.282C102.278 143.274 102.377 143.266 102.471 143.258C102.492 143.258 102.511 143.256 102.531 143.256C102.639 143.245 102.749 143.232 102.856 143.222C102.895 143.219 102.934 143.216 102.974 143.211C103.047 143.206 103.118 143.195 103.191 143.188C103.201 143.188 103.217 143.185 103.228 143.185C103.248 143.18 103.267 143.18 103.288 143.177C103.379 143.167 103.468 143.156 103.56 143.146C103.725 143.122 103.89 143.101 104.054 143.078C104.07 143.078 104.086 143.075 104.104 143.072C104.151 143.067 104.201 143.059 104.248 143.052C104.28 143.046 104.314 143.041 104.345 143.036C104.413 143.025 104.478 143.015 104.546 143.004C104.656 142.989 104.766 142.968 104.876 142.949C104.921 142.942 104.963 142.936 105.007 142.929C105.093 142.91 105.182 142.897 105.271 142.879C105.332 142.868 105.392 142.855 105.452 142.842C105.46 142.842 105.468 142.84 105.475 142.84C105.578 142.819 105.68 142.798 105.784 142.777C105.805 142.772 105.824 142.769 105.844 142.764C105.912 142.751 105.981 142.735 106.046 142.719C106.14 142.701 106.234 142.677 106.329 142.656C106.35 142.651 106.368 142.649 106.389 142.643C106.53 142.609 106.669 142.575 106.81 142.539C106.97 142.499 107.132 142.455 107.292 142.41C108.134 142.18 108.966 141.897 109.791 141.563C110.039 141.46 110.312 141.327 110.607 141.175C110.657 141.149 110.707 141.123 110.756 141.094C110.804 141.071 110.851 141.042 110.898 141.016C110.947 140.989 110.995 140.963 111.042 140.937C111.05 140.932 111.057 140.929 111.065 140.924C111.102 140.903 111.144 140.879 111.183 140.856C111.225 140.832 111.264 140.806 111.303 140.783C111.377 140.743 111.447 140.702 111.518 140.657C111.636 140.586 111.756 140.513 111.876 140.437C111.905 140.419 111.934 140.401 111.963 140.38C111.976 140.374 111.989 140.367 111.999 140.359C112.067 140.317 112.133 140.278 112.198 140.233C112.217 140.22 112.235 140.207 112.253 140.196C112.274 140.183 112.293 140.173 112.311 140.157C112.348 140.134 112.387 140.107 112.423 140.084C112.518 140.024 112.612 139.958 112.709 139.896C112.803 139.833 112.894 139.767 112.989 139.704C113.295 139.495 113.611 139.273 113.939 139.037C114.033 138.969 114.127 138.898 114.224 138.83C114.253 138.809 114.279 138.789 114.308 138.768C114.31 138.768 114.31 138.768 114.31 138.768C114.331 138.752 114.352 138.739 114.373 138.721C114.431 138.681 114.486 138.639 114.543 138.598C114.648 138.519 114.758 138.438 114.865 138.354C114.988 138.263 115.111 138.171 115.234 138.077C115.239 138.072 115.247 138.069 115.255 138.064C115.346 137.993 115.438 137.925 115.53 137.854C115.632 137.773 115.736 137.695 115.838 137.614C115.849 137.608 115.857 137.6 115.867 137.593C115.998 137.491 116.129 137.388 116.262 137.284C116.396 137.179 116.532 137.072 116.665 136.965C116.744 136.904 116.822 136.842 116.901 136.779C116.917 136.766 116.932 136.753 116.948 136.742C116.961 136.732 116.977 136.721 116.99 136.708C117.034 136.674 117.076 136.637 117.121 136.603C117.165 136.569 117.21 136.533 117.252 136.496H117.254C117.725 136.119 118.204 135.727 118.688 135.324C118.809 135.224 118.929 135.122 119.049 135.02C119.175 134.918 119.295 134.816 119.418 134.714C119.539 134.612 119.662 134.507 119.785 134.403H119.787C119.908 134.301 120.031 134.196 120.154 134.091V134.089C120.368 133.905 120.586 133.722 120.803 133.534C121.078 133.296 121.358 133.055 121.635 132.809C121.679 132.77 121.724 132.73 121.768 132.691C121.813 132.654 121.857 132.615 121.902 132.573C121.936 132.545 121.97 132.513 122.004 132.479C122.069 132.427 122.13 132.372 122.192 132.317C122.253 132.265 122.315 132.207 122.378 132.155C122.501 132.045 122.622 131.935 122.747 131.825C122.87 131.715 122.993 131.605 123.116 131.495C123.323 131.309 123.53 131.121 123.736 130.935C123.776 130.901 123.815 130.867 123.851 130.831C123.93 130.757 124.011 130.687 124.09 130.613C124.131 130.574 124.176 130.535 124.218 130.496C124.461 130.273 124.702 130.051 124.943 129.828H124.945C125.063 129.718 125.183 129.608 125.304 129.496C125.364 129.441 125.422 129.386 125.482 129.331C125.542 129.273 125.602 129.219 125.66 129.164C125.709 129.116 125.757 129.075 125.804 129.03C125.872 128.962 125.945 128.897 126.013 128.831H126.016C126.073 128.774 126.133 128.719 126.191 128.664C126.251 128.609 126.309 128.554 126.366 128.496C126.4 128.467 126.432 128.436 126.463 128.407C126.471 128.399 126.479 128.394 126.487 128.386C126.68 128.206 126.869 128.023 127.06 127.837C127.175 127.729 127.288 127.62 127.4 127.51C127.515 127.4 127.628 127.292 127.738 127.185C127.96 126.968 128.182 126.751 128.4 126.539C128.507 126.431 128.617 126.324 128.724 126.22C128.855 126.091 128.983 125.963 129.111 125.835L129.412 125.531C129.42 125.523 129.428 125.516 129.436 125.51C129.446 125.495 129.46 125.482 129.473 125.471C129.486 125.458 129.499 125.445 129.512 125.434C129.643 125.301 129.771 125.17 129.899 125.042C129.933 125.005 129.97 124.969 130.004 124.932C130.048 124.885 130.093 124.84 130.137 124.796C130.143 124.791 130.148 124.785 130.153 124.78C130.19 124.744 130.229 124.704 130.263 124.668C130.268 124.662 130.276 124.655 130.281 124.647C130.334 124.594 130.389 124.539 130.441 124.484C130.454 124.469 130.47 124.453 130.483 124.437C130.506 124.414 130.53 124.393 130.551 124.367C130.671 124.244 130.792 124.118 130.907 123.998C131.024 123.875 131.14 123.754 131.252 123.634C131.299 123.584 131.349 123.532 131.396 123.48C131.446 123.43 131.493 123.38 131.54 123.328C131.666 123.194 131.789 123.061 131.909 122.93C132.029 122.799 132.147 122.671 132.262 122.543C132.32 122.48 132.375 122.417 132.432 122.354C132.487 122.291 132.542 122.229 132.597 122.169C132.652 122.106 132.707 122.043 132.759 121.983C132.814 121.923 132.867 121.862 132.916 121.805C132.995 121.713 133.073 121.622 133.149 121.533C133.152 121.53 133.155 121.53 133.155 121.525C133.194 121.483 133.231 121.438 133.267 121.394C133.314 121.342 133.361 121.284 133.406 121.232C133.479 121.143 133.55 121.056 133.62 120.973C133.634 120.952 133.649 120.933 133.665 120.915C133.707 120.865 133.746 120.813 133.788 120.763C133.822 120.721 133.856 120.679 133.887 120.638C133.929 120.588 133.968 120.538 134.005 120.488C134.065 120.407 134.126 120.334 134.18 120.258C134.269 120.143 134.351 120.031 134.429 119.923C134.442 119.902 134.455 119.887 134.468 119.868C134.484 119.842 134.502 119.816 134.521 119.79C134.529 119.782 134.531 119.774 134.539 119.766C134.563 119.73 134.583 119.698 134.607 119.664C134.662 119.58 134.714 119.502 134.761 119.426C134.808 119.348 134.853 119.274 134.892 119.206V119.204C134.913 119.167 134.932 119.136 134.95 119.102C135.125 118.767 135.295 118.429 135.457 118.091C135.701 117.589 135.931 117.084 136.146 116.579C136.146 116.576 136.146 116.576 136.146 116.576C136.214 116.417 136.279 116.257 136.345 116.1C136.366 116.048 136.387 115.998 136.405 115.948C136.525 115.655 136.638 115.359 136.745 115.066C136.808 114.899 136.868 114.731 136.928 114.564C136.988 114.399 137.046 114.231 137.104 114.064C137.164 113.883 137.221 113.705 137.279 113.527C137.384 113.211 137.48 112.894 137.572 112.578C137.575 112.572 137.575 112.564 137.577 112.557C137.624 112.397 137.671 112.235 137.716 112.075C137.76 111.91 137.805 111.745 137.849 111.58C137.894 111.418 137.936 111.256 137.975 111.091C138.098 110.612 138.208 110.139 138.31 109.67C138.313 109.66 138.313 109.649 138.315 109.639C138.383 109.319 138.449 109.003 138.509 108.686C138.556 108.443 138.6 108.199 138.642 107.959C138.674 107.77 138.708 107.584 138.736 107.399C138.768 107.21 138.797 107.022 138.825 106.836C138.849 106.679 138.873 106.522 138.894 106.368C138.912 106.247 138.928 106.129 138.943 106.009C138.967 105.849 138.988 105.687 139.006 105.528C139.032 105.323 139.056 105.122 139.079 104.923C139.126 104.523 139.166 104.127 139.202 103.743C138.09 105.831 136.674 108.443 135.269 110.651Z" fill="#82A2B0"/>
<path d="M99.3519 0.863753C68.9957 1.00768 38.6394 18.3788 49.0862 54.4897C51.4859 62.7853 53.1214 66.5772 56.3193 71.6906C56.6647 72.2428 60.946 55.9447 61.8724 53.2074C64.1491 46.4819 71.8507 36.6292 79.7329 36.132C86.4845 35.708 92.5453 37.3724 99.3519 36.9903C106.159 37.3724 112.219 35.708 118.971 36.132C126.853 36.6292 134.555 46.4819 136.831 53.2074C137.758 55.9447 142.039 72.2428 142.385 71.6906C145.582 66.5772 147.215 62.7853 149.618 54.4897C160.064 18.3788 129.708 1.00768 99.3519 0.863753Z" fill="#82A2B0"/>
</svg>
