<svg width="204" height="227" viewBox="0 0 204 227" fill="none" xmlns="http://www.w3.org/2000/svg">
<path d="M203.547 124.827C203.547 143.784 198.353 161.527 189.306 176.71C189.246 176.812 189.185 176.914 189.125 177.016C188.644 177.817 188.149 178.615 187.647 179.403C187.576 179.518 187.5 179.633 187.427 179.746C184.742 183.914 181.761 187.874 178.511 191.592C177.582 192.657 176.632 193.702 175.659 194.725C175.415 194.981 175.172 195.235 174.926 195.486C174.533 195.895 174.136 196.3 173.735 196.698C172.989 197.441 172.233 198.177 171.464 198.896C153.891 215.38 130.451 225.683 104.615 226.337C104.403 226.34 104.193 226.345 103.981 226.35C103.939 226.35 103.898 226.35 103.856 226.35C103.657 226.356 103.461 226.358 103.264 226.361C102.848 226.366 102.437 226.369 102.021 226.369C101.179 226.369 100.333 226.358 99.4933 226.337C73.6198 225.709 50.1408 215.401 32.5499 198.896C31.7753 198.169 31.0138 197.433 30.2627 196.682C29.6504 196.073 29.0432 195.45 28.4466 194.824V194.822C28.4125 194.79 28.3838 194.756 28.3524 194.725C27.3815 193.699 26.4289 192.657 25.4999 191.592C21.8598 187.424 18.5546 182.959 15.6289 178.233C15.5923 178.173 15.553 178.113 15.5164 178.052C14.993 177.205 14.4827 176.346 13.9829 175.48C13.9541 175.43 13.9227 175.375 13.8939 175.323C5.34966 160.451 0.463867 143.211 0.463867 124.827C0.463867 89.7158 18.2851 58.7655 45.3728 40.5308C61.5532 29.6418 81.0362 23.2827 102.006 23.2827C121.462 23.2827 139.639 28.7574 155.087 38.2463C184.158 56.1068 203.547 88.2033 203.547 124.827Z" fill="#DAEAF1"/>
<path d="M41.3349 63.5412C42.1173 52.8616 43.9335 42.305 48.4581 32.502C51.5539 25.7975 55.6311 20.3751 60.1374 16.1802C62.3932 14.0815 64.6882 11.8492 67.2083 10.7187C80.989 4.53496 89.9415 11.3547 89.5123 10.8209C82.9177 2.67962 72.2433 5.95331 68.1347 7.47897C68.0169 7.52346 67.9646 7.38476 68.051 7.29579C71.3666 3.90688 77.7048 1.52814 78.8589 1.25336C92.7416 -2.04919 117.812 0.413373 128.188 17.9258C128.211 17.9703 128.264 17.9886 128.311 17.9703C128.884 17.7557 129.462 17.5855 130.046 17.4625C141.644 14.9764 152.167 28.3646 156.683 42.6451C157.751 46.0236 158.67 49.5695 159.413 53.2227C159.434 53.3274 159.298 53.3903 159.232 53.3065C158.125 51.8594 156.029 47.2483 151.677 45.1914C151.565 45.1391 151.473 45.2935 151.575 45.3667C153.221 46.5443 156.081 49.4884 157.919 56.3474C157.919 56.35 157.919 56.3552 157.919 56.3578C160.491 70.4159 160.454 85.8243 156.409 99.0135C154.027 106.781 145.967 127.397 146.265 140.84C146.268 140.924 146.15 140.955 146.093 140.892C143.491 138.087 143.348 131.476 143.287 131.539C139.163 135.747 142.398 144.865 142.343 144.849C97.6457 133.502 60.3703 144.558 60.4017 144.514C64.3323 138.592 62.2676 131.594 62.1106 132.018C61.4616 133.748 62.1367 139.463 56.9003 143.742C56.827 143.802 56.7249 143.823 56.7092 143.729C54.689 130.767 51.1562 118.088 46.5268 105.831C41.6358 92.8769 40.3483 79.3815 41.1909 65.6453C41.2354 64.944 41.2825 64.2426 41.3349 63.5412Z" fill="#82A2B0"/>
<path d="M188.542 177.061C188.599 177.608 188.332 178.335 187.647 179.403C187.576 179.518 187.5 179.633 187.427 179.748C184.742 183.914 181.761 187.874 178.511 191.592C177.582 192.657 176.632 193.702 175.659 194.725C175.415 194.981 175.172 195.235 174.926 195.489C174.533 195.897 174.136 196.3 173.735 196.698C172.989 197.444 172.233 198.177 171.464 198.896C153.891 215.38 130.451 225.683 104.615 226.337C104.403 226.343 104.193 226.345 103.981 226.35C103.939 226.353 103.898 226.353 103.856 226.353C103.657 226.356 103.461 226.358 103.264 226.361C102.848 226.366 102.437 226.369 102.021 226.369C101.179 226.369 100.333 226.358 99.4933 226.337C73.6199 225.709 50.1409 215.401 32.5499 198.896C31.7753 198.171 31.0138 197.433 30.2628 196.682C29.6504 196.073 29.0433 195.45 28.4466 194.822C28.4126 194.79 28.3838 194.756 28.3524 194.725C27.3815 193.699 26.429 192.657 25.5 191.592C21.8598 187.424 18.5547 182.959 15.629 178.233C15.5923 178.173 15.5531 178.113 15.5164 178.052C14.9931 177.205 14.4827 176.346 13.9829 175.48C13.9855 175.477 13.9881 175.477 13.9908 175.477C34.9654 167.334 51.6796 160.718 70.087 152.231C70.2702 152.148 70.4508 152.059 70.6078 151.93C70.9113 151.69 71.1914 151.363 71.317 150.97C71.3484 150.878 71.3719 150.774 71.3798 150.669C71.4164 150.321 71.4452 149.968 71.4792 149.604C71.4923 149.473 71.5028 149.34 71.5158 149.206C71.7043 147.008 71.8665 144.585 72.0052 142.049C72.1518 139.364 72.2722 136.559 72.369 133.769C72.4344 131.903 72.492 130.048 72.5391 128.237C72.5626 127.402 72.5835 126.578 72.6019 125.766C72.6621 123.288 72.7066 120.938 72.7432 118.842C72.7484 118.62 72.751 118.402 72.7536 118.188C72.7798 116.696 72.8008 115.346 72.8217 114.181C72.8348 113.326 72.8479 112.569 72.8583 111.928C72.874 111.159 76.7628 117.115 77.4065 117.515C80.0889 119.188 82.609 121.443 85.3934 123.553C89.3004 126.515 93.7309 129.197 99.878 129.592C100.025 129.585 100.171 129.571 100.318 129.558C100.462 129.571 100.608 129.585 100.755 129.592C110.262 128.98 115.666 122.904 121.371 118.771C121.983 118.327 122.598 117.905 123.224 117.515C123.87 117.115 127.759 111.159 127.774 111.928C127.787 112.569 127.798 113.326 127.814 114.181C127.829 115.178 127.848 116.312 127.869 117.549C127.884 118.638 127.908 119.805 127.929 121.038C127.971 123.189 128.023 125.534 128.086 127.967C128.135 129.862 128.196 131.812 128.264 133.769C128.361 136.54 128.481 139.327 128.625 141.991C128.764 144.525 128.923 146.95 129.114 149.149C129.127 149.303 129.14 149.455 129.153 149.604C129.174 149.845 129.195 150.083 129.219 150.316C129.229 150.434 129.242 150.551 129.253 150.669C129.261 150.774 129.284 150.878 129.316 150.97C129.441 151.363 129.721 151.69 130.025 151.93C130.182 152.059 130.357 152.161 130.546 152.231C140.971 156.23 151.3 162.327 161.645 166.533C166.819 168.634 171.595 170.233 176.679 172.544C179.299 173.737 182.112 174.886 184.698 176.153C186.702 177.137 188.424 175.962 188.542 177.061Z" fill="#ECF4FB"/>
<path d="M103.238 104.067C103.238 104.067 103.238 104.067 103.235 104.067C103.247 104.055 103.247 104.055 103.238 104.067Z" fill="#B63843"/>
<path d="M67.75 137.564L67.7527 137.566C67.7689 137.566 67.7689 137.564 67.75 137.564Z" fill="#040606"/>
<path d="M189.306 176.71C189.246 176.812 189.186 176.914 189.125 177.016C188.644 177.817 188.149 178.615 187.647 179.403C187.576 179.518 187.5 179.633 187.427 179.746C184.742 183.914 181.761 187.874 178.511 191.592C177.582 192.657 176.632 193.702 175.659 194.725C175.415 194.981 175.172 195.235 174.926 195.486C174.533 195.895 174.136 196.3 173.735 196.698C172.989 197.441 172.233 198.177 171.464 198.896C153.891 215.38 130.451 225.683 104.615 226.337C104.403 226.34 104.193 226.345 103.981 226.35C103.939 226.35 103.898 226.35 103.856 226.35C103.657 226.356 103.461 226.358 103.264 226.361C102.848 226.366 102.437 226.369 102.021 226.369C101.179 226.369 100.333 226.358 99.4933 226.337C73.6198 225.709 50.1408 215.401 32.5499 198.896C31.7753 198.169 31.0138 197.433 30.2627 196.682C29.6504 196.073 29.0432 195.45 28.4466 194.822C28.4126 194.79 28.3838 194.756 28.3524 194.725C27.3815 193.699 26.429 192.657 25.5 191.592C21.8598 187.424 18.5546 182.959 15.6289 178.233C15.5923 178.173 15.553 178.113 15.5164 178.052C14.993 177.205 14.4827 176.346 13.9829 175.48C13.9541 175.43 13.9227 175.375 13.8939 175.323C16.5004 174.038 53.8987 158.397 70.087 152.231C70.2754 152.161 70.4507 152.059 70.6077 151.93C70.9139 151.69 73.5335 162.681 86.5186 170.152C90.8313 172.63 95.6307 173.447 100.318 173.439H100.357C105.028 173.439 109.762 172.476 114.114 170.152C124.43 164.643 129.721 151.69 130.025 151.93C130.182 152.059 130.357 152.161 130.546 152.231C149.819 159.692 188.872 176.488 189.306 176.71Z" fill="#82A2B0"/>
<path d="M139.307 155.837C139.255 155.811 139.205 155.79 139.155 155.769C139.116 155.751 139.077 155.735 139.038 155.72C139.001 155.701 138.964 155.686 138.925 155.67C138.917 155.665 138.907 155.659 138.899 155.657C138.569 155.513 138.245 155.374 137.923 155.241C137.603 155.107 137.284 154.976 136.962 154.851C129.868 170.641 115.888 180.787 100.302 180.787C84.7286 180.787 70.7464 170.644 63.6467 154.859C63.0134 155.112 62.388 155.372 61.7338 155.657C61.7259 155.659 61.7181 155.665 61.7076 155.67C61.6684 155.686 61.6317 155.701 61.5925 155.717C61.5768 155.727 61.5558 155.735 61.5375 155.743C61.527 155.748 61.5192 155.751 61.5087 155.756C61.4983 155.761 61.4904 155.764 61.4799 155.767V155.769C61.4616 155.775 61.4485 155.782 61.4302 155.79C61.391 155.806 61.3517 155.822 61.3125 155.84C61.2601 155.864 61.2025 155.887 61.1476 155.913C62.1656 158.214 63.3301 160.425 64.6386 162.534C67.3183 166.857 70.5319 170.657 74.1956 173.826C77.8985 177.034 81.9809 179.528 86.3276 181.235C90.8208 183.001 95.5234 183.893 100.302 183.893C105.091 183.893 109.799 182.996 114.297 181.227C118.647 179.515 122.734 177.019 126.44 173.803C130.103 170.626 133.32 166.821 135.997 162.487C137.295 160.388 138.454 158.19 139.464 155.903C139.412 155.882 139.359 155.858 139.307 155.837Z" fill="#5D8293"/>
<path d="M129.219 150.316C101.542 150.698 90.3027 143.242 76.6293 131.05C75.4281 129.98 74.0464 129.059 72.5391 128.237C72.5626 127.402 72.5835 126.578 72.6019 125.766C72.662 123.288 72.7065 120.938 72.7432 118.842C72.7484 118.62 72.751 118.402 72.7536 118.188C75.3077 119.653 77.909 121.114 80.5076 122.163C82.1379 122.822 83.7709 123.32 85.3933 123.553C85.8932 123.626 86.393 123.673 86.8902 123.694C86.9112 123.694 86.9321 123.696 86.9556 123.696C91.2291 123.835 106.593 121.485 121.371 118.771C121.58 118.732 121.789 118.696 121.999 118.656C123.964 118.293 125.914 117.926 127.827 117.557C127.84 117.555 127.855 117.552 127.869 117.549C127.884 118.638 127.908 119.805 127.929 121.038C127.971 123.189 128.023 125.534 128.086 127.967C128.135 129.862 128.196 131.812 128.264 133.769C128.361 136.54 128.481 139.327 128.625 141.991C128.764 144.525 128.923 146.95 129.114 149.149C129.127 149.303 129.14 149.455 129.153 149.604C129.174 149.845 129.195 150.083 129.219 150.316Z" fill="#C0D0D8"/>
<path d="M51.7267 69.9111C51.478 74.4986 52.2239 79.2482 53.3256 83.6917C53.9903 86.3793 58.5751 94.7561 62.2126 92.7803C62.3592 92.6992 62.5398 92.7698 62.5895 92.9242C64.0576 97.3887 64.9395 106.278 69.6787 114.985C69.7049 115.035 69.7363 115.087 69.7651 115.139C71.9842 118.905 84.5978 130.883 88.5074 132.23C94.9765 134.46 104.803 134.353 111.442 132.937C116.294 131.903 129.952 119.829 131.917 116.722C131.93 116.702 131.943 116.683 131.954 116.662C137.546 107.44 138.446 97.6766 140.006 92.9242C140.055 92.7698 140.239 92.6992 140.383 92.7803C140.385 92.7803 140.388 92.783 140.39 92.783C143.193 94.2982 146.292 89.7996 147.532 87.9233C149.997 84.1863 150.411 79.5648 150.623 75.1789C150.772 72.1328 151.845 66.2971 149.071 64.1564C147.04 62.5915 143.764 64.3972 142.767 66.3494C142.382 67.1031 142.309 67.9615 142.238 68.7989C142.118 70.301 141.995 71.8031 141.872 73.3052C135.97 62.4738 140.053 48.4969 132.788 38.2464C125.67 28.2027 112.84 38.4427 102.024 39.3063C91.2081 38.4427 76.925 28.2027 69.8069 38.2464C63.2647 47.4815 66.3579 62.445 60.9147 72.8132C61.1109 72.4364 60.7079 70.8558 60.6739 70.3429C60.6163 69.4217 60.598 68.477 60.3599 67.5767C59.8888 65.7711 58.1904 64.2533 56.3324 63.7587C53.1712 62.9134 51.9491 65.8418 51.7267 69.9111Z" fill="#ECF4FB"/>
</svg>
