<svg width="205" height="224" viewBox="0 0 205 224" fill="none" xmlns="http://www.w3.org/2000/svg">
<path d="M204.012 121.519C204.012 141.863 198.029 160.812 187.726 176.697C185.083 180.769 182.158 184.642 178.975 188.285C178.046 189.35 177.094 190.394 176.123 191.42C175.49 192.085 174.849 192.744 174.2 193.393C173.454 194.136 172.695 194.869 171.925 195.591C154.049 212.36 130.099 222.734 103.726 223.053C103.564 223.058 103.399 223.058 103.234 223.058C102.98 223.061 102.724 223.061 102.47 223.061C102.213 223.061 101.96 223.061 101.703 223.058C101.541 223.058 101.376 223.058 101.211 223.053C74.8404 222.734 50.8904 212.36 33.0116 195.589C32.237 194.864 31.4755 194.126 30.727 193.377C30.0807 192.734 29.4448 192.079 28.8141 191.417C27.8432 190.394 26.8933 189.35 25.9616 188.285C22.7795 184.642 19.8564 180.769 17.2133 176.697C6.91047 160.812 0.928223 141.863 0.928223 121.519C0.928223 83.4171 21.9159 50.2162 52.9604 32.8425C67.6073 24.649 84.4916 19.9778 102.47 19.9778C120.694 19.9778 137.796 24.7798 152.581 33.1827C183.296 50.6454 204.012 83.6631 204.012 121.519Z" fill="#C7DFEA"/>
<path d="M187.727 176.697C185.083 180.769 182.158 184.642 178.976 188.285C178.047 189.35 177.094 190.394 176.123 191.417C175.49 192.085 174.849 192.741 174.2 193.39C173.454 194.136 172.695 194.869 171.926 195.591C154.049 212.36 130.099 222.734 103.726 223.053C103.564 223.056 103.399 223.058 103.234 223.058C102.98 223.058 102.724 223.061 102.47 223.061C102.214 223.061 101.96 223.058 101.703 223.058C101.541 223.058 101.376 223.056 101.211 223.053C74.8405 222.734 50.8905 212.36 33.0117 195.589C32.2371 194.864 31.4756 194.126 30.7272 193.377C30.0808 192.731 29.4449 192.079 28.8142 191.417C27.8433 190.394 26.8934 189.35 25.9618 188.285C22.7796 184.642 19.8565 180.769 17.2134 176.697C17.4227 176.598 17.6373 176.498 17.8519 176.399C28.9372 171.23 46.0492 164.952 61.4576 159.305C61.5388 159.276 61.6173 159.245 61.6984 159.216C61.7088 159.213 61.7167 159.211 61.7272 159.206C61.9915 159.106 62.2532 159.015 62.5096 158.92C62.6771 158.863 62.842 158.803 63.0068 158.745C63.1351 158.701 63.2633 158.656 63.3889 158.614C63.4726 158.585 63.5538 158.557 63.6375 158.528C63.7422 158.494 63.8495 158.457 63.9542 158.423C64.0615 158.387 64.1661 158.352 64.2734 158.316C64.2761 158.313 64.2839 158.313 64.2865 158.311C64.2918 158.308 64.297 158.305 64.3048 158.305C64.5351 158.227 64.7732 158.151 65.0114 158.075C65.0899 158.049 65.1711 158.025 65.2496 157.999C66.278 157.669 69.0205 156.631 70.5462 156.136C70.7451 156.071 70.9309 155.979 71.0957 155.864C71.4176 155.647 71.7134 155.356 71.8442 155.005C71.8782 154.919 71.9018 154.828 71.9122 154.733C71.9489 154.419 71.9829 154.097 72.0169 153.77C72.4513 149.646 72.7496 144.585 72.959 139.576C73.0611 137.098 73.1396 134.63 73.205 132.301C73.3044 128.705 73.3672 125.432 73.4143 122.914C73.4196 122.807 73.4196 122.702 73.4222 122.6V122.516C73.4274 122.344 73.43 122.174 73.4326 122.009C73.4483 121.245 73.4614 120.564 73.4719 119.988C73.4876 119.3 77.5962 124.639 78.2766 125.002C79.2422 125.513 80.1869 126.083 81.129 126.688C86.8391 130.359 92.4655 135.311 102.007 135.831C102.161 135.823 102.316 135.813 102.47 135.803C102.622 135.813 102.776 135.823 102.933 135.831C114.05 135.224 119.854 128.606 126.661 125.002C126.925 124.861 127.71 123.969 128.568 122.969C129.919 121.399 131.458 119.567 131.465 119.988C131.478 120.564 131.492 121.245 131.507 122.009C131.507 122.103 131.51 122.197 131.513 122.294C131.513 122.331 131.515 122.367 131.515 122.404C131.518 122.48 131.518 122.556 131.518 122.634C131.596 126.782 131.717 133.133 131.984 139.576C132.193 144.585 132.486 149.646 132.923 153.77V153.778C132.931 153.872 132.947 154.003 132.965 154.15C133.009 154.511 133.072 154.943 133.096 155.005C133.227 155.356 133.522 155.647 133.844 155.864C134.009 155.979 134.195 156.071 134.394 156.136C135.768 156.581 138.125 157.468 139.335 157.879C139.374 157.892 139.41 157.905 139.447 157.918C139.486 157.931 139.523 157.944 139.56 157.957C139.607 157.97 139.649 157.986 139.69 157.999C139.769 158.025 139.85 158.049 139.929 158.075C140.057 158.117 140.185 158.156 140.311 158.198C140.436 158.24 140.562 158.279 140.687 158.324C141.009 158.428 141.326 158.536 141.643 158.643C141.771 158.687 141.899 158.732 142.027 158.776C142.161 158.826 142.297 158.873 142.43 158.923C142.59 158.978 142.75 159.036 142.912 159.096C143.019 159.135 143.129 159.174 143.236 159.213C143.239 159.213 143.242 159.216 143.244 159.216C143.323 159.245 143.404 159.276 143.485 159.305C158.891 164.952 176.005 171.23 187.088 176.399C187.303 176.498 187.515 176.598 187.727 176.697Z" fill="#ECF4FB"/>
<path d="M187.727 176.697C185.083 180.769 182.158 184.642 178.976 188.285C178.047 189.35 177.094 190.394 176.123 191.42C175.49 192.085 174.849 192.744 174.2 193.393C173.454 194.136 172.695 194.869 171.926 195.591C154.049 212.36 130.099 222.734 103.726 223.053C103.564 223.058 103.399 223.058 103.234 223.058C102.98 223.061 102.724 223.061 102.47 223.061C102.214 223.061 101.96 223.061 101.703 223.058C101.541 223.058 101.376 223.058 101.211 223.053C74.8405 222.734 50.8905 212.36 33.0117 195.589C32.2371 194.864 31.4756 194.126 30.7272 193.377C30.0808 192.734 29.4449 192.079 28.8142 191.417C27.8433 190.394 26.8934 189.35 25.9618 188.285C22.7796 184.642 19.8565 180.769 17.2134 176.697C17.4227 176.598 17.6373 176.498 17.8519 176.399C28.9372 171.23 46.0492 164.952 61.4576 159.308C61.5388 159.276 61.6146 159.247 61.6984 159.219C61.7088 159.213 61.7167 159.211 61.7272 159.206C61.9915 159.109 62.2532 159.015 62.5096 158.92C62.6771 158.863 62.842 158.803 63.0068 158.748C63.1351 158.701 63.2633 158.659 63.3889 158.614C63.4726 158.585 63.5538 158.557 63.6375 158.53C63.7422 158.494 63.8495 158.457 63.9542 158.423C64.0615 158.387 64.1661 158.352 64.2734 158.316C64.2761 158.313 64.2839 158.313 64.2865 158.311C64.2918 158.311 64.297 158.305 64.3048 158.305C64.399 158.271 64.645 158.177 64.9905 158.044C66.7307 157.382 70.9753 155.757 71.0957 155.866C106.657 187.874 133.645 155.798 133.844 155.866C135.226 156.317 138.044 157.426 139.335 157.881C139.374 157.892 139.41 157.905 139.447 157.918C139.486 157.931 139.523 157.944 139.56 157.957C139.607 157.97 139.649 157.986 139.69 157.999C139.769 158.025 139.85 158.052 139.929 158.075C140.057 158.117 140.185 158.159 140.311 158.201C140.436 158.24 140.562 158.282 140.687 158.324C141.009 158.428 141.326 158.536 141.643 158.643C141.771 158.687 141.899 158.732 142.027 158.779C142.161 158.826 142.297 158.873 142.43 158.923C142.59 158.978 142.75 159.038 142.912 159.096C143.019 159.135 143.129 159.177 143.236 159.216C143.239 159.216 143.242 159.219 143.244 159.219C143.323 159.247 143.404 159.276 143.485 159.308C158.891 164.952 176.005 171.23 187.088 176.399C187.303 176.498 187.515 176.598 187.727 176.697Z" fill="#628B9D"/>
<path d="M142.027 158.779C141.899 158.732 141.771 158.687 141.643 158.643C141.326 158.535 141.009 158.428 140.687 158.324C140.562 158.282 140.436 158.24 140.31 158.201C140.185 158.159 140.057 158.117 139.928 158.075C132.716 169.605 118.412 177.024 102.47 177.024C86.5197 177.024 72.2209 169.608 65.0113 158.075C65.0034 158.064 64.9956 158.054 64.9904 158.043C64.6449 158.177 64.3989 158.271 64.3047 158.305C64.2969 158.305 64.2917 158.31 64.2864 158.31C64.2838 158.313 64.276 158.313 64.2733 158.316C64.166 158.352 64.0614 158.386 63.9541 158.423C63.8494 158.457 63.7421 158.494 63.6374 158.53C63.5537 158.556 63.4725 158.585 63.3888 158.614C63.2632 158.658 63.135 158.7 63.0067 158.747C62.8419 158.802 62.677 158.863 62.5095 158.92C63.5458 160.598 64.7391 162.21 66.0711 163.743C68.8032 166.886 72.0822 169.647 75.8165 171.955C79.598 174.289 83.7641 176.1 88.2024 177.341C92.7899 178.628 97.5893 179.28 102.47 179.28C107.345 179.28 112.142 178.631 116.724 177.346C121.155 176.108 125.316 174.3 129.094 171.971C132.829 169.67 136.108 166.915 138.84 163.78C140.185 162.233 141.386 160.611 142.43 158.923C142.297 158.873 142.161 158.826 142.027 158.779Z" fill="#4F6F7D"/>
<path d="M132.965 154.15C132.873 154.16 132.784 154.168 132.693 154.178C103.825 155.034 92.6014 147.835 78.8574 135.823C77.2584 134.426 75.3298 133.293 73.2048 132.301C73.3043 128.705 73.3671 125.432 73.4142 122.914C73.4194 122.807 73.4194 122.702 73.422 122.6C75.95 124.018 78.5355 125.521 81.1288 126.688C81.6313 126.918 82.1337 127.133 82.6362 127.331C84.7192 128.156 86.7997 128.713 88.8618 128.794C93.5199 128.977 112.487 126.007 128.568 122.969C128.636 122.956 128.702 122.943 128.77 122.93C129.696 122.754 130.612 122.579 131.515 122.404C131.518 122.48 131.518 122.556 131.518 122.634C131.596 126.782 131.716 133.133 131.983 139.576C132.193 144.585 132.486 149.646 132.923 153.77V153.778C132.931 153.872 132.946 154.003 132.965 154.15Z" fill="#C0D0D8"/>
<path d="M153.113 36.8176C152.409 30.4036 150.548 24.1439 146.999 19.0069C144.341 15.16 140.839 12.0485 136.969 9.64355C135.032 8.43716 133.059 7.15746 130.897 6.50847C119.064 2.96255 111.373 6.87486 111.744 6.56868C118.752 0.785286 124.177 1.81635 124.585 1.78233C123.35 1.50755 122.115 1.27202 120.893 1.07836C108.97 -0.816284 87.4409 0.59684 78.533 10.6458C78.5199 10.6589 78.5068 10.6746 78.4937 10.6877C77.9808 10.5569 77.46 10.4522 76.934 10.3789C66.9767 8.95268 57.9404 16.6333 54.0595 24.8269C53.1122 26.8315 52.3009 28.9407 51.6519 31.1101C52.6176 30.5134 54.6431 27.0016 59.521 25.9862C59.979 25.8894 55.4386 26.6038 52.9997 32.6933C50.791 40.7587 50.8224 49.6013 54.295 57.1694C56.3415 61.626 58.9898 68.4012 60.7772 73.0253C61.4968 74.8912 61.1121 82.454 60.7484 84.3879C61.4419 80.7112 65.9508 69.2674 65.9168 68.9796C65.4431 64.9312 65.8121 60.7834 66.9688 56.8946C67.0002 56.7978 67.029 56.6984 67.0604 56.6015C67.3299 58.3523 67.8873 62.1441 67.8873 62.1441C67.8873 62.1441 70.902 55.6018 72.1869 52.2286C73.2049 49.5489 74.0868 46.8038 74.7201 43.9958C75.2016 42.4466 75.4528 40.8137 75.5287 39.1729C75.5392 39.1886 75.547 39.2068 75.5549 39.2225C77.2716 42.2346 80.6657 43.8414 83.4475 45.5189C88.3202 48.4577 98.3823 53.702 98.3823 53.702C98.3823 53.702 98.5079 48.8031 98.1101 45.9952C105.061 51.6739 120.767 60.82 120.767 60.82C120.767 60.82 120.691 57.6143 121.764 55.8557C123.905 58.0225 126.067 60.0585 128.613 61.6705C130.895 63.1124 133.507 63.9891 135.629 65.6875C141.543 70.4188 143.257 83.1789 143.315 82.6895C144.725 70.4188 145.544 71.7116 147.761 66.6034C150.121 61.1602 152.422 56.3137 153.071 50.2346C153.534 45.9088 153.61 41.324 153.113 36.8176Z" fill="#628B9D"/>
<path d="M152.576 74.6425C152.194 76.6759 152.105 78.759 151.835 80.808C151.367 84.3592 151.566 88.2636 150.006 91.5452C149.244 93.1415 147.373 94.3689 146.068 95.6198C145.45 96.2112 144.73 96.8235 143.948 97.2134C143.448 97.462 143.215 97.5484 142.645 97.3914C142.605 97.3809 142.294 97.2423 142.071 97.1245C141.925 97.046 141.742 97.114 141.689 97.2658C140.206 101.657 139.311 110.397 134.509 118.96C134.482 119.01 134.451 119.059 134.42 119.112C132.174 122.815 119.396 134.594 115.434 135.918C108.881 138.111 98.9237 138.006 92.1983 136.614C87.2837 135.596 73.448 123.723 71.4566 120.669C71.4435 120.651 71.4304 120.63 71.4173 120.611C65.7517 111.541 64.841 101.94 63.2604 97.2658C63.2107 97.114 63.0248 97.046 62.8783 97.1245C62.6559 97.2423 62.3445 97.3809 62.3078 97.3914C61.7374 97.5484 61.5018 97.462 61.002 97.2134C60.2195 96.8235 59.5025 96.2112 58.8823 95.6198C57.5791 94.3689 55.7053 93.1415 54.9438 91.5452C53.3841 88.2636 53.583 84.3592 53.1172 80.808C52.8477 78.759 52.7561 76.6759 52.374 74.6425C52.026 72.7897 52.4002 70.2357 54.0776 68.9796C56.1345 67.4408 59.4528 69.215 60.4629 71.1359C60.8528 71.8764 60.9287 72.7217 60.9968 73.5434C61.0543 74.2029 61.1093 74.8597 61.1642 75.5192C61.1773 75.6736 61.1904 75.828 61.2035 75.9824C61.2584 76.6471 61.316 77.3118 61.371 77.9739C61.5541 77.6494 61.7269 77.3223 61.8891 76.9899C62.1796 76.4064 62.4439 75.8123 62.682 75.213C66.7304 65.028 63.8335 52.7285 70.572 43.5012C77.7843 33.625 91.5179 41.201 102.475 42.0515C113.432 41.201 127.168 33.625 134.378 43.5012C140.48 51.8596 138.311 64.9913 142.229 74.9801C142.467 75.5872 142.728 76.1839 143.014 76.7675C143.134 77.0109 143.26 77.2516 143.388 77.4898C143.273 77.2804 143.359 76.6837 143.458 76.1159C143.495 75.9013 143.537 75.6893 143.568 75.5061C143.6 75.3255 143.623 75.1712 143.631 75.0639C143.689 74.1558 143.71 73.2268 143.948 72.3396C144.429 70.5654 146.149 69.0738 148.03 68.587C151.819 67.6031 153.089 72.0256 152.576 74.6425Z" fill="#ECF4FB"/>
</svg>
