<svg width="204" height="222" viewBox="0 0 204 222" fill="none" xmlns="http://www.w3.org/2000/svg">
<path d="M203.476 120.042C203.476 139.693 197.894 158.037 188.232 173.582C188.185 173.658 188.135 173.733 188.088 173.807C184.762 179.132 180.952 184.123 176.726 188.726C176.645 188.812 176.563 188.901 176.48 188.99C175.867 189.65 175.247 190.304 174.622 190.948C173.614 191.981 172.583 192.991 171.534 193.983C159.263 205.537 144.116 214.071 127.282 218.396C119.18 220.479 110.685 221.586 101.934 221.586C93.1807 221.586 84.6887 220.479 76.5867 218.396C58.2552 213.686 41.9257 203.985 29.1316 190.827C28.8307 190.521 28.5349 190.21 28.2392 189.898C27.9121 189.555 27.5902 189.21 27.2709 188.862C27.1191 188.7 26.9674 188.535 26.8182 188.37C22.9269 184.094 19.3967 179.485 16.2721 174.592C16.1752 174.443 16.081 174.291 15.9894 174.142C6.10793 158.477 0.392578 139.928 0.392578 120.042C0.392578 82.2565 21.0322 49.2912 51.6528 31.8049H51.6554C55.1228 29.8239 58.7158 28.0418 62.424 26.4743C74.5691 21.3399 87.9207 18.5005 101.934 18.5005C116.987 18.5005 131.275 21.7769 144.124 27.6545C148.201 29.5204 152.135 31.6479 155.9 34.0136H155.903C184.482 51.9814 203.476 83.7952 203.476 120.042Z" fill="#DAEAF1"/>
<path d="M188.088 173.807C184.762 179.132 180.952 184.123 176.726 188.726C176.645 188.815 176.563 188.901 176.48 188.99C175.867 189.652 175.247 190.304 174.622 190.947C173.614 191.981 172.583 192.994 171.534 193.983C159.891 202.174 146.725 208.347 132.547 211.99C122.979 214.447 112.951 215.756 102.617 215.756C92.2829 215.756 82.2576 214.447 72.6901 211.99C56.2428 207.764 41.1614 200.135 28.2391 189.898C27.912 189.555 27.5901 189.21 27.2708 188.862C27.1191 188.7 26.9673 188.535 26.8182 188.37C22.9268 184.096 19.3966 179.488 16.272 174.592C18.4388 171.841 21.0295 169.46 24.1149 167.581C24.1227 167.578 24.1254 167.573 24.1332 167.571C24.2012 167.529 24.2693 167.489 24.3347 167.448C24.4289 167.393 24.5205 167.338 24.6121 167.283C24.7194 167.22 24.8267 167.16 24.9366 167.1C27.5142 165.642 30.4295 164.522 33.7137 163.813C34.3366 163.679 34.9568 163.554 35.5848 163.438C36.2835 163.305 36.9822 163.182 37.6836 163.064C38.3169 162.96 38.9475 162.86 39.5808 162.763C39.6907 162.748 39.7981 162.732 39.9053 162.714C40.871 162.567 41.834 162.428 42.7866 162.287C44.5949 162.023 46.466 161.879 48.358 161.766C50.5379 161.635 52.7465 161.546 54.9186 161.368C57.0174 161.193 59.0847 160.934 61.0605 160.466C62.8636 160.039 64.6588 159.513 66.3964 158.859C70.6358 157.263 74.5402 154.879 77.411 151.173C78.2589 150.076 78.9524 148.917 79.5229 147.708C79.8291 147.051 80.1012 146.381 80.3419 145.701C80.9412 144.008 81.3442 142.239 81.6294 140.438C82.0403 137.842 82.2052 135.178 82.3518 132.569C82.4983 129.992 82.6344 127.335 82.6448 124.677C82.6448 124.334 82.6448 123.994 82.6396 123.651C82.6344 123.01 82.6187 122.369 82.5951 121.73V121.727C82.5899 121.573 82.582 121.419 82.5742 121.264C82.5611 120.945 82.5428 120.623 82.5219 120.301C82.5009 119.974 82.459 119.419 82.4093 118.781V118.778C82.391 118.548 82.3727 118.307 82.3518 118.064C82.2314 116.512 82.0875 114.803 82.0665 114.672L84.4767 114.845L102.499 116.135L117.528 115.059L122.453 114.706L122.932 114.672C122.917 114.772 122.83 115.782 122.736 116.944C122.655 117.946 122.563 119.063 122.511 119.799V119.801C122.498 120 122.487 120.168 122.477 120.301C122.459 120.607 122.44 120.916 122.427 121.222C122.406 121.675 122.391 122.125 122.378 122.581C122.359 123.277 122.354 123.978 122.357 124.677C122.364 127.335 122.501 129.992 122.647 132.569C122.796 135.215 122.964 137.918 123.388 140.551C123.647 142.163 124.003 143.741 124.508 145.269C124.573 145.465 124.641 145.662 124.712 145.858C124.937 146.478 125.188 147.088 125.468 147.687C126.039 148.904 126.735 150.071 127.588 151.173C127.766 151.401 127.946 151.626 128.132 151.845C128.394 152.157 128.666 152.458 128.946 152.751C129.038 152.848 129.132 152.945 129.226 153.039C129.32 153.136 129.414 153.23 129.511 153.321C129.608 153.416 129.705 153.507 129.802 153.599C129.899 153.69 129.995 153.779 130.095 153.868C130.189 153.952 130.283 154.036 130.377 154.117C130.495 154.222 130.616 154.324 130.736 154.426C130.825 154.496 130.914 154.57 131.005 154.643C131.115 154.732 131.225 154.818 131.335 154.905C131.539 155.062 131.743 155.216 131.95 155.365C132.699 155.907 133.478 156.404 134.282 156.857C134.376 156.912 134.47 156.964 134.564 157.017C134.818 157.155 135.072 157.289 135.329 157.42C135.446 157.48 135.564 157.54 135.685 157.597C135.75 157.632 135.818 157.663 135.883 157.694C135.991 157.749 136.101 157.802 136.211 157.851C136.737 158.1 137.27 158.33 137.812 158.55C137.943 158.605 138.076 158.655 138.207 158.707C138.338 158.759 138.469 158.809 138.602 158.859C140.34 159.513 142.135 160.039 143.938 160.466C145.809 160.908 147.764 161.167 149.748 161.34C151.786 161.518 153.862 161.607 155.916 161.724C158.054 161.845 160.171 161.991 162.212 162.287C163.141 162.423 164.078 162.559 165.02 162.703C165.044 162.706 165.07 162.711 165.091 162.714C165.69 162.805 166.287 162.899 166.886 162.994C167.614 163.114 168.344 163.24 169.071 163.373C169.812 163.509 170.55 163.656 171.285 163.813C174.538 164.514 177.424 165.618 179.984 167.052C180.013 167.068 180.036 167.084 180.065 167.1C183.21 168.876 185.861 171.156 188.088 173.807Z" fill="#ECF4FB"/>
<path d="M124.508 145.269C119.617 144.707 115.417 143.744 111.661 142.422C102.871 139.331 96.5146 134.283 89.4437 127.804C87.5752 126.093 85.2226 124.787 82.6397 123.651C82.6344 123.01 82.6188 122.369 82.5952 121.73V121.727C82.59 121.573 82.5821 121.419 82.5742 121.264C82.5612 120.945 82.5428 120.623 82.5219 120.301C82.501 119.974 82.4591 119.419 82.4094 118.781V118.778C82.391 118.548 82.3727 118.307 82.3518 118.064L82.8386 118.087C87.9939 119.605 93.3926 120.694 98.7913 120.916C104.245 121.141 111.211 120.155 118.313 118.247C119.784 117.849 121.263 117.417 122.736 116.944C122.655 117.946 122.563 119.063 122.511 119.799V119.801C122.498 120 122.487 120.168 122.477 120.301C122.459 120.607 122.44 120.916 122.427 121.222C122.406 121.675 122.391 122.125 122.378 122.581C122.359 123.277 122.354 123.978 122.357 124.677C122.364 127.336 122.501 129.992 122.647 132.569C122.796 135.215 122.964 137.918 123.388 140.551C123.647 142.163 124.003 143.741 124.508 145.269Z" fill="#C0D0D8"/>
<path d="M149 69.0673C148.997 69.0411 148.994 69.0123 148.992 68.9862C148.743 67.0209 146.859 66.7095 145.535 67.6332C146.113 66.0736 146.566 64.5374 146.922 63.0248C148.727 55.3075 147.921 48.2131 147.448 41.9037C145.365 14.1199 124.168 5.76144 101.576 5.6934C78.9814 5.76144 61.0372 14.1199 58.9541 41.9037C58.4805 48.2131 57.6744 55.3075 59.4827 63.0248C59.836 64.5374 60.2914 66.0736 60.8671 67.6332C59.5455 66.7095 57.6588 67.0209 57.4102 68.9862C57.4075 69.0123 57.4049 69.0411 57.4023 69.0673C57.3526 69.5331 57.3866 70.0094 57.4625 70.4857C57.5986 71.3231 57.9021 72.1553 58.19 72.9639C58.4752 73.7647 58.7029 74.5759 58.9254 75.3924C59.3257 76.8736 59.7078 78.3574 60.0794 79.8438C60.1736 80.218 60.2678 80.5922 60.362 80.9664C60.9848 83.4603 61.6626 85.9935 63.0496 88.1891C64.2272 90.0445 65.9962 91.7324 68.1709 92.3003C68.2546 92.3238 68.341 92.3448 68.4274 92.3657H68.43C68.4745 92.5777 68.5189 92.7897 68.5634 92.999C68.5818 93.0854 68.5975 93.1717 68.6158 93.2555L68.6419 93.3732C68.6498 93.4099 68.6577 93.4465 68.6655 93.4831C68.7623 93.9437 68.8591 94.4017 68.956 94.8596C68.956 94.8727 68.9665 94.8596 68.9795 94.8282C68.9691 94.878 68.9638 94.891 68.956 94.8675C69.393 96.9165 69.919 98.9473 70.3142 101.004C72.9285 114.672 93.3535 127.555 97.0146 128.56C98.8046 129.052 100.752 129.565 102.612 129.61C102.709 129.612 102.803 129.612 102.897 129.612C102.994 129.612 103.41 129.612 103.505 129.612C103.599 129.612 103.696 129.612 103.79 129.61C105.65 129.565 107.597 129.052 109.387 128.56C113.048 127.555 132.649 114.672 136.09 101.004C136.601 98.9734 137.012 96.9165 137.446 94.8675C137.441 94.891 137.433 94.878 137.425 94.8282C137.438 94.8596 137.446 94.8727 137.446 94.8596C137.545 94.4017 137.642 93.9437 137.739 93.4831C137.747 93.4465 137.752 93.4099 137.763 93.3732L137.786 93.2555C137.804 93.1717 137.823 93.0854 137.839 92.999C137.883 92.7897 137.93 92.5777 137.972 92.3657C137.975 92.3657 137.975 92.3657 137.977 92.3657C138.061 92.3448 138.147 92.3238 138.231 92.3003C140.406 91.7324 142.177 90.0445 143.352 88.1891C144.739 85.9935 145.417 83.4603 146.04 80.9664C146.367 79.6632 148.304 71.8569 148.568 72.0663C148.712 71.5481 148.853 71.0169 148.939 70.4857C149.015 70.0094 149.049 69.5331 149 69.0673Z" fill="#ECF4FB"/>
<path d="M143.711 66.9241C143.713 66.9502 143.716 66.979 143.716 67.0078C143.7 67 143.685 66.9921 143.669 66.9843C143.672 66.9685 143.672 66.9502 143.672 66.9345C143.672 66.9241 143.708 66.9162 143.711 66.9241Z" fill="#151516"/>
<path d="M167.326 93.6166C166.941 92.6823 166.559 91.7455 166.279 90.7746C164.887 85.9725 166.3 81.3615 166.661 76.5543C166.899 73.393 166.03 70.5301 164.411 67.8295C161.477 62.9332 158.645 58.1207 160.375 52.2954C161.014 50.1469 161.82 47.9461 161.514 45.7244C161.103 42.762 158.897 40.6711 157.491 38.1772C156.026 35.5733 155.615 32.768 155.026 29.8711C154.529 27.4373 153.516 25.226 152.21 23.1063C142.264 6.9652 118.963 -0.705017 100.953 0.161182C87.1173 0.82588 74.1112 6.22721 63.3138 14.7872C58.004 18.9952 53.953 23.2895 52.1055 29.9496C51.2655 32.9721 51.0169 36.3872 49.206 39.0067C47.1831 41.9324 45.5894 44.5624 45.5763 48.2732C45.5606 51.772 46.8717 55.2813 46.1625 58.7069C45.4585 62.1089 42.9646 64.6865 41.1929 67.5547C39.5103 70.2841 38.5054 73.5108 38.7357 76.7374C38.8587 78.428 39.4763 79.985 39.6176 81.707C39.8008 83.8921 39.9839 86.0772 40.1671 88.2624C40.3058 89.9058 40.4419 91.5701 40.1776 93.2005C39.628 96.5998 36.4328 98.6515 36.2391 102.226C36.0821 105.131 37.0582 108.601 39.403 110.488C45.1262 115.091 48.8658 113.199 53.1418 116.023C57.9229 119.176 60.9376 121.966 66.7471 121.076C66.9957 121.037 67.2522 120.992 67.5113 120.94C69.8168 120.477 72.1537 120.325 74.4906 120.123C64.9807 107.225 73.2633 112.029 70.4632 104.754C66.2107 93.7055 72.6483 91.6434 72.1092 85.5931C71.5466 79.2785 67.1004 74.4869 67.5139 67.9263C68.0268 59.7772 77.9188 55.8702 83.0636 50.7017C83.116 50.6991 83.1683 50.6991 83.2206 50.6965C80.8785 56.3412 111.195 69.4519 138.835 71.7444C139.709 87.069 147.053 84.1904 138.231 92.3003C131.605 98.3951 137.99 111.158 127.666 119.762C132.175 119.035 137.218 119.548 138.637 119.856C146.1 121.476 154.422 120.961 158.847 114.311C160.616 111.655 162.809 110.412 164.952 108.284C167.624 105.633 169.493 100.478 168.509 96.8615C168.208 95.7493 167.765 94.6843 167.326 93.6166Z" fill="#82A2B0"/>
<path d="M188.232 173.582C188.185 173.658 188.136 173.733 188.088 173.807C184.762 179.132 180.952 184.123 176.726 188.726C176.645 188.815 176.564 188.901 176.48 188.99C175.867 189.652 175.247 190.304 174.622 190.948C173.614 191.981 172.583 192.994 171.534 193.983C159.263 205.537 144.116 214.071 127.282 218.396C119.18 220.479 110.685 221.586 101.934 221.586C93.1808 221.586 84.6888 220.479 76.5868 218.396C58.2553 213.686 41.9258 203.985 29.1317 190.83C28.8307 190.521 28.535 190.212 28.2393 189.898C27.9122 189.555 27.5903 189.21 27.271 188.862C27.1192 188.7 26.9675 188.535 26.8183 188.37C22.927 184.096 19.3967 179.488 16.2721 174.592C16.1753 174.443 16.0811 174.291 15.9895 174.142C18.3787 171.585 21.0899 169.402 24.115 167.581C24.1229 167.578 24.1255 167.573 24.1334 167.571C24.2014 167.529 24.2694 167.49 24.3349 167.448C24.4291 167.393 24.5207 167.338 24.6122 167.283C24.7195 167.22 24.8268 167.16 24.9368 167.1C27.5144 165.642 30.4297 164.522 33.7139 163.813C34.3367 163.679 34.9569 163.554 35.585 163.439C36.2837 163.305 36.9824 163.182 37.6837 163.064C38.317 162.96 38.9477 162.86 39.581 162.763C39.6909 162.748 39.7982 162.732 39.9055 162.714C40.8712 162.567 41.8342 162.428 42.7867 162.287C44.595 162.023 46.4661 161.879 48.3582 161.766C50.5381 161.635 52.7467 161.546 54.9188 161.369C57.0175 161.193 59.0849 160.934 61.0607 160.466C62.8638 160.039 64.659 159.513 66.3966 158.859C70.636 157.263 74.5404 154.879 77.4112 151.173C78.259 150.077 78.9526 148.917 79.5231 147.708C79.8292 147.051 80.1014 146.381 80.3421 145.701C85.9633 146.941 93.3168 147.761 102.895 147.525C105.925 147.598 108.73 147.57 111.329 147.452C116.597 147.216 121.014 146.633 124.712 145.858C124.937 146.478 125.188 147.088 125.468 147.687C126.039 148.904 126.735 150.071 127.588 151.173C127.766 151.401 127.946 151.626 128.132 151.846C128.394 152.157 128.666 152.458 128.946 152.751C129.038 152.848 129.129 152.945 129.226 153.039C129.318 153.136 129.415 153.23 129.511 153.322C129.608 153.416 129.705 153.507 129.802 153.599C129.899 153.69 129.995 153.779 130.095 153.868C130.189 153.955 130.283 154.036 130.378 154.117C130.495 154.222 130.616 154.324 130.736 154.426C130.825 154.499 130.914 154.572 131.006 154.643C131.116 154.732 131.226 154.818 131.335 154.905C131.537 155.062 131.744 155.216 131.95 155.365C132.699 155.907 133.479 156.404 134.282 156.857C134.376 156.912 134.47 156.964 134.565 157.017C134.818 157.155 135.072 157.289 135.329 157.42C135.447 157.482 135.564 157.54 135.685 157.598C135.75 157.632 135.818 157.663 135.884 157.694C135.994 157.749 136.101 157.802 136.211 157.851C136.737 158.1 137.271 158.33 137.812 158.55C137.943 158.602 138.074 158.655 138.207 158.707C138.338 158.759 138.469 158.809 138.603 158.859C140.34 159.513 142.135 160.039 143.938 160.466C145.81 160.908 147.764 161.167 149.748 161.34C151.787 161.518 153.862 161.607 155.916 161.724C158.054 161.845 160.171 161.991 162.212 162.287C163.141 162.423 164.078 162.559 165.02 162.703C165.044 162.706 165.07 162.711 165.091 162.714C165.69 162.805 166.287 162.899 166.886 162.994C167.614 163.114 168.344 163.24 169.071 163.373C169.812 163.509 170.55 163.656 171.285 163.813C174.538 164.514 177.425 165.618 179.984 167.052C180.013 167.068 180.036 167.084 180.065 167.1C183.161 168.74 185.872 170.954 188.232 173.582Z" fill="#82A2B0"/>
</svg>
