<svg width="204" height="216" viewBox="0 0 204 216" fill="none" xmlns="http://www.w3.org/2000/svg">
<path d="M203.083 114.126C203.083 131.937 198.498 148.68 190.441 163.23C185.799 171.617 180.003 179.28 173.27 186C173.242 186.029 173.211 186.058 173.183 186.084C171.546 187.717 169.851 189.292 168.106 190.81C164.488 193.953 160.645 196.842 156.606 199.456C147.285 205.483 136.915 210.023 125.826 212.745C118.045 214.655 109.911 215.668 101.541 215.668C91.9849 215.668 82.7367 214.349 73.9703 211.879C63.2776 208.872 53.3019 204.156 44.3534 198.043C41.2403 195.918 38.2538 193.626 35.403 191.174C33.4693 189.514 31.6003 187.785 29.7978 185.984C29.5659 185.751 29.3338 185.518 29.1051 185.286C23.5086 179.589 18.578 173.235 14.4409 166.352C5.27257 151.093 0 133.225 0 114.126C0 58.0484 45.4616 12.5847 101.541 12.5847C157.621 12.5847 203.083 58.0484 203.083 114.126Z" fill="#C7DFEA"/>
<path d="M190.443 163.23C185.798 171.617 180.004 179.28 173.27 185.997C173.242 186.026 173.21 186.055 173.181 186.084C171.546 187.714 169.85 189.292 168.107 190.807C164.488 193.95 160.646 196.842 156.606 199.454C147.284 205.483 136.916 210.023 125.826 212.745C118.046 214.655 109.912 215.668 101.541 215.668C91.9863 215.668 82.7355 214.346 73.9714 211.879C63.2787 208.869 53.303 204.154 44.3531 198.043C41.2416 195.918 38.2531 193.626 35.4033 191.174C33.4694 189.514 31.6009 187.782 29.7978 185.984C29.5649 185.751 29.3347 185.518 29.1044 185.286C23.5094 179.589 18.5791 173.235 14.4418 166.352C22.1721 160.629 31.3314 156.965 41.1657 155.468C41.3646 155.437 41.5609 155.408 41.7598 155.379C41.8043 155.374 41.8514 155.369 41.8959 155.361C43.1101 155.186 44.3479 155.065 45.6014 154.971C46.2007 154.924 46.8026 154.885 47.4097 154.851C49.4221 154.73 51.4581 154.644 53.4653 154.492C53.8316 154.466 54.1928 154.435 54.5565 154.403C55.5195 154.317 56.4721 154.212 57.4142 154.074C58.3903 153.932 59.3507 153.754 60.2902 153.532C62.1168 153.097 63.9382 152.569 65.702 151.904C67.0026 151.412 68.2718 150.852 69.4886 150.198C72.2992 148.698 74.8402 146.73 76.8683 144.108C77.7293 142.999 78.4333 141.821 79.009 140.594C79.0587 140.489 79.1084 140.384 79.1529 140.28C80.1578 138.053 80.7597 135.671 81.147 133.227C81.1732 133.054 81.1993 132.879 81.2255 132.706C81.3825 131.618 81.5029 130.524 81.5971 129.425C81.6181 129.195 81.6364 128.962 81.6547 128.731V128.705C81.7463 127.554 81.8143 126.402 81.8771 125.259V125.246C81.9687 123.652 82.0551 122.027 82.11 120.389C82.1467 119.384 82.1676 118.376 82.1728 117.366C82.1728 117.327 82.1755 117.285 82.1755 117.243C82.1781 116.207 82.1624 115.176 82.1179 114.142C82.1179 114.111 82.1179 114.077 82.1153 114.045C82.0996 113.632 82.076 113.221 82.0525 112.807C82.0027 112.059 81.8483 110.122 81.7332 108.709C81.6625 107.848 81.6023 107.178 81.5893 107.1L102.307 108.581L123.026 107.1C123.012 107.178 122.955 107.835 122.884 108.688C122.882 108.728 122.879 108.767 122.874 108.806C122.787 109.874 122.68 111.214 122.615 112.117C122.612 112.151 122.609 112.187 122.607 112.221C122.589 112.457 122.575 112.656 122.565 112.807C122.541 113.216 122.518 113.624 122.502 114.032C122.497 114.142 122.492 114.255 122.489 114.364C122.458 115.155 122.445 115.948 122.442 116.738V117.243C122.452 119.939 122.591 122.634 122.735 125.246C122.889 127.928 123.057 130.67 123.489 133.337C123.894 135.852 124.53 138.299 125.598 140.573C126.176 141.808 126.883 142.991 127.746 144.108C129.204 145.99 130.923 147.537 132.821 148.814C132.834 148.824 132.844 148.832 132.857 148.84C134.734 150.101 136.785 151.101 138.915 151.904C140.677 152.569 142.498 153.097 144.325 153.532C145.267 153.757 146.227 153.932 147.201 154.074C147.651 154.142 148.103 154.197 148.559 154.249C149.37 154.346 150.187 154.422 151.011 154.484C152.819 154.623 154.654 154.707 156.47 154.806C157.325 154.853 158.173 154.906 159.016 154.971C159.984 155.044 160.942 155.133 161.889 155.251C162.018 155.267 162.146 155.283 162.271 155.301C162.465 155.324 162.661 155.353 162.855 155.379C163.795 155.518 164.747 155.654 165.702 155.801C165.726 155.806 165.749 155.809 165.776 155.811C166.38 155.903 166.985 156 167.594 156.099C169.081 156.34 170.562 156.68 172.053 156.929C177.478 157.826 184.17 160.38 190.443 163.23Z" fill="#ECF4FB"/>
<path d="M168.106 190.81C164.488 193.953 160.645 196.842 156.606 199.456C147.285 205.483 136.915 210.023 125.826 212.745C118.045 214.655 109.911 215.668 101.541 215.668C91.9849 215.668 82.7367 214.349 73.9703 211.879C63.2776 208.872 53.3019 204.156 44.3533 198.043C41.2403 195.918 38.2538 193.626 35.403 191.174C37.6245 177.388 40.0189 164.266 41.1665 155.468C41.3638 155.437 41.5611 155.408 41.76 155.379C41.805 155.374 41.8503 155.369 41.8968 155.361C43.1108 155.188 44.3486 155.065 45.6 154.971C46.2011 154.927 46.8036 154.885 47.4104 154.851C49.4226 154.73 51.457 154.647 53.466 154.495C53.8305 154.466 54.1935 154.437 54.5564 154.403C60.9629 186.228 79.6854 205.47 98.9368 208.39C100.666 208.652 102.419 208.652 104.146 208.39C123.43 205.465 142.18 186.167 148.56 154.252C149.37 154.346 150.188 154.422 151.01 154.484C152.82 154.623 154.653 154.707 156.47 154.809C157.324 154.856 158.174 154.908 159.016 154.971C159.984 155.044 160.943 155.133 161.889 155.254C162.982 163.709 165.522 177.037 168.106 190.81Z" fill="#628B9D"/>
<path d="M132.821 148.814C113.33 148.534 101.493 146.076 91.1619 133.502C90.0104 132.102 86.0249 130.707 81.597 129.425C81.618 129.195 81.6363 128.962 81.6546 128.731V128.705C81.7462 127.554 81.8142 126.402 81.877 125.259V125.246C81.9686 123.652 82.055 122.027 82.11 120.389C82.1466 119.384 82.1675 118.376 82.1728 117.366C82.1728 117.327 82.1754 117.285 82.1754 117.243C82.178 116.207 82.1623 115.176 82.1178 114.142C87.9483 116.848 94.2629 118.965 100.585 119.311C106.596 119.64 114.798 115.524 122.615 112.117C122.583 112.907 122.445 115.948 122.442 116.738V117.243C122.452 119.939 122.591 122.634 122.735 125.246C122.889 127.928 123.057 130.671 123.489 133.337C123.894 135.852 124.53 138.299 125.598 140.573C126.176 141.808 126.883 142.991 127.746 144.108C129.204 145.99 130.923 147.537 132.821 148.814Z" fill="#C0D0D8"/>
<path d="M26.0627 60.1053C28.0853 58.8936 30.3295 57.8861 32.1088 56.4233C32.9577 55.7272 33.6831 54.9159 34.1003 53.9817C34.6645 52.7203 34.6166 51.3491 34.2879 50.038C33.6412 47.4577 32.2318 45.0527 31.694 42.4463C31.1766 39.9393 31.1963 37.3747 31.7529 34.8887C32.2483 32.6774 33.1121 30.3875 34.8147 28.6028C35.6157 27.7602 36.6324 27.0614 37.8385 26.6375C39.0648 26.2109 40.4115 26.0984 41.7372 26.0304C43.2228 25.9545 44.7576 25.9493 46.1687 25.5358C47.4382 25.1642 48.4208 24.4236 49.1258 23.4998C50.4816 21.7229 50.9775 19.5954 52.0609 17.706C56.2781 10.3603 66.0997 5.44049 76.0958 5.63153C82.2196 5.74929 87.8986 7.99982 93.9256 8.65928C97.2352 9.02042 100.457 8.66191 103.677 8.09404C106.782 7.54449 109.879 6.86668 113.078 6.75154C115.698 6.65733 118.521 6.9557 120.772 8.18041C123.142 9.47318 124.232 11.6478 124.312 13.9036C124.383 15.8977 123.677 17.8473 122.403 19.4986C121.484 20.6893 121.119 21.8721 120.017 23.0314C116.263 26.983 114.816 32.3058 111.325 36.4065C108.053 40.2507 102.796 41.5147 98.6178 44.2206C96.5716 45.5447 94.8052 47.094 93.9028 49.3314C92.704 52.3016 94.2886 55.4341 93.1196 58.3362C92.7545 59.2417 92.139 60.0346 91.7219 60.9191C90.353 63.8187 91.2653 67.2285 92.0268 70.3845C92.7749 73.483 93.4054 77.3324 91.1211 79.9284C89.1196 82.1999 85.2838 82.2889 83.544 84.8456C82.9529 85.7144 82.6454 86.6932 82.4389 87.6719C81.9964 89.7707 81.9953 91.9139 81.4531 94.0022C80.8947 96.1533 79.9526 98.2521 78.563 100.126C77.2218 101.934 75.452 103.525 73.2873 104.695C70.802 106.035 67.9025 106.768 64.9851 107.228C62.1664 107.673 59.2894 107.919 56.4304 108.154C53.712 108.38 50.9781 108.539 48.2387 108.508C43.0734 108.45 37.6839 107.702 33.3393 105.203C29.0467 102.73 26.4934 98.9272 25.1454 94.8736C23.9532 91.2885 23.4955 87.507 23.4109 83.8198C23.3944 83.0949 23.3884 82.3412 23.0056 81.6818C21.8369 79.6693 18.948 79.4469 17.9188 77.0603C17.067 75.0871 17.1921 72.9124 17.6684 70.9053C18.6966 66.5743 21.7408 62.6986 26.0627 60.1053Z" fill="#628B9D"/>
<path d="M138.653 62.335C138.601 62.4161 138.474 62.581 138.341 62.7641C139.265 61.4976 139.506 58.9173 139.793 57.3995C140.153 55.4943 140.364 53.5605 140.437 51.6213C140.585 47.6933 141.082 42.6034 140.096 38.7906C139.277 35.6241 138.306 32.4079 136.47 29.6261C134.578 26.758 130.395 22.0005 127.562 20.0744C122.373 16.5442 116.261 13.8435 110.062 12.8621C107.498 12.4565 104.904 12.221 102.308 12.1686C99.7119 12.221 97.118 12.4565 94.5542 12.8621C88.3555 13.8435 82.2437 16.5442 77.0546 20.0744C74.2213 22.0005 70.0382 26.758 68.1459 29.6261C66.3098 32.4079 65.3395 35.6241 64.5207 38.7906C63.5346 42.6034 64.0315 47.6933 64.1797 51.6213C64.2527 53.5605 64.4628 55.4943 64.8237 57.3995C65.1105 58.9173 65.3513 61.4976 66.2756 62.7641C66.1424 62.581 66.0149 62.4161 65.9628 62.335C64.9404 60.736 58.5138 58.7969 59.3514 65.1168C59.637 67.2679 60.3825 69.5786 60.9404 71.6878C61.2793 72.9701 61.5651 74.2681 61.8454 75.5661C62.3818 78.0522 62.2596 81.1009 63.454 83.2887C64.4419 85.0969 66.6223 86.2222 68.4342 86.8241C69.3567 91.4587 70.488 95.9205 71.6897 99.7909C72.518 102.46 73.9601 104.886 75.7114 107.048C78.6004 110.617 82.0728 113.682 84.9405 117.311C85.6224 118.175 86.2557 119.075 86.9683 119.915C87.1709 120.153 87.3776 120.383 87.588 120.606C91.0871 124.314 95.6073 125.845 100.666 126.167C101.214 126.203 101.77 126.23 102.328 126.245C102.886 126.23 103.441 126.203 103.99 126.167C109.029 125.845 113.535 124.325 117.029 120.648C117.253 120.412 117.472 120.169 117.688 119.915C120.4 116.725 122.971 113.158 126.019 110.177C129.02 107.241 131.666 103.852 132.927 99.7909C134.128 95.9205 135.26 91.4587 136.182 86.8241C137.994 86.2222 140.298 85.0969 141.286 83.2887C142.48 81.1009 142.234 78.0522 142.771 75.5661C143.051 74.2681 143.337 72.9701 143.676 71.6878C144.234 69.5786 144.979 67.2679 145.265 65.1168C146.103 58.7969 139.676 60.736 138.653 62.335Z" fill="#ECF4FB"/>
<path d="M194.771 69.5813C193.665 64.9598 190.199 60.8696 185.216 58.1846C182.883 56.9285 180.288 55.8975 178.245 54.3692C177.27 53.6391 176.442 52.7859 175.975 51.7941C175.345 50.4543 175.43 48.9836 175.842 47.5704C176.651 44.7939 178.347 42.1874 179.03 39.3821C179.687 36.684 179.72 33.9363 179.124 31.2853C178.594 28.9249 177.636 26.4911 175.689 24.6122C174.774 23.7303 173.603 23.0002 172.206 22.5736C170.785 22.1392 169.217 22.0502 167.673 22.0057C165.942 21.956 164.153 21.9822 162.517 21.5687C161.044 21.1971 159.914 20.4251 159.112 19.4516C157.57 17.5753 157.037 15.3038 155.815 13.3045C151.056 5.52178 139.71 0.458069 128.05 0.879395C120.906 1.13585 114.236 3.66899 107.194 4.50117C103.327 4.95913 99.5785 4.64512 95.8363 4.10342C92.2278 3.58004 88.6303 2.92316 84.9033 2.86559C81.8507 2.82111 78.5515 3.20058 75.9011 4.56138C73.1091 5.99545 71.7912 8.3507 71.6497 10.7713C71.5243 12.9094 72.306 14.982 73.7555 16.7248C73.8675 16.8583 73.9719 16.9943 74.0711 17.1278C71.1198 19.5013 68.7106 22.5291 66.8306 25.7977C63.8602 30.9608 62.1921 36.7338 60.829 42.4831C60.1104 45.5161 59.2772 48.6172 59.2764 51.7523C59.2758 54.3012 59.928 56.9364 61.5923 58.9383C61.9857 59.412 62.3167 60.1133 62.9267 60.1997C66.3713 60.6916 67.8575 67.2941 67.8787 67.2209C68.6844 64.4103 66.4561 32.6435 83.0139 30.0658C83.9748 31.6569 85.0143 33.2035 86.3081 34.6062C90.0403 38.6572 96.1424 39.8976 100.957 42.7082C103.314 44.0847 105.34 45.7072 106.345 48.0859C107.678 51.2419 105.763 54.6335 107.064 57.7162C107.47 58.6792 108.17 59.5167 108.638 60.4561C110.171 63.5362 109.034 67.2078 108.078 70.6045C107.139 73.9411 106.321 78.0811 108.929 80.8131C111.213 83.205 115.684 83.2181 117.658 85.9213C118.328 86.8399 118.665 87.8814 118.885 88.9256C119.356 91.1657 119.311 93.4633 119.899 95.6877C120.503 97.9801 121.557 100.21 123.136 102.188C124.661 104.098 126.691 105.765 129.19 106.972C132.059 108.354 135.424 109.078 138.815 109.51C142.092 109.926 145.442 110.13 148.77 110.322C151.935 110.505 155.12 110.615 158.315 110.523C164.339 110.353 170.639 109.437 175.759 106.663C180.818 103.923 183.877 99.7936 185.536 95.4208C187.004 91.553 187.619 87.4941 187.797 83.54C187.832 82.7627 187.855 81.9567 188.315 81.2423C189.721 79.0598 193.095 78.7589 194.346 76.1812C195.382 74.0484 195.283 71.7193 194.771 69.5813Z" fill="#628B9D"/>
</svg>
