<svg width="205" height="214" viewBox="0 0 205 214" fill="none" xmlns="http://www.w3.org/2000/svg">
<path d="M204.012 112.129C204.012 134.368 196.862 154.939 184.733 171.664C184.262 172.315 183.783 172.959 183.296 173.598C181.208 176.34 178.983 178.97 176.633 181.482C175.835 182.336 175.024 183.173 174.197 184C173.056 185.138 171.889 186.251 170.693 187.334C168.631 189.208 166.488 190.998 164.274 192.696C147.156 205.851 125.726 213.668 102.47 213.668C77.282 213.668 54.2348 204.498 36.4895 189.315C34.9115 187.962 33.3727 186.565 31.8811 185.12C31.4912 184.746 31.1091 184.366 30.7244 183.984C29.0391 182.302 27.4088 180.559 25.8439 178.758C24.224 176.898 22.6722 174.977 21.191 173.001C20.5655 172.169 19.9532 171.326 19.3565 170.476C7.74266 153.968 0.928223 133.844 0.928223 112.129C0.928223 71.831 24.3993 37.0182 58.4166 20.6127C71.742 14.1856 86.6846 10.5847 102.47 10.5847C116.478 10.5847 129.827 13.424 141.967 18.5558C178.426 33.9642 204.012 70.0568 204.012 112.129Z" fill="#DAEAF1"/>
<path d="M174.205 180.284C154.722 195.253 130.335 204.15 103.87 204.15C75.2068 204.15 48.9775 193.714 28.7827 176.435C31.2348 167.236 33.4329 157.957 35.3721 148.609C39.8522 127.019 42.9533 105.076 44.6255 83.0028C46.1721 62.5463 46.07 40.3287 57.0297 22.7011C75.246 -6.60049 126.692 -6.61096 144.916 22.7011C155.873 40.3287 155.774 62.5463 157.32 83.0028C158.99 105.076 162.091 127.019 166.571 148.609C168.783 159.262 171.329 169.827 174.205 180.284Z" fill="#82A2B0"/>
<path d="M183.296 173.598C181.208 176.338 178.983 178.97 176.633 181.482C175.838 182.333 175.024 183.173 174.197 183.997C173.056 185.138 171.889 186.25 170.693 187.334C168.631 189.208 166.49 190.998 164.276 192.696C147.156 205.851 125.726 213.668 102.47 213.668C77.2819 213.668 54.2348 204.498 36.4895 189.312C34.9115 187.962 33.3727 186.565 31.881 185.12C31.4911 184.746 31.109 184.366 30.727 183.984C29.0391 182.302 27.4087 180.556 25.8438 178.758C24.2239 176.895 22.6721 174.977 21.1909 173.001C23.4755 171.591 25.8517 170.146 26.362 169.858C27.8065 169.044 29.3531 168.335 31.0174 167.752C32.2683 167.309 33.5873 166.935 34.9716 166.639C35.8954 166.44 36.8244 166.26 37.7508 166.098C38.8525 165.901 39.9542 165.723 41.0481 165.559C41.9954 165.415 42.9375 165.276 43.8718 165.142C46.9126 164.695 50.1236 164.596 53.311 164.407C56.2079 164.237 59.0892 163.994 61.7951 163.355C63.5641 162.934 65.3227 162.421 67.0289 161.777C71.7969 159.985 75.6882 155.928 78.0932 151.514C79.7261 148.512 80.4772 145.38 80.8855 142.155C81.1472 140.072 81.2675 137.95 81.3905 135.799C81.4481 134.75 81.5057 133.684 81.5528 132.612C81.6208 131.104 81.6705 129.581 81.6758 128.058C81.6784 126.627 81.647 125.19 81.5554 123.769C81.4795 122.602 81.1419 118.451 81.1105 118.247L89.6757 118.904L100.973 119.768L112.631 118.875L120.835 118.247C120.804 118.451 120.466 122.602 120.39 123.769C120.299 125.19 120.267 126.627 120.27 128.058C120.281 130.667 120.414 133.274 120.555 135.799C120.678 137.947 120.796 140.07 121.06 142.153C121.466 145.379 122.22 148.512 123.85 151.514C124.036 151.851 124.229 152.189 124.431 152.521C126.859 156.538 130.518 160.123 134.914 161.777C136.623 162.421 138.382 162.934 140.148 163.355C142.794 163.981 145.604 164.227 148.439 164.397C150.064 164.493 151.697 164.567 153.314 164.671C154.929 164.776 156.522 164.915 158.074 165.142C159.008 165.276 159.95 165.415 160.898 165.559C162.094 165.739 163.297 165.933 164.499 166.15C165.326 166.299 166.15 166.461 166.972 166.639C168.356 166.935 169.675 167.309 170.928 167.752C172.59 168.335 174.139 169.044 175.581 169.858C176.654 170.463 179.993 172.004 183.296 173.598Z" fill="#ECF4FB"/>
<path d="M81.4063 118.627C81.2833 118.506 81.1578 118.378 81.0295 118.247C81.1578 118.378 81.2833 118.504 81.4063 118.627Z" fill="#F4A376"/>
<path d="M135.673 93.8787C135.676 93.8682 135.679 93.8551 135.681 93.8394C135.679 93.8525 135.676 93.8656 135.673 93.8787Z" fill="#F4A376"/>
<path d="M184.733 171.664C184.262 172.315 183.783 172.959 183.296 173.598C181.208 176.34 178.983 178.97 176.633 181.482C175.835 182.336 175.024 183.173 174.197 184C173.056 185.138 171.889 186.251 170.693 187.334C168.631 189.208 166.487 190.998 164.274 192.696C147.156 205.851 125.726 213.668 102.47 213.668C77.2819 213.668 54.2348 204.498 36.4894 189.315C34.9114 187.962 33.3726 186.565 31.881 185.12C31.4911 184.746 31.109 184.366 30.7243 183.984C29.0391 182.302 27.4087 180.559 25.8438 178.758C24.2239 176.898 22.6721 174.977 21.1909 173.001C20.5655 172.169 19.9531 171.326 19.3564 170.476C21.5625 168.749 23.9675 167.55 26.5321 166.807C28.1179 166.349 29.7666 166.064 31.465 165.933C33.4931 165.776 35.5918 165.839 37.7508 166.098C39.3942 166.291 41.069 166.595 42.7726 166.995C48.946 168.45 54.7477 170.785 60.4735 173.258C60.7954 173.396 61.1172 173.538 61.4365 173.679C61.9468 173.899 62.4545 174.121 62.9648 174.344C70.088 177.463 77.159 180.635 84.7585 182.435C87.3754 183.055 90.0551 183.513 92.8186 183.749C95.6396 183.987 98.4868 184.152 101.347 184.212C104.205 184.152 107.055 183.987 109.873 183.749C112.639 183.513 115.319 183.055 117.936 182.435C125.533 180.635 132.606 177.463 139.729 174.344C140.237 174.121 140.747 173.899 141.255 173.679C141.577 173.538 141.899 173.396 142.218 173.258C147.944 170.785 153.746 168.45 159.919 166.995C161.468 166.631 162.996 166.346 164.499 166.153C166.545 165.886 168.539 165.786 170.47 165.883C172.438 165.982 174.341 166.281 176.162 166.807C179.276 167.712 182.158 169.285 184.733 171.664Z" fill="#82A2B0"/>
<path d="M124.431 152.521C108.889 151.378 98.3351 147.565 88.9142 136.129C87.9303 134.936 85.0648 133.745 81.5529 132.612C81.6209 131.104 81.6706 129.581 81.6758 128.058C81.6785 126.627 81.6471 125.19 81.5555 123.769C81.4796 122.602 81.142 118.452 81.1106 118.247L89.6757 118.904C92.8422 119.784 96.061 120.378 99.2798 120.553C103.129 120.762 107.748 120.155 112.631 118.875L120.835 118.247C120.804 118.452 120.466 122.602 120.391 123.769C120.299 125.19 120.268 126.627 120.27 128.058C120.281 130.667 120.414 133.274 120.555 135.799C120.678 137.948 120.796 140.07 121.06 142.153C121.466 145.38 122.22 148.512 123.85 151.514C124.036 151.851 124.23 152.189 124.431 152.521Z" fill="#C0D0D8"/>
<path d="M147.413 64.7549C146.633 64.3284 145.686 64.3441 144.956 64.8649C144.144 65.4458 143.658 66.4272 143.129 67.2384C143.124 67.2489 143.116 67.2593 143.111 67.2672C142.608 68.0418 141.407 67.6519 141.449 66.7307C141.595 63.5721 141.423 60.403 140.918 57.2732C139.421 48.0145 135.019 39.2217 127.768 32.9332C126.815 32.1089 125.823 31.3291 124.795 30.5989C119.674 26.9588 113.621 24.5225 107.309 23.7793C105.924 23.617 104.506 23.5019 103.077 23.4391L100.973 14.921L98.869 23.4391C97.4376 23.5019 96.0218 23.617 94.6375 23.7793C88.3229 24.5225 82.2725 26.9588 77.1512 30.5989C76.1201 31.3291 75.1283 32.1089 74.1784 32.9332C66.9243 39.2217 62.5227 48.0145 61.0284 57.2732C60.5207 60.403 60.3506 63.5721 60.4945 66.7307C60.5364 67.6519 59.3378 68.0418 58.8354 67.2672C58.8275 67.2593 58.8223 67.2489 58.8145 67.2384C58.2885 66.4272 57.8017 65.4458 56.9879 64.8649C56.2604 64.3441 55.3131 64.3284 54.5332 64.7549C52.6176 65.8069 52.8689 68.1779 52.9107 69.994C52.9631 72.2341 53.0337 74.4768 53.2431 76.7116C53.6199 80.7182 54.4442 84.7064 56.2918 88.3386C57.035 89.7963 57.8226 91.4606 59.0971 92.5388C60.8897 94.0592 62.6771 92.7193 64.4147 93.8708C66.0817 94.9725 68.9053 105.346 69.7035 107.128C72.8438 114.131 79.865 118.959 86.0618 123.104C90.487 126.062 95.5796 128.409 100.973 128.545C106.367 128.409 111.459 126.062 115.882 123.104C122.081 118.959 129.1 114.131 132.243 107.128C133.041 105.346 135.864 94.9725 137.529 93.8708C139.269 92.7193 141.054 94.0592 142.849 92.5388C144.123 91.4606 144.908 89.7963 145.652 88.3386C147.502 84.7064 148.326 80.7182 148.703 76.7116C148.912 74.4768 148.983 72.2341 149.033 69.994C149.075 68.1779 149.328 65.8069 147.413 64.7549Z" fill="#ECF4FB"/>
<path d="M127.867 60.0315C128.398 49.4879 125.334 41.6267 125.292 41.5142C127.194 51.5161 124.646 60.0315 124.646 60.0315H88.7676C88.7676 60.0315 86.7814 53.0548 87.7183 43.0006C87.7183 43.0006 84.1907 50.2076 83.5312 60.0315H52.3245C53.714 48.8546 56.1713 38.0572 61.167 28.5107C69.6511 12.2937 84.8894 6.09946 99.4578 4.83288C100.468 4.7439 101.478 4.7439 102.486 4.83288C117.057 6.09946 132.292 12.2937 140.779 28.5107C145.772 38.0572 148.232 48.8546 149.619 60.0315H127.867Z" fill="#82A2B0"/>
</svg>
