<svg width="205" height="225" viewBox="0 0 205 225" fill="none" xmlns="http://www.w3.org/2000/svg">
<path d="M204.012 123.042C204.012 140.845 199.429 157.578 191.382 172.125C190.851 173.085 190.307 174.033 189.747 174.972C185.792 181.606 181.103 187.748 175.793 193.288C174.762 194.364 173.708 195.418 172.629 196.449C171.939 197.109 171.237 197.76 170.528 198.402C168.686 200.066 166.783 201.665 164.823 203.191C163.826 203.97 162.811 204.729 161.782 205.47C146.191 216.712 127.278 223.636 106.796 224.492C106.1 224.524 105.401 224.547 104.699 224.56C103.954 224.579 103.208 224.586 102.457 224.586C102.098 224.586 101.742 224.584 101.384 224.579C101.051 224.576 100.719 224.571 100.389 224.565C100.358 224.565 100.327 224.565 100.295 224.563C99.5755 224.547 98.8585 224.524 98.1441 224.492C77.6641 223.636 58.7516 216.712 43.1574 205.47C42.129 204.729 41.1136 203.97 40.1166 203.191C37.9995 201.542 35.9478 199.809 33.9694 197.996C33.2524 197.344 32.5432 196.677 31.8471 196.002C30.9286 195.115 30.0309 194.212 29.1464 193.288C24.19 188.117 19.7752 182.42 15.9938 176.291C15.3919 175.318 14.8057 174.331 14.2379 173.334C5.76951 158.509 0.928223 141.342 0.928223 123.042C0.928223 84.4243 22.489 50.8414 54.227 33.6718H54.2296C55.1769 33.1589 56.1321 32.6617 57.0978 32.1775C58.0346 31.7091 58.9819 31.2538 59.9371 30.8115C61.2508 30.207 62.5802 29.626 63.9226 29.0739C75.8087 24.1933 88.8252 21.5005 102.47 21.5005C115.738 21.5005 128.414 24.0468 140.03 28.6761C141.713 29.3434 143.37 30.0578 145.003 30.8115C145.793 31.1779 146.578 31.5521 147.358 31.9368C148.475 32.489 149.582 33.0621 150.679 33.6535C182.435 50.8178 204.012 84.4086 204.012 123.042Z" fill="#DAEAF1"/>
<path d="M175.911 183.223C174.736 184.142 173.54 185.037 172.329 185.908C153.96 199.153 131.68 207.31 107.552 208.32C105.856 208.356 104.155 208.39 102.457 208.427C100.759 208.39 99.0575 208.356 97.3592 208.32C73.2338 207.31 50.9533 199.153 32.5826 185.908C31.3709 185.037 30.1776 184.142 29 183.223C31.2401 175.572 33.2996 167.854 35.1733 160.085C36.4137 154.937 37.5731 149.769 38.6486 144.579C43.0058 123.576 46.023 102.235 47.6481 80.7659C49.1529 60.8669 49.0535 39.2564 59.7148 22.1103C69.1409 6.9479 86.3288 1.48114 102.457 0.609708C118.582 1.48114 135.773 6.9479 145.199 22.1103C155.858 39.2564 155.758 60.8669 157.263 80.7659C158.888 102.235 161.905 123.576 166.263 144.579C167.338 149.769 168.497 154.94 169.738 160.085C171.612 167.857 173.671 175.572 175.911 183.223Z" fill="#82A2B0"/>
<path d="M191.382 172.125C190.851 173.085 190.307 174.033 189.747 174.972C185.792 181.606 181.103 187.748 175.793 193.288C174.762 194.364 173.708 195.418 172.629 196.449C171.938 197.111 171.237 197.76 170.528 198.402C168.686 200.066 166.783 201.665 164.823 203.191C163.826 203.97 162.811 204.729 161.782 205.47C146.191 216.712 127.278 223.636 106.796 224.495C106.099 224.524 105.401 224.547 104.699 224.563C103.954 224.579 103.208 224.586 102.457 224.586C102.098 224.586 101.742 224.584 101.384 224.579C101.051 224.576 100.719 224.573 100.389 224.565C100.358 224.565 100.327 224.565 100.295 224.563C99.5755 224.547 98.8585 224.524 98.144 224.495C77.664 223.636 58.7516 216.712 43.1573 205.47C42.1289 204.729 41.1135 203.97 40.1165 203.191C37.9994 201.542 35.9477 199.809 33.9694 197.999C33.2523 197.344 32.5431 196.677 31.847 196.002C30.9285 195.115 30.0309 194.212 29.1464 193.288C24.1899 188.117 19.7752 182.42 15.9937 176.291C15.3918 175.318 14.8057 174.331 14.2378 173.334C17.6215 169.725 22.311 165.24 24.7473 163.822C24.852 163.759 24.9593 163.699 25.0666 163.638C27.6417 162.183 30.549 161.066 33.8254 160.362C34.2729 160.265 34.723 160.171 35.1731 160.085C36.0446 159.915 36.916 159.758 37.7874 159.614C37.8581 159.601 37.9287 159.59 37.9994 159.58C38.5594 159.485 39.1194 159.399 39.6768 159.315C39.7868 159.297 39.8967 159.281 40.0066 159.266C40.9696 159.116 41.93 158.978 42.8774 158.839C44.6856 158.572 46.5515 158.428 48.4383 158.318C48.9434 158.284 49.4484 158.258 49.9561 158.232C53.7454 158.028 57.5739 157.858 61.112 157.023C62.9098 156.594 64.7024 156.07 66.4374 155.419C70.6638 153.825 74.5604 151.446 77.4233 147.748C78.2712 146.655 78.962 145.495 79.5299 144.289C80.6028 142.01 81.2335 139.558 81.6313 137.04C82.0422 134.449 82.2096 131.788 82.3536 129.187C82.4608 127.305 82.5603 125.379 82.61 123.44C82.6283 122.731 82.6414 122.022 82.644 121.312C82.6519 119.855 82.6152 118.395 82.5237 116.95C82.5132 116.793 82.4975 116.586 82.4818 116.343V116.338C82.4792 116.309 82.4765 116.277 82.4765 116.246C82.3509 114.605 82.0997 111.509 82.0709 111.331L83.3375 111.42L102.457 112.789L122.842 111.331C122.816 111.496 122.594 114.181 122.466 115.877C122.445 116.133 122.426 116.366 122.413 116.565V116.568C122.403 116.717 122.395 116.843 122.39 116.95C122.296 118.395 122.262 119.855 122.267 121.312C122.275 123.966 122.413 126.617 122.56 129.187C122.706 131.827 122.874 134.523 123.298 137.153C123.696 139.62 124.321 142.028 125.373 144.271C125.941 145.485 126.637 146.649 127.488 147.748C130.076 151.09 133.506 153.357 137.27 154.937C137.667 155.105 138.073 155.267 138.479 155.419C140.211 156.07 142.001 156.594 143.799 157.023C147.339 157.86 151.168 158.028 154.955 158.232C155.222 158.245 155.486 158.261 155.75 158.274C157.883 158.397 159.997 158.541 162.033 158.839C162.96 158.972 163.897 159.109 164.836 159.252C164.857 159.255 164.883 159.258 164.907 159.266C165.501 159.355 166.098 159.449 166.694 159.546C166.767 159.556 166.841 159.566 166.914 159.58C167.856 159.734 168.796 159.901 169.738 160.085C170.19 160.171 170.638 160.265 171.085 160.362C174.33 161.061 177.209 162.16 179.763 163.594C179.792 163.61 179.818 163.623 179.844 163.638C182.288 165.018 187.512 168.823 191.382 172.125Z" fill="#ECF4FB"/>
<path d="M172.629 196.449C171.939 197.109 171.237 197.76 170.528 198.402C168.686 200.066 166.783 201.665 164.823 203.191C163.826 203.97 162.811 204.729 161.782 205.47C146.191 216.712 127.278 223.636 106.796 224.492C106.1 224.524 105.401 224.547 104.7 224.56C103.954 224.579 103.208 224.586 102.457 224.586C102.098 224.586 101.742 224.584 101.384 224.579C101.052 224.576 100.719 224.571 100.389 224.565C100.358 224.565 100.327 224.565 100.295 224.563C99.5756 224.547 98.8586 224.524 98.1442 224.492C77.6642 223.636 58.7517 216.712 43.1575 205.47C42.129 204.729 41.1137 203.97 40.1166 203.191C37.9995 201.542 35.9479 199.809 33.9695 197.996C33.2524 197.344 32.5433 196.677 31.8472 196.002C32.4543 193.074 33.0849 189.912 33.6999 186.704C35.8249 175.613 37.7719 163.976 37.9995 159.58C38.5596 159.485 39.1196 159.399 39.677 159.313C39.7869 159.297 39.8968 159.281 40.0067 159.263C40.9697 159.116 41.9302 158.978 42.8775 158.839C44.6858 158.572 46.5516 158.428 48.4384 158.316C48.9435 158.284 49.4486 158.258 49.9562 158.232C59.4295 180.983 79.3782 196.661 102.457 196.661C125.533 196.661 145.482 180.983 154.955 158.232C155.222 158.245 155.486 158.261 155.75 158.274C157.883 158.394 159.998 158.541 162.034 158.839C162.96 158.972 163.897 159.109 164.836 159.252C164.857 159.255 164.883 159.258 164.907 159.263C165.501 159.355 166.098 159.449 166.694 159.546C166.768 159.556 166.841 159.566 166.914 159.58C167.134 163.816 168.906 175.514 170.9 186.924C171.47 190.184 172.056 193.416 172.629 196.449Z" fill="#A7BEC8"/>
<path d="M137.27 154.937C112.773 156.204 103.336 146.733 91.7614 130.864C89.3748 127.593 86.1088 125.426 82.61 123.44C82.6283 122.731 82.6414 122.021 82.6441 121.312C82.6519 119.855 82.6153 118.394 82.5237 116.95C82.5132 116.793 82.4975 116.586 82.4818 116.343V116.338C82.4792 116.309 82.4766 116.277 82.4766 116.246C88.082 119.088 94.1062 121.265 100.133 121.637C106.259 122.014 114.51 119.836 122.466 115.877C122.445 116.133 122.426 116.366 122.413 116.565V116.568C122.403 116.717 122.395 116.843 122.39 116.95C122.296 118.394 122.262 119.855 122.267 121.312C122.275 123.966 122.413 126.617 122.56 129.187C122.706 131.827 122.874 134.523 123.298 137.153C123.696 139.62 124.321 142.028 125.373 144.271C125.941 145.485 126.637 146.649 127.488 147.748C130.076 151.09 133.506 153.356 137.27 154.937Z" fill="#C0D0D8"/>
<path d="M149.423 68.0843C149.37 70.2642 149.302 72.4468 149.098 74.6188C148.732 78.518 147.931 82.3963 146.131 85.9265C145.408 87.3449 144.644 88.9647 143.406 90.0141C141.661 91.4927 139.923 90.1895 138.23 91.3095C136.61 92.3824 133.098 101.17 132.321 102.902C128.862 110.612 125.237 114.464 118.598 119.774C114.722 122.875 107.604 126.714 102.635 126.999C102.601 127.002 102.567 127.002 102.533 126.999C97.5632 126.714 90.4452 122.875 86.567 119.774C79.9305 114.464 76.1333 110.612 72.6737 102.902C71.8965 101.17 68.2695 92.3824 66.647 91.3095C65.0977 90.281 64.2368 91.3095 61.9287 90.3779C60.2486 89.7001 59.6808 87.528 58.8643 85.9265C57.0638 82.3963 56.2631 78.518 55.8967 74.6188C55.7501 73.0617 55.6742 71.5021 55.6245 69.9398C55.6219 69.8953 55.6219 69.8482 55.6193 69.8037C55.6088 69.4164 55.5983 69.0264 55.5879 68.6391C55.5879 68.5947 55.5853 68.5528 55.5853 68.5109C55.5827 68.367 55.5774 68.2257 55.5748 68.0843C55.5643 67.6107 55.5382 67.1004 55.5434 66.5849C55.5434 66.5168 55.5434 66.4488 55.546 66.3781C55.5565 65.9856 55.5853 65.5931 55.6586 65.2162C55.6716 65.1456 55.6873 65.0723 55.703 65.0016C55.8967 64.1799 56.3076 63.455 57.1502 62.9892C57.9091 62.5731 58.8302 62.5888 59.542 63.0965C61.1069 64.2192 61.667 66.1478 62.1433 67.9116C62.3866 68.8145 63.0958 70.7065 63.1246 71.3084C62.9833 68.2335 62.9781 58.755 63.4701 55.7116C64.9251 46.7068 69.2063 38.1547 76.2589 32.0363C77.1853 31.2355 78.151 30.4766 79.1506 29.7648C84.1332 26.2268 90.0187 23.8558 96.1606 23.1335C98.2201 22.8928 106.775 22.8928 108.837 23.1335C114.976 23.8558 120.862 26.2268 125.844 29.7648C126.844 30.4766 127.81 31.2355 128.736 32.0363C135.791 38.1547 140.072 46.7068 141.527 55.7116C142.019 58.755 141.896 67.8985 141.755 70.9708C141.763 70.8164 142.362 69.3012 142.511 68.8145C143.1 66.8544 143.679 64.3683 145.455 63.0965C146.165 62.5888 147.086 62.5731 147.845 62.9892C149.708 64.0124 149.462 66.3179 149.423 68.0843Z" fill="#ECF4FB"/>
<path d="M109.355 44.7754C106.78 42.2161 104.095 39.7798 101.481 37.2754C101.58 37.2754 101.677 37.2754 101.771 37.2754C105.833 40.9521 114.565 46.6963 117.823 50.9304C119.09 52.5739 120.367 54.2173 121.696 55.8267C117.109 52.7963 113.22 48.6171 109.355 44.7754ZM148.475 41.5409C148.423 41.1903 148.392 40.8396 148.384 40.4837C148.297 37.2832 148.096 34.5459 147.358 31.9369C146.664 29.4743 145.495 27.1296 143.495 24.6226C142.789 23.7354 142.056 22.8588 141.297 22.0004C136.498 16.5729 130.641 11.9174 123.628 10.4022C116.557 8.87134 107.316 9.30837 100.102 9.80558C94.6977 10.1772 86.0252 10.5488 80.6736 11.3914C73.0845 12.5847 67.0604 16.6253 62.596 22.4113C60.3794 25.282 58.5476 28.582 57.0978 32.1776C57.0717 32.243 57.0455 32.3032 57.0219 32.366C53.0808 42.2475 52.8846 53.3406 57.4458 62.8531V62.8557C58.2702 64.5724 59.2463 66.2342 60.3847 67.8305C62.3657 70.607 64.7706 73.1507 66.0398 76.3145C69.8134 72.52 69.8265 66.543 70.9779 61.3196C72.4696 54.5627 76.3034 48.3476 81.6707 43.9799C82.5421 43.2734 83.4868 42.5956 84.5781 42.3391C85.5908 42.1036 86.648 42.2475 87.6608 42.4595C100.696 45.1942 109.473 58.6661 122.542 61.2333C124.745 61.665 127.195 61.8535 128.786 63.4367C130.16 64.8054 130.515 66.8518 131.149 68.681C132.253 71.8658 134.404 74.679 137.186 76.5789C138.717 74.5272 140.248 72.4781 141.776 70.4265C141.875 70.293 141.975 70.1596 142.077 70.0261V70.0235C143.87 67.6238 145.662 65.2214 147.455 62.8191C148.135 61.9084 148.816 60.9951 149.493 60.0844C150.391 58.8859 151.302 57.6533 151.72 56.2166C153.293 50.797 149.263 46.9554 148.475 41.5409Z" fill="#82A2B0"/>
</svg>
