<svg width="204" height="212" viewBox="0 0 204 212" fill="none" xmlns="http://www.w3.org/2000/svg">
<path d="M203.083 110.042C203.083 129.871 197.401 148.367 187.576 164C187.138 164.702 186.689 165.395 186.231 166.083C182.448 171.794 178.1 177.095 173.271 181.916C154.9 200.25 129.545 211.586 101.541 211.586C73.5309 211.586 48.1683 200.245 29.798 181.9C24.8073 176.918 20.3313 171.417 16.4593 165.487C16.1011 164.94 15.747 164.385 15.3992 163.828C5.64049 148.233 0.000244141 129.797 0.000244141 110.042C0.000244141 72.2408 20.6566 39.265 51.2978 21.7814C66.1138 13.3314 83.2627 8.50052 101.541 8.50052C117.051 8.50052 131.75 11.9784 144.899 18.1988C179.292 34.4603 203.083 69.4721 203.083 110.042Z" fill="#DAEAF1"/>
<path d="M99.7354 100.381C99.7367 100.381 99.738 100.383 99.7393 100.383C99.7365 100.383 99.7338 100.386 99.731 100.386C99.7325 100.383 99.7341 100.383 99.7354 100.381Z" fill="#E3A4A1"/>
<path d="M99.7357 100.381C99.7367 100.381 99.738 100.383 99.7393 100.383C99.7365 100.383 99.7338 100.386 99.731 100.386C99.7325 100.383 99.7341 100.383 99.7357 100.381Z" fill="#E3A4A1"/>
<path d="M99.736 101.16C99.7375 101.16 99.7387 101.16 99.7401 101.16C99.7372 101.163 99.7343 101.163 99.7313 101.163C99.7331 101.163 99.7346 101.16 99.736 101.16Z" fill="#E3A4A1"/>
<path d="M99.7346 91.9244C99.7353 91.9244 99.7353 91.9277 99.7356 91.9277H99.736C99.7353 91.9277 99.735 91.9244 99.7346 91.9244Z" fill="#F2BFAE"/>
<path d="M99.736 101.16C99.7375 101.16 99.7387 101.16 99.7401 101.16C99.7372 101.163 99.7343 101.163 99.7313 101.163C99.7331 101.163 99.7346 101.16 99.736 101.16Z" fill="#E3A4A1"/>
<path d="M186.285 166.083C182.503 171.794 178.154 177.098 173.326 181.916C154.955 200.25 129.6 211.586 101.596 211.586C73.5846 211.586 48.2215 200.245 29.8533 181.9C24.8629 176.918 20.3853 171.417 16.5149 165.487C19.5479 161.436 26.098 156.613 28.4009 155.197C28.4951 155.137 28.5815 155.087 28.6548 155.045C28.7542 154.988 28.851 154.93 28.9479 154.875C29.1782 154.747 29.4111 154.619 29.6466 154.496C31.8265 153.35 34.255 152.462 36.9609 151.879C37.5261 151.756 38.0966 151.643 38.6671 151.536C39.3056 151.413 39.9442 151.303 40.5853 151.196C41.161 151.099 41.7367 151.007 42.3125 150.921C42.4145 150.905 42.514 150.89 42.6134 150.877C43.4927 150.74 44.372 150.615 45.2408 150.487C46.8921 150.246 48.5983 150.112 50.3255 150.008C52.3169 149.89 54.3294 149.809 56.313 149.647C57.3231 149.563 58.3254 149.458 59.312 149.314C60.1965 149.183 61.0653 149.024 61.9184 148.822C63.5618 148.432 65.2 147.956 66.7885 147.357C70.6563 145.899 74.2179 143.725 76.8401 140.341C77.6147 139.344 78.2454 138.284 78.7661 137.18C79.7475 135.094 80.3232 132.849 80.6896 130.548C81.0638 128.177 81.2156 125.746 81.349 123.365C81.3647 123.069 81.3831 122.771 81.3988 122.473C81.5008 120.578 81.5898 118.641 81.6081 116.702C81.6107 116.584 81.6133 116.469 81.6133 116.354C81.616 116.291 81.616 116.226 81.616 116.163C81.616 115.501 81.6107 114.839 81.5924 114.18C81.5872 113.941 81.5793 113.708 81.5689 113.47C81.5532 113.036 81.5296 112.602 81.5034 112.17C81.4328 111.084 81.1187 107.224 81.0873 107.033L99.7355 108.365L118.384 107.033C118.352 107.224 118.038 111.084 117.968 112.17C117.926 112.84 117.897 113.515 117.879 114.19C117.876 114.211 117.876 114.229 117.876 114.248C117.86 114.886 117.855 115.525 117.855 116.163C117.855 116.231 117.855 116.297 117.858 116.365C117.858 116.485 117.86 116.605 117.863 116.726C117.884 118.963 117.999 121.195 118.122 123.365C118.258 125.78 118.41 128.245 118.797 130.648C119.163 132.909 119.734 135.112 120.697 137.161C121.218 138.271 121.854 139.336 122.631 140.341C125.07 143.492 128.331 145.596 131.89 147.045C132.151 147.153 132.416 147.257 132.682 147.357C134.268 147.956 135.907 148.432 137.55 148.822C138.701 149.094 139.887 149.291 141.091 149.437C141.674 149.508 142.263 149.568 142.854 149.62C144.718 149.783 146.607 149.866 148.486 149.971C150.436 150.081 152.367 150.214 154.23 150.487C155.078 150.61 155.934 150.735 156.792 150.866C156.813 150.869 156.837 150.871 156.858 150.877C157.402 150.958 157.946 151.044 158.493 151.133C159.16 151.238 159.825 151.355 160.49 151.476C161.165 151.601 161.84 151.732 162.51 151.879C165.229 152.465 167.668 153.357 169.856 154.514C170.055 154.619 170.254 154.726 170.447 154.836C170.473 154.849 170.497 154.862 170.523 154.875C170.541 154.886 170.562 154.899 170.586 154.909C172.517 156.021 181.051 161.527 186.285 166.083Z" fill="#ECF4FB"/>
<path d="M142.854 149.62C111.81 155.126 102.593 146.451 90.8039 129.897C88.4042 126.529 84.9734 124.485 81.3987 122.473C81.5007 120.578 81.5897 118.641 81.608 116.702C81.6107 116.585 81.6133 116.469 81.6133 116.354C86.7817 119.165 92.4028 121.387 98.0292 121.742C103.457 122.085 110.823 120.044 117.858 116.365C117.858 116.485 117.86 116.605 117.863 116.726C117.884 118.963 117.999 121.196 118.122 123.365C118.258 125.78 118.41 128.246 118.797 130.648C119.163 132.909 119.734 135.112 120.697 137.161C121.218 138.271 121.854 139.336 122.631 140.341C125.07 143.492 128.33 145.596 131.889 147.045C132.151 147.153 132.415 147.257 132.682 147.357C134.268 147.956 135.906 148.432 137.55 148.822C138.701 149.094 139.887 149.291 141.091 149.437C141.674 149.508 142.263 149.568 142.854 149.62Z" fill="#C0D0D8"/>
<path d="M144.231 63.4609C143.484 63.0501 142.576 63.0632 141.878 63.563C141.1 64.1204 140.634 65.0625 140.129 65.8371C140.123 65.8476 140.117 65.8554 140.11 65.8659C139.628 66.6065 138.479 66.2349 138.52 65.353C138.659 62.3278 138.495 59.2896 138.01 56.2932C136.577 47.4245 132.362 39.0032 125.415 32.9791C124.504 32.1887 123.553 31.4429 122.568 30.7442C117.662 27.2585 111.866 24.9242 105.819 24.2124C104.492 24.058 103.136 23.9455 101.766 23.8879L99.7509 15.7257L97.7361 23.8879C96.3654 23.9455 95.0093 24.058 93.6828 24.2124C87.6353 24.9242 81.8402 27.2585 76.934 30.7442C75.9484 31.4429 74.998 32.1887 74.087 32.9791C67.1402 39.0032 62.9248 47.4245 61.4913 56.2932C61.0071 59.2896 60.8431 62.3278 60.9815 65.353C61.0223 66.2349 59.8735 66.6065 59.3915 65.8659C59.3852 65.8554 59.3786 65.8476 59.3724 65.8371C58.867 65.0625 58.4012 64.1204 57.6235 63.563C56.9253 63.0632 56.0175 63.0501 55.2703 63.4609C53.4367 64.4658 53.678 66.7373 53.718 68.4749C53.7667 70.6234 53.8344 72.7719 54.0357 74.9099C54.3966 78.749 55.185 82.5697 56.9569 86.0475C57.6685 87.4424 58.4214 89.0387 59.6416 90.0697C61.3599 91.5248 63.0706 90.2425 64.7363 91.3442C66.332 92.4014 69.0361 102.338 69.8013 104.041C72.8095 110.751 79.5334 115.375 85.4704 119.345C89.7066 122.179 94.5848 124.427 99.7509 124.558C104.917 124.427 109.795 122.179 114.031 119.345C119.968 115.375 126.692 110.751 129.7 104.041C130.465 102.338 133.169 92.4014 134.765 91.3442C136.431 90.2425 138.142 91.5248 139.86 90.0697C141.08 89.0387 141.833 87.4424 142.545 86.0475C144.317 82.5697 145.105 78.749 145.466 74.9099C145.667 72.7719 145.735 70.6234 145.784 68.4749C145.824 66.7373 146.065 64.4658 144.231 63.4609Z" fill="#ECF4FB"/>
<path d="M144.586 101.503C145.239 99.4934 145.775 97.413 146.183 95.2854C146.967 91.203 147.248 85.9797 146.586 82.7608C148.058 86.626 147.92 95.3116 144.586 101.503ZM53.3703 82.7608C52.7061 85.9797 52.9892 91.203 53.7707 95.2854C54.1805 97.413 54.7151 99.4934 55.3685 101.503C52.0343 95.3116 51.8972 86.626 53.3703 82.7608ZM158.266 64.7826C158.057 60.4412 157.278 56.1599 156.364 51.9205C155.643 48.5813 155.721 44.4806 154.51 41.3481C154.007 40.0475 151.956 28.6613 144.953 18.1989C139.143 9.51331 129.919 1.46367 115.339 0.351482C113.603 0.220636 111.866 0.0636311 110.128 0.139522C108.506 0.207562 106.823 0.364577 105.254 0.806836C104.131 1.1261 102.937 1.61807 101.937 2.3351C101.704 2.47903 101.476 2.63343 101.258 2.80615C100.175 3.65141 99.4568 4.73481 99.0051 5.94121C98.9871 5.94121 98.9703 5.94121 98.9523 5.94121C98.9342 5.94121 98.9162 5.94121 98.8981 5.94121C98.4493 4.73481 97.7281 3.65141 96.6468 2.80615C96.4282 2.63343 96.2008 2.47903 95.9658 2.3351C94.9659 1.61807 93.7731 1.1261 92.6513 0.806836C91.0819 0.364577 89.3981 0.207562 87.7778 0.139522C86.0383 0.0636311 84.2884 0.0897901 82.567 0.351482C66.9934 2.73811 57.343 11.9497 51.3521 21.7814C43.807 34.1647 42.0691 47.5319 41.6248 49.4972C40.4547 54.6708 41.9503 59.3473 41.6897 64.7826C41.6279 66.0728 41.6098 67.3681 41.6384 68.6635C41.7046 71.7776 42.027 74.8787 42.5781 77.8855C43.1897 81.209 44.0873 84.4252 45.2453 87.4451C47.4547 92.59 49.6699 95.7408 51.1896 97.481C50.2407 95.7695 49.6126 92.8648 49.0222 90.4493C49.185 90.9152 49.3551 91.3783 49.5299 91.8337C52.0388 97.6799 54.5568 100.951 56.0508 102.505C56.1774 102.856 56.3054 103.204 56.4365 103.547C58.7059 108.831 60.9784 112.01 62.5009 113.722C65.9349 121.117 69.2089 123.812 69.6666 124.024C69.1605 123.417 68.6892 122.766 68.254 122.067C67.2344 120.424 65.9723 116.592 65.882 116.27C68.9106 122.512 71.7342 125.129 72.5054 125.665C72.519 125.673 72.5295 125.681 72.5415 125.689C72.5415 125.691 72.5431 125.691 72.5447 125.691C72.5672 125.704 72.5868 125.718 72.6049 125.728C72.6245 125.741 72.641 125.749 72.6546 125.754C72.7179 125.783 72.7313 125.773 72.6907 125.723V125.72C72.171 125.103 71.6892 124.443 71.2464 123.726C68.5327 119.348 67.5144 113.674 67.5581 108.011C67.5356 105.211 67.757 102.401 68.1561 99.7263C68.1757 99.6007 68.1951 99.4751 68.2147 99.3495C69.6004 90.6744 73.5145 85.54 73.7676 75.3393C73.7027 72.8846 73.4166 70.1368 72.8247 66.9835C72.6245 65.9053 72.5792 64.7355 72.6907 63.4899C73.4904 54.629 82.3066 42.0913 99.9778 34.1202C116.895 43.4443 126.368 55.0869 127.242 63.7018C127.36 64.8533 127.322 65.9524 127.13 66.9835C126.539 70.1368 126.252 72.8846 126.187 75.3393C126.431 85.1815 130.086 90.3054 131.586 98.4414C131.663 98.8627 131.735 99.2893 131.8 99.7263C132.199 102.401 132.42 105.209 132.398 108.006C132.441 113.672 131.423 119.348 128.709 123.726C128.265 124.443 127.783 125.103 127.267 125.72V125.723C127.226 125.773 127.238 125.783 127.301 125.754C127.316 125.749 127.333 125.741 127.353 125.728C127.371 125.718 127.39 125.704 127.413 125.691C127.414 125.691 127.416 125.691 127.416 125.689C127.426 125.684 127.438 125.673 127.45 125.665C128.22 125.129 131.044 122.512 134.074 116.27C133.983 116.592 133.887 116.909 133.783 117.223C133.879 117.04 133.976 116.851 134.074 116.658C133.498 118.597 132.72 120.424 131.7 122.067C131.266 122.766 130.794 123.417 130.289 124.024C130.747 123.812 134.019 121.117 137.453 113.722C138.976 112.01 141.25 108.831 143.518 103.547C143.649 103.204 143.777 102.856 143.905 102.505C145.399 100.951 147.916 97.6799 150.424 91.8337C150.599 91.3783 150.771 90.9152 150.932 90.4493C150.342 92.8648 149.714 95.7695 148.766 97.481C150.284 95.7408 152.5 92.59 154.711 87.4451C155.867 84.4252 156.766 81.209 157.376 77.8855C157.929 74.8787 158.251 71.7776 158.316 68.6635C158.346 67.3681 158.328 66.0728 158.266 64.7826Z" fill="#82A2B0"/>
<path d="M187.63 164C187.192 164.702 186.743 165.395 186.285 166.083C182.502 171.794 178.155 177.095 173.325 181.916C154.955 200.25 129.6 211.586 101.595 211.586C73.5852 211.586 48.2228 200.245 29.8526 181.9C24.8616 176.918 20.3856 171.417 16.5139 165.487C16.1553 164.94 15.8015 164.385 15.4535 163.828C20.0409 160.585 26.4322 156.385 28.4007 155.197C28.4954 155.137 28.5815 155.087 28.6553 155.045C28.7532 154.988 28.8511 154.93 28.9489 154.875C29.1792 154.747 29.4111 154.619 29.6461 154.496C31.8252 153.35 34.2545 152.462 36.9609 151.879C37.5269 151.756 38.0964 151.643 38.6671 151.536C39.3057 151.413 39.9442 151.301 40.5843 151.196C41.161 151.099 41.7378 151.007 42.313 150.921C42.414 150.905 42.5135 150.89 42.6129 150.877C43.4938 150.74 44.3717 150.612 45.2408 150.487C46.8929 150.246 48.5991 150.112 50.325 150.008C52.3159 149.89 54.3296 149.809 56.313 149.644C57.3218 149.563 58.3249 149.456 59.3115 149.314C59.4167 149.34 59.4952 149.367 59.5402 149.393C59.9469 149.62 60.3504 149.853 60.7557 150.086C62.2859 150.968 63.8084 151.895 65.3278 152.844C65.4047 152.894 65.4829 152.941 65.5596 152.991C66.0521 153.297 66.5446 153.609 67.0371 153.92C77.543 160.559 88.1499 167.714 101.751 166.599C113.006 165.678 122.752 160.117 132.044 154.538C132.392 154.328 132.74 154.119 133.086 153.91C133.599 153.601 134.123 153.31 134.623 152.983C136.925 151.492 139.096 150.335 141.09 149.437C141.675 149.508 142.264 149.568 142.855 149.62C144.717 149.783 146.608 149.864 148.485 149.971C150.435 150.081 152.367 150.212 154.23 150.487C155.078 150.61 155.934 150.735 156.792 150.866C156.814 150.869 156.836 150.871 156.858 150.877C157.402 150.958 157.947 151.041 158.494 151.13C159.159 151.238 159.825 151.355 160.491 151.476C161.165 151.599 161.84 151.732 162.51 151.879C165.228 152.465 167.668 153.357 169.855 154.511C170.055 154.619 170.253 154.726 170.448 154.836C170.474 154.849 170.498 154.862 170.522 154.875C170.542 154.886 170.563 154.899 170.585 154.909C172.094 155.754 180.132 159.947 187.63 164Z" fill="#82A2B0"/>
</svg>
